<mxfile host="app.diagrams.net" modified="2022-11-26T20:22:26.013Z" agent="5.0 (Macintosh; Intel Mac OS X 10_15_7) AppleWebKit/537.36 (KHTML, like Gecko) Chrome/107.0.0.0 Safari/537.36" etag="bGjgQ4kcMytACwQ34P1c" version="20.5.3" type="github">
  <diagram id="obQFnI1HhyffPrukCY-8" name="Сторінка-1">
    <mxGraphModel dx="853" dy="508" grid="1" gridSize="10" guides="1" tooltips="1" connect="1" arrows="1" fold="1" page="1" pageScale="1" pageWidth="827" pageHeight="1169" math="0" shadow="0">
      <root>
        <mxCell id="0" />
        <mxCell id="1" parent="0" />
        <mxCell id="J81wiMtJb4JgW4ucFd7Q-1" value="" style="rounded=0;whiteSpace=wrap;html=1;strokeWidth=1;" vertex="1" parent="1">
          <mxGeometry x="40" y="40" width="320" height="1080" as="geometry" />
        </mxCell>
        <mxCell id="J81wiMtJb4JgW4ucFd7Q-3" value="320 px" style="text;html=1;strokeColor=none;fillColor=none;align=center;verticalAlign=middle;whiteSpace=wrap;rounded=0;strokeWidth=1;" vertex="1" parent="1">
          <mxGeometry x="150" y="10" width="60" height="30" as="geometry" />
        </mxCell>
        <mxCell id="J81wiMtJb4JgW4ucFd7Q-5" value="" style="rounded=0;whiteSpace=wrap;html=1;strokeWidth=1;strokeColor=none;" vertex="1" parent="1">
          <mxGeometry x="40" y="40.1" width="320" height="50" as="geometry" />
        </mxCell>
        <mxCell id="J81wiMtJb4JgW4ucFd7Q-4" value="" style="shape=image;verticalLabelPosition=bottom;labelBackgroundColor=default;verticalAlign=top;aspect=fixed;imageAspect=0;image=data:image/png,iVBORw0KGgoAAAANSUhEUgAAAfQAAAGSCAYAAAAVezPNAAABhGlDQ1BJQ0MgcHJvZmlsZQAAKJF9kT1Iw0AcxV9bpaIVETtIcchQnSyIXzhqFYpQIdQKrTqYXPoFTRqSFBdHwbXg4Mdi1cHFWVcHV0EQ/ABxdHJSdJES/5cUWsR4cNyPd/ced+8Af73MVLNjDFA1y0gl4kImuyoEX9GDCPoxhZjETH1OFJPwHF/38PH1LsazvM/9OXqVnMkAn0A8y3TDIt4gnt60dM77xGFWlBTic+JRgy5I/Mh12eU3zgWH/TwzbKRT88RhYqHQxnIbs6KhEk8SRxVVo3x/xmWF8xZntVxlzXvyF4Zy2soy12kOIYFFLEGEABlVlFCGhRitGikmUrQf9/BHHL9ILplcJTByLKACFZLjB/+D392a+YlxNykUBzpfbPtjGAjuAo2abX8f23bjBAg8A1day1+pAzOfpNdaWvQI6NsGLq5bmrwHXO4Ag0+6ZEiOFKDpz+eB9zP6piwwcAt0r7m9Nfdx+gCkqavkDXBwCIwUKHvd491d7b39e6bZ3w/rB3LXRVqdsAAAAAZiS0dEAP8A/wD/oL2nkwAAAAlwSFlzAAAWJQAAFiUBSVIk8AAAAAd0SU1FB+YLGhIgIhv7xo0AAAASdEVYdENvbW1lbnQAU2NyZWVuc2hvdPsRqwoAACAASURBVHja7L13nF1Xea//rLX3KVPVy6j3atmWuykmBhtsbIwpIfwITgIXSEgCaZByb24SIKSSkIR7KQmXhBISQkyzwcR2wAbchFzV2/TeZ04/e++1fn/sMyPJljR7z5wZyfL7+KOPZGnP2eusXb7rfddblLXWIgiCIAjCixotUyAIgiAIIuiCIAiCIIigC4IgCIIggi4IgiAIggi6IAiCIIigC4IgCIIggi4IgiAIggi6IAiCIAgi6IIgCIIggi4IgiAIggi6IAiCIAgi6IIgCIIgiKALgiAIggi6IAiCIAgi6IIgCIIgiKALgiAIgiCCLgiCIAgi6IIgCIIgiKALgiAIgiCCLgiCIAiCCLogCIIgiKALgiAIgiCCLgiCIAiCCLogCIIgCCLogiAIgiCCLgiCIAiCCLogCIIgCCLogiAIgiCIoAuCIAiCCLogCIIgCCLogiAIgiCIoAuCIAiCIIIuCIIgCCLogiAIgiCIoAuCIAiCIIIuCIIgCIIIuiAIgiCIoAuCIAiCIIIuCIIgCIIIuiAIgiAIIuiCIAiCIIIuCIIgCIIIuiAIgiAIIuiCIAiCIIigC4IgCIIggi4IgiAIIuiCIAiCIIigC4IgCIIggi4IgiAIggi6IAiCIIigC4IgCIIggi4IgiAIggi6IAiCIAgi6IIgCIIggi4IgiAIggi6IAiCIAgi6IIgCIIgiKALgiAIggi6IAiCIAgXKq5MgXCh0D84wvXv+7vIx3//E+9h84bVMnGCIAgi6MKFREdXX6zjV61YKpMmXJB88h/v5v98/7nIx//nR36e3bu2yMQJM0Jc7sIFw/HWnsjH3nH5amrSKZk04YLDWssDe0/E+pk1K5fJxAliob/YOXK8jdf/7hfO+ziuXbuQr37yN87rGJ462Br52Osu3SA3j3BBMjg8ypHBXOTjdy1vYNHCeTJxgljoL3qrtKX7ghjHjVdtOq/nL3se332qPfLxmzeslJtHuCBp74y3dXTTeX72BLHQhWpZpQdaLohx7Nh8foPLenqHKAQm8vFrVy+Xm0eYki/9x/185N8fiXTs26/dwMd/7xdnfM6jzV0vqmdPEAtdqAK+H3DPnhMXxFjWrW46r+dv6+yNfOxlTY0sWiAuSmFqfvz08cjHXrWrOts4e/bFW6SvX9MkF0oQQX+x0907yFDRP+/jWF6XZPnShed1DIdPRLdqbr5ms9w8wpRksjl+cCS6+3vLxplv4xSLJb7zTEfk4xNasaJpiVwsQQT9xU5L+4Wxf/6G6zbhOM55HcMjzzRHPnbnljVy8whT0tbRG+v4tStnvo3T2TMQ6/g3XrmWVDIhF0sQQX+xs+9I2wUxjsu2rT3vltRPmgcjH79OXJRCBOLsZb92RxP19bVVWKT3xDr+yp3r5EIJVUOC4s4T1lruf+LYBTGWjetWnNfzd/ZEF/NFaZcVyxbLDSRMyZ590b0+r9hdnUjzm191NSdedbVMviAW+kuJweFRDvRnL4ixrD7PFdda2qJbNbdfswHXdeQGEs5JqVTm3ieje8C2bVolkyaIhS5Mj7j7e7/wii388W///EU5F/uPRs8/v2LHerl5hCnp6O6PlQZ5vrM8BEEs9Bcxh453xjr+6ou0Mpq1lv+KUSbzfG8PCC8OTrRGDzjdvWKeVGoTxEIXps8jMfJjATZvuHBdgplsjsPH2jna3MXB410094zQOpgl4WhWLaxj+cI6dmxcwaa1y9mycQ0rlp/cAx8YGqV1tBj5XKul5jUAQRDQ2z9MW2cv7V0DdPUN0dw5RP9onr7xIrmyz/pF9SyZX8vSBfVsWruMdauW0LRsMWtWLiNZhcjqbDZP/9AIwyPjDA6P0zcwSlffMP0jWcZzJYazRbpHC+Q9Q0PKYUl9imUL6mha1MDyxY2sXL6IFcsWsXrlUpYtWYhSqmrz8+yh1sjH3nztiz8N0vN8unoHaGnroaN7kLbuQVq6hxkcL9A1VqAxlWDN4vB+WDS/ji3rmti4tomVK5ayZNH8C/Z75fJFDh9r5eDRdo609HKwbYC24RzzaxKsWVTP5jVL2LVlNZdsW8/6tbLYV9ZaK6/HuSWby3PZXX8Z+fgaR7P3K39AOpW8oCzroyfa+fb9T/C5Bw/E+tmbti7j7bddx/VXX8KBw8287SP/Fu3Fu305n/34+yMd+47f+nueaBuOdOzH7rqBd7zpNbG+w/cefJwPfPq+SMfuWt7Atz79oRnPue8HHDrayhPPHOHfHnw21kLoVBalXd5x406u272Vy3ZupKYmPeXPFIslmtu6aW7v4dDxLn78bGtVY0B2LW/gbTfv5oZrd8Xuovf/vvo9/uw/n5iT+/7Rz36QZUsXnfHfvv6dh/j9f/lhpM+5YeNi/vmvPzDjRd3hY238eM9+vvD9Z6dd0+L2S1fyttdfx5WXbiVdpYZH/3r3g/zRv/440rG3XrKC//PRXz7t73p6B/nuD/bwmXv2MloKIn+P3/il29iw7qVbFlos9PNA3FrPb7pm/QUl5u2dvfzjV+/n3x6fXpW7B4/08eCRb7N54QNsXbUg8s+9PGIk8vDIeGQxB9i2Mb7345mD0auBvXaGhXAy2Rw/euw5/umbj7CvNzPj6zdU9PnUfc/yqfueZWVDig+85WW8+hW7z+l2/s79j/IH//LQrN1T+3oz7Pvyj+DLP+J37riCX3rb66itTUf62Tg1DGbCmsY0SxafvQDTE89Ffx5eddX0W6V6ns/jTx7gn77+MI+0DM34e937XBf3Pnc3axrTfPzXbuf6qy6ZsbfkJzE8kC+7fOPknweGRvn6PQ/zN995anrf47f/kc/95hu46YarRNCFueFYS7xaz9dcuvGCGLfvB3zr+z/h977wg+rMw3CeY8P5qgtvnDKyED8gyvcDvvV49BfWrmnm+ZdKZf77x0/yF1/+IV2Z0qxc065Mid//lx/yMd/nHW++6azHHTzeNWf32d985yl+8mwrf/+Hv8CSRede8GWzeR4+PjAn47rl6o1ofWahKxRL3BujQtx067cfONzMJ/7fd/nRicGqf7/28SJ3/fl/8is3H+b9v3Ab9XXTy8vP5grcfzB65srWjasolsrc999P8Cdf/CFZL5jR9/jlv7uHrzXWcdXl20XQhdnnyf3xaj1v2Xj+98/HMzk+9g9f4xtPnr9iOFEbshw5ET3g8Jo1C1i4oDHWOOKW7F2/Jv7e3rHmDv7009+KVXBnJmzbdHaBsdbyg2fb5/RaP9E2zB998mt88g/fdU43cEd3/5yNadfWs1co7OjswzPRdy/jFkcqlT2+8p8PzMnWwmcf2E9bzzB/8bt3TavYTnvMBfXYeI53//5nYnnVpuKjn72Xr/3dBmqqtIXwYkGi3OeYsufx7Z9GF/SEVqxZdX47i/UPjvCrf/z58yrmWxfXRQ7eeeyZ6Nbza66J7/psboturS6vS9K0bFHk4621fPeBx7jlQ5+fMzGfyksxNDI2ax6Cc3H/wR5+8sS+Ka5Fz5yNZ8Pas8/R8dbo98T2JXWxAtFGxzL8zp9+Yc7iBADu29/NX3/uGwRBfGs5rgfyvZ/8TlXFHOBAf5annzsqFrowu3T1DMRyKXnGcsk7/qyqY/j+J97D5g3RXH7DI+P8xp9+kT3tI+d13l53zaZI+3r5fJF7n4v+QpmO63Pf4egLmzuu2xy5Tn4QBHzuy/dOa/9wJly7duE5vRS9/cPn7bp/+Z7HuOlVZ98PfW4OyyevWnH2JipPHWyN/Dm3XLcl8h71wNAov/XxL/JY69xfg688coxXXv107P3ovfuauRDYu+84L7tml1jowuzR3NpzXs+f0CpyZbhiscT//MS/nncxB9i1Ndo+dFtXvIDDDTFdn9Za7otRsvfyHesii/lnvnjPnIs5wE1TeCk6uvrP23X/SfMgufyZo/mNMdz307kRjxu3LD3rnrLvB3wnTkxFxHt5PJPjQ3/+5fMi5hP8+b88QL4QPZui7Hl8Z28rFwL7jvfwUkMs9Lm+yc5zQ5Y37F4TKTXFWsvnv3ofDxzqjX2Om7Yu4623XM3WTWtYvHAe6VQS3w8YGcvQ0dXHU/ub+efvP01/3ov8mVF7Rh9vjr5/vmFhDUuXLIr13foHRzgymIt8fNRCOF/95g/45L1PT0tobrvhUi7dsYEF8xqorU2TTLiUyh7DI+O0tHfz4CP7+PJPjp3DS3Hu7nXHz7II3bq4jjf/zCXs2LyaVSuWsnBeA+l0CsfRBIHB831y+QLDw+O0dfXxwCP7uHtv/Ps/k8lSd4aI9/7BkTnbCnj55Wcv7NTdOxAvpiJCvrTn+fzpp74We9vlsqZG3veWV7Br+3oWLZxPMpGgXC7TPzTKU88d5a+/+iN6c+XIn9c6WmTvM4e54frLIx3f2d0/46C2anGke1QEXZg9rLV8/zw3ZLlmV7SKc3ueOhhbYJbXJfnrD9zBdVdd8oJo4GRSs2zJQpYtWchVl2/nxpddyi0f+nykz61xNCsj9ox+8kD0+ITbrt1y1qjlsxGn7nxUb8ije/bxJ1/9Saxx7F4xj9999y1cvXv7Gd23NekUK5uWsLJpCa+49jLe/bZePv2V7/P1PS1nEJhzL5aeOHAyIG77kjreccuVXLt7G+vWNOHoMzv5XNfBdR1q0ikWL5zPlk1ruPlVV/OzTx/iro9/LVYA2dmOXL50ESe+8ZHT/u5vPvd1Pv1f+yN97m/dvptff/edM36mmtuiV6VbWpuI1FzoW/f9JPbi53ffdBW/+LbXvSDFNZ1OsWblMtasXMY1l2/jPX/8z7EWpf/96P7Igj5dD+T2JXXc9fqr2bVtHatWLKWurgZrLJlcnrb2Hv7pP37A9w/E+2ynioWKRNCFF1oUA8Ox0rRmgygR85lsjj/+zL2xPvf1u1byRx/82SnTjE6u5KOnGt159fpIlc08z+eeGC7YS6eRTnbwWPRo7zdftY7UFPUDhobH+J1/+HasMbzz5Zv5vV99K7U16cg/s2bVcj7+4bu44rs/Oi2ffPuSOpYuPvs1y+WLPNY6zAduvYybX3k52zavjRwTcCau3r2dD7/5mlgBXg0RI62NMXzviRiu7+3VaRv8XIyYijdcu2nK5kIt7d2RC9RM8H9//fXc8uprpzxuRdMSPvL+N/D2j/175M+++/ET/K+yF+kZfOZQvAyeN12xhrvuvIGd287QdEnDgnkNLNjVwF9vXEPf736ap7vHot/zi+tF0IXZo6W997yPYe2qqUun3vvA47EWHtevW8if/s47mNcY/QHaH2Pr4cpL1kU6rqtnIHJVKYCN06go9dDe6B6WKPX3//Gr98Xaenjva3bw2+9987RKtzqOw9vuuJG6mjQf/Mz3gakDtOpq0y+wgme8qNwQPY1v+5K6yPnQff3DsarnbapCRbG4XrfdU8RUWGv53FfvjzWGP/q5l0US8wmuuHQLO5fWR670VwgMwyNjLJ/Cs2CM4bsxYgk+8Z7XcOetr4wUIFhbm+adt13N0//0YOTP37ZuCS81JChuDjl8vOO8nv/6dQuZP6/hnMcMj4zzF//+SOTPXFqb4G/+4K5YYm6t5b/2RH8Jbl4f7cUbpyHH/JQT2Y0/wchYJlZlri1T1N8/eqKdz//gUOTPu3btQj74rjfOuA77bTdfzx++7brQSt22ds7vw7FM9MXiz+yO3l2vuT369V/TmJ5SoKIQN6Zi0xT38oHDzWfcFjkbr93RxM+/5abYC7vXxqxfPx7hmvX2D9M+Hn1BddnOjbEq0i1fsjDWmLeuf+nVdhcLfQ55+Mnzu39+41VTP8Q/eOTpWEEtH3vvLSyL+aANDI1yaCD6SzBqQ5bnDrdG/sw7I7g+n0/clrdrpvCGfOWbD8f6vI9+8C2Ry6FOxbvefivvevutVb2/isUS45kco2NZRsYyDI1kGM3kGBvPMTSWY2A4Q1v/OIdj1IC/dNu6yMceOBp9wfyG67ecdf8/DrFjKqa4l+++7/FY5//1u14b+z4GWLE03jNbKk/tRWqJsaCqcTSrmuLV7I/bdmTd6pdeIycR9LmySsazs1KuMQ5TRTOXyh6f+9ZjkT9v59J6brj+stjjaO2I/hJ8xYbFkax/Yyzfi2H1X3lJ/L7qR2J4WG7auoyG+rqz/ntP3yD/+mh09+Qv37STTesvjI57xlj6B4dpbe+lpaOXIy09PHKwk+bhQtXPFadd7n/viV5IJGo64VQcOh49puKOK9acsydD/8AwX/pJ9O/w1qvXsXPr9Noq16Tj9YbQztSWdJwF1ZuuWR/b0zSejRd/tPY8F+QSQb+IiVtf/NdvuZTfet9b5nSMh462xnop/487r5+W+/dIjF7wr7oyWkOW/oGhWGOfzv7pY89Gb77xyivP7Q15/MmDsc79pluuP6/3bxAEHDnezt5nj/Ef//1MLA/LdKlxdOTOa0MjY+ztjJ6mtGl9dTpyPbQ3+qLs2il6MjxzIF6zo9tv3D3tcft+vNSyVGLqBUCcBdVVu+IvRNpjBNK+VHvci6DPEcea45VDPB97m088fTjW8VddtnVa5/nJU9Ffgts3RavkFjfgcPWqeO64fL7IPc9GX4hs23Rua/r+R6ML+q7lDefNOs/nizz82DN84VuP8lTX2Jye+41XrSMVccHY2h7d67O0NsGK5TMPmBody8TKE58qpuLhJ+It8i7bOf0ufvliOdbxNTXnFvThkfFYC6rN01hQ7d0fPZD2YuhxL4J+AbMnZjnEDWub5nR8xlj+44f7Ix+/a3kDK5bHDyrK5vI8eCR6Nbd1ERuyxEkne9MVa2I3bWiPWYHuXLXRx8azsbpR3Xr91hm3s4x/PxgeeuRpPv7P90+77/pMiWPFxWnIc8d1m6a17/x84sZUnKu5ULns8e0YFdZu2dlEY0PdtMc+NDIe6/ipgmnjbKPB1PElZ1pYxnlv7NyyRgRdmB1KpTLfjtHYJCyksnROxzgwGC/l59VXbpyWyMTpBb+mMc2yiME7//3T6Pvn110Wvx3tsRgV6C5ramTxOZpv9PbH62Ed1UtRLcYzOf7qM3dPu999tdiyIboV9+MYXp8rL9lQlfEdiXFP3Lhl6TkFuKdviEJgon+HHTPz4B1ti17Od/PCWupqa6q2oHrtjqbYrVk7Y3bVm06HQxF0IRId3f2xKmPFcTVWi86eeD2lt2+angs4Tiem11+7CR0hEnlkdDxWt6bNG+KPfW+MlrdTpQT1DcSrjT9vBpZYbMtteIzf/rMvzWmnt5lacdlcPpbHoxr55wCPPRN9wXPDFee+JwaH45Up3bh2+gFfpbLHg/ujR6TfEsF9/cjT0RdUr9i9KfaYj8dISV1el2R5zCh+EXQhMnFKQwJctWv9nI+xbyDeCyVuTugETx1ojXxs1EpucV2fUZvTTOB5Pt/aE33LZOeWc497ZCwb6/zVSlWbimKxxB998t+mLeZXrJzHVdtWsW7VEpYvmc+8xnrmNdRRV1dDbU2aw8da+bmPRqtQNlWWwGnXP0bAaX3CYdXKmXu/CoUi33kmelT3ts2rphD0eC7wmSzyWtu7Y3kDpnoOc/ki98VYIGybhjHw1MHoC+o4HQ5F0IXYPBOjtSJML2BkpvQPxhP06YhMXGHcuDaa2yyOu2/d/DQL5jfE817EbDixYYpxF2MGJFVjvzcKX7/n4dj1su+4fDU/e+u1bNmw+pzbDACHYmQ3vOLK6EFNcQJO33ztRpKJmXu/4sZUTNVcKJuLl/JXU5Oa9tgffmxfrON3bl137rnorF4swZmI282uWimJIujCCwiM4d4Y9aUhrLs914yMx0tDqk3Hf6F09cbrBX+u/tOnEied7NotTbH3/k/E8LCsbEixfNm5O7h5MVOGCoXZ7yjW2z/En/xb9AqBy+uSfOrDb+WKS6NnOjzwWPSqeHG2dH76XPRF4nTSpc64iIixdbRzaT2LF557sVMsebHOP1WPgLNb0wU+973oLXpfv2sly5Yuqtpc7F4xb8q5eD7dvYOxutnFqV1wsSGlX2eZvr6hWC0eb9i4eEbRq9MlF9NqjFu1CeJV1XrTFdHavOYL8dLJli1ujD3uZ2M0nLj92k1TViBLp+JZiP2Ds9+P/sePx7PavvjRX4wl5oPDo7HK5q5dHS3LoxQzOrxa3q+nYnT1e90U9fKng+f50/q57z34RKx+B2+79Zopj3kyRnzJdNLJmtuiLxgSWkWuXSCCLsQXsZjpHK+68vzkTwa+iXV8XBchxGvIcnVES6qnL17EeNwXa9wOXpfvmDr+YX5jvC5QTx9oqco1/unTh7js5z7KP375hZ30vnZ/dKvtl27YGjsv/kQMK27X8gaWLIpmxXV298faD57KexJVTL/9RHSv0K6tU8eC1NbEs7hHY8ZhAPT1D/GRL0cvN7xhYQ1X794x5VzEiy9ZM433RvSU1DuvWnfOanwi6MKMiFMOEWDbHKconRSZmngv6JiBfnEbsmyNmLIUN50lTroOQHNrd6x0vijuvmVLFsQaw+fu3xc7Cvr0RYnl3vsf5e0f+3eyXsDOrWueJw6ZWG0pL90W/6X8zMHoL/3XXhN9URs34LS+rmbGz0pXb7yufhvWTO1tWLQgnufo4NH2WMcXiyX+4rPfjLX4+fA7Xz2lOHb2xIsviZtOFnazi16B7upL5j6gWAT9JcQP98ZryHK+GgrMq4+XF/pv39sTq3xkc1t3rHKhUeMI+gfjVS+7b393JBdeZ1cfn/3Sd3jdh/4p8mdHLVUat6iGZyyf/cp9BEEQ+7r2D47wkU/+K7/x2f86RWBOf6nGLTJiTLztlrHxLPf8JPr++SVbo+dYH22JJ+jlabqqn7/Ii8rS2gRNEQowrYjZ+e2z9/yUTDba81Qqe3zy89+MFZX/8vWLuPHlV0SYi+geyCjxJc9nYHAk1ntjy4YLo9/B+UKC4maR4ZFx9rTH2/98+fs/VfVx1Diap776P88Z3btsSbxAlUdahvjK3Q9y11tvOmeKSP/AMN/8/iP81Tf3Rv7sK1bOY2FEiyWXj1/F7IN/9q/83rtey7bN65jfWI/rOhSKJQaHRjna3Ml3H3om1stvgjuvXh+pfsC8xnrectVa7t4bfQvinx86TDr5DX7lrtsiFeUoFEs89MjT/OHn7z/Nmlw3/4XFegqFeHP43R89x+tfc+2UgVlj41keevQZ/uIrD8Xq+R7Fop3g6cOdscZ+8EhLrL3/M7EvxtbRG6+PlkK1auVS5qecyJZ/f97jE5/7Jr/3/reeM+Oks7ufP/2/d/PAoXiR6H/4q3eSSEwtD3E6HEaJL3k+cbcs40bQi6ALkYmbzjFbvPGqdVOm6kRNETuVj33tUQ4c7+LnbrueDWtX0lBfi9aKTDZPa0cvj+w9yN9+56nYn3tTDJdrYEzszz80kOOX/uqbVZ/nOPUD3vTaa2IJOsBn7t/PNx85yq+9+Tou37GBpuWLqa1Jk0y4eL5PJpunp3eQp/ad4Ivff/KMWwW3X7clUrGec3qdjvbzoT/7F975xpezYe0K5jXUk0i4lMoemWyOlrYe9jxzlM/e92wsF28ci3ZS0NvixVD85t/czUffdwuXbNvA/HkNaK3JFwr0DYxworWbHzx+AA382e//0hl/3lrLfY9H97pdvn1dpOPSqSTvft1lsZ6XrzxyjMNtn+GXf/YGdm5dx4IFjbiOS75QoLN7gB89vo+//fbeWEWtAD7xnpvYsnHqbZW4HQ6nk0526FiMRk6blpyXgGIR9JcIcfKjZ5MorUJXr1xKjaNjv4C/8WQb33iyrarj3bE5ehzBvMYL5wHeHKNU6TW7t/OGy1bFitAH6M2V+d9f/hHwo2mN8bIzCEzcMpwA39vXxff2/UfV5/CO6zZFLgri+0GsvWyArkyJ//E33z7nMX/57lef9d/6BoY5Nhy9jWecqnS3/sxVsRfAeztH2fvJ71Rt/n/r9t288ZZXRDq2L2aHw43TqND3oyejLxjOV0DxhYTsoc8ijz/XfEGMY9P6qa3vmpo0v/mmqy+I8a5fHd3lujzmVsFsEqf/suM4/Oa7bp/zMZ6p6M2ypQupT1wYlbV274ju5XBdh+V11Y9o3nyOwMaWGF3dElrFqkq3Yd1KPnDrZedt7n/l5kv45btuR+tomSBx5qLG0axqitfhbmw8y8PHo5ek3r55NS91RNBnibilIWeTNSujBWHdeuNV532si9Iuy2MECEVxDc4F02k4sW5NE//w/lvmbIzzUw4rz/BSrUmn+MVX77wg5jFuUZAbd1X/JX6uoMU40eXTSaF699tfx+4Vc9/H+/ffcg2//b43R9o3n5yLY9Hfb3dcuTZ2MZy4JZ3XvcT3z0XQZ5GOrv4LYhzXrl04ZevDCVY2LeUv33VjVc///123kTddEV1047a2XLp4Ae99zY6qLyo+/YHbuHFLdOtqOg0nAG67+Xr+9n03z8m98MZrN571hf22N7yy6ue7rKmR//nWa2NZtKtXxssAePX11V2IXLFyHgvmnz0gM07WyjXTqErX2FDHJ//g59mwsGZO7on5KYcvfPhO3vvzt8Wuf/6DGB0Or740/lwcjdHNbuviOpYsXsBLHRH0WeJ4a9cFMY6fuTKe0Nx56yt558tnvhe1tDbBFz58Jx/90Dvp6I+eFnX59vhtId/1szexsiFVlfn65Zt2ct//+SCvvO5Sfng0+qJs26bpp8u88ZZX8IUP3zkr7uNTuXLn2V+qq1Ys5e/f/7qqnet/v+16vvLXv8byGDn3d1yxJrZF+/JrdnH9uup11nrN1Wd/XkbGMjzWGr2r35aN07snVq9cxpc+/h5ev2t2ezrc9YrN3Pt3v8qrrt8d+2fnosPhEzG2LG+9dnPVq/GJoAuTxG3IMlvs2BzvQXJdh//1gZ/jN2+7fNrn/JWbL+HeT32AV12/m9GxLHs7oxdFmU5ry2VLF/GFP/kF1jROvyvZzduX8+2P/wK/+6tvPJqLdAAAIABJREFUY9HCebH6tgOsi7HvfyZedf1u7vmHD/D+115S9Xvgho2L+cffvIMbX3HuF/ftN7+MT7znppl5AXav5oG/fR+/9PZbqK1N8+zh6AGT11wav099KpXkrz78DnYura/KXJ1rH7atPWYK1arp15RoWraYv/3Dd/NX7341CV1dobrj8tXc/dF38se/9fM0xcx/n5yLmO7wuHNRLJa45+no2xu7tq1FkCj3WSEIAu7Zc+KCGMt0hCaZTPBr77qTa3Zv4e+//GDklfi7fmYbP3f7K9i84eRLMW7q3upptrbctH4V3/j7X+dLX3+Af/jes7GslDtfey27dmw8LUc2joflipXzWLRw5vueCxc08qFf+Vne8caf4ZGfHuCL390Tq6jGqWxYWMPbX30pL7t6J1s3rokc6PSm17+S7ZvX8Kkv3Rer89p7X7OD2199FTu3bZi0lAJj+G6M52DLhulZpCualvClv/wVvn7vj/iLu/fM6BpsOEclszhZK6+O0f71bCQSLm+5/VW85pVX8OhPD/DP336Up7rGpvcemJ/mrtddwcuv3sGm9atmbM3O9lx0dPfHSrfbsPal25DlVJSdTpcN4SWD5/kcbW7n2YMtPHekg7beUY72jTO/JsHaxQ1csrGJy7av49KdG1iy6MLYwxoaGePZ/cc5eKyDfce66RjK0j5SoGleim0rF7J9/TIu2bqWnVvXV0WIZwvfD+juG6Szq5/jrT00d/YzOJqjeyjLicFQ6BfWJFi9qI5VSxpZu3IR61YtY+PaFaxf2zSjntDWWo6d6OC5wy08tb+FE90jHB/I4BtYPT/Nxqb5bFu/nMu2r2fH1nWR4zRmm2w2z6FjbRxv7aalo5/jnUMMjhfoGitQ8i1L6pIsqEuycnEDK5Y0sqZpMevXLGNV0xKWLVk47S5mc2IoGENf3xBtXX0cb+mmuWOAwbEcvcNZmgezOEqxvDHNsgV1bFi5kNXLF7F21RLWrW6iadniOWvDK4igC4IgCIIwA2QPXRAEQRBE0AVBEARBEEEXBEEQBEEEXRAEQRAEEXRBEARBEEEXBEEQBEEEXRAEQRAEEXRBEARBEETQBUEQBEEEXRAEQRAEEXRBEARBEETQBUEQBEEQQReEi5rDzYfJ5rMyEYLwEkT6oQvCRcLweJb+oRyJ5Bj1tfUz+qyhsV6ypTZqa+axpGGbTK4giIUuCMJc0dE3Rs9Ajrr6xhl/VtkfIF8+gm96ZWIFQQRdEIS5pK9/iLJnKPnBjD/L2BJlb4yyJ+57QRBBFwRhzujt7aerqxuAlDvznTRrLeWSRy6Xk8kVBBF0QRDmiuGxcXr7+0gmk9SnUzP+PKXAWMhkM4CVCRYEEXRBEOaCfKHE0PAw6XSSmuTMLXTtKFw3ST6XZSjTLBMsCCLogiDMBb0DQ2QyGdLpNI5WM/48x9UkEikKxTyF4phMsCCIoAuCMNscbu2mpaMLPzDU19dV5TMdx0HrBKVyidGxPjJ5iXYXBBF0QRBmlZFckfbuPhzXpa6upiqfqdCgXILAY3S8l5I3KBMtCCLogiDMJsNjObp6+6mprSGVqk6tKIXG0UmssoxmevHNOGVfUtgEQQRdEIRZ4fhQlq7+EQaGx6itq8dxqvNIaxwSOoVSkC8OUfRHyJW7ZcIFQQRdEITZYHC0QGtXL0XPkE7XVE3QwUXrFFo7lP1xxnM9BEZy0gVBBF0QhNkR9JEMrZ29WOVQU1uDWyVBd3Q9WqdwXQcvGGd4rBPPF7e7IIigC4JQdUpBwODIGN39Q+hEknRNTVgRpgqkEwtwnDRuMklg84xleyn6GQpliXYXBBF0QRCqyrH+PN29AwyNZXETKZKpNIGtTlU3rV2UTpJKprDKI18colAaxtgCnljpgiCCLghC9RgYHKWzu4dCycdNpqmprcFRVQqKUw5aJUgkk2jHx/MzjGeG8IIChXK/TL4giKALglAt+vr76O7pI0CRSCaora1lUV2qap+vlUvCdVHaEFBkdHyQUjmPxZfJFwQRdEEQqkHJDxgYHGFgaBSLJuG61KbT1CcTVTyLi9YJUGAokcn1U/RHMHhyAQRBBF0QhGrwXOswbV0DjOV93GQtSTdBfcqp6jmscUkk67G6Fp+AjNfGaPkYns3LBRAEEXRBEKpBZ98w7d1DFMsWSJB0XGrd6j7OSxvX4ibqULoWo6FAD8OFIxQlKE4QRNAFQZg52bJPb28fg8MjGGMIgoBUKkUykazqeRzt4DqpSsS7xhIwNj5EoTQuF0EQRNAFQZgprf05urp7GBkfRzsOrutQU1NDOp2q+rlcN43SDigAxVhmlEx+mKInVrogiKALgjAjunsH6OzqplAooh1NKpkglUqSrklX/VyOTqLQGGNBaYrlPOO5fgayR+VCCIIIuiAI06XkB7S2d9LdN4AfGBTgOBrX0axa3DgLL4gkSjkExlTc7obxXB+5Yg8j+Ta5IIIggi4IwnRoHsjS0dXDWLaAdhNYLI6CZDKBo1X1XxDKxXWTWAtKOWgN47lexvPdlIMLbS/dyg0ivKRxZQqEi5HAWAqeT6LSrMTVGq0V6kX+vbr6Runo7qcYGBKpFGXfojXU1tZWWRhVRdAdksk0qDAoDm3JFgfJFHvwLhhBt1hrUNOokucHJcayXaDCIMCk20AyUYfrpOQhEkTQBeF82GUtg+Nkcx6ZXIGR0XHyhSKFYokgMDiOSyqVoq6unoaGOuY11tDYkGBBOsHCmuSL5nu2jebp6O6nd3CYsm9xUg7GeGhrqKliQFwojmFOu9IOyWQKrVwsPhZD0RslXx6gbDIXyMyoyfFORa48TLY0QNnLUyrnKJfzlP0CQRAAFsdxSbgpEok0yUQ6/N1N4SoXB4uDoq52szx0ggi6IFTNAreWY4M5egdG6OjsprOrh/6BIcbGsoxn85TKHmXPJzAmtDITYdBYbU0NDfW1LF22mJVNy1i3ZiUrlzWyfUn9Bf+dC57HidZ2RjIFDBobBFhrSbga161eUZlTxVEBrpsApcP/U5ZECoZHOxme182qhizJxIU8d5aR/H7yto+x4iAjo0OMZ0YoljKUvTy+XyIwZYLAqwh6Aq0TONolkaihNl1PQ0Mj9bXzWFy/nHp3ISZfJOmuJJVcKA+iIIIuCNMl6/ns683S2tpJc0sb7R1ddPX0MzQyTsELCKymVA4wFoy14d4vCq01Wjs4jsbRkE6eYFFjLSuWLmL96ia2blrH1g2ruXzN/Aj+gLl33AfW0jtYpLO7n7wXgONgUFgMCUeRrGrJ19PUHaVdwAGlsNbgOAFFb4TxXB8jxWaWJS694EQ8kz9BIRhjPN/HQO4Yg/njZAqD5HJjlMpZLCWUCkAFYW16ZVC6YukbjfHAFjQ6myKdraU2MY/GxCoW1a1m8fx1LGgo4AXLqK9ZKw+lIIIuCHHZ1zPKgRPdHDjeyeHDR2jr6GIsW6DsGywaJ5nCTaSxydC21BZsRXwtCqMsBvCMpZD3Gc2O0NYzzMFjbTx34CjbN63j6PaN7Ny6lp0rF5xN4bAmCHOz55C2kRzHmrvoGRih5INyEyilsdbiurqqLvfTv63BdVyUChcQKIu1AYYy2cIA47lu5qVWkb6ArNWh/AEypQ76R04wMNLCULaLjDeAb8tYfJQO0NqCNuF3sQEWg1KgtUXhgFbYwOKZAn6pTKGYZ8wbZyTRz9BYP4vm97GwcR2N/hhLarfKnrsggi4IkcRsLE9X3zB7nj7Io08fpaV7mOHRMQILbqoeJ+ngBZYyCs84oDQKDVoxEQZnbRg4Za3F0Zpkoha/XMQnYKxkGT3RzfG2bo63ttPdewn9OzezZvkiNi5ruCDmoFD2Od7cwdBYDoOLo1xUJao9mXCpqamZlfNqbUi4CRRuOIfKYjFYfDL5AUazHSxuuHAEvXP8EKP54/QMPEP/yCFypS48fAJHg7JoZcJFCQZDgCGofJ9w6WdsgFI2tNRdjbIKrMEYD19nyfsBpZEcg2M9zKvvZnXTDvyFBeqTy1kwhbVubRB5r18QRNCFi4ps2ad1uEBLex97fvokjz25j87hAqXAAZ0kmUqi3SQmLH2CNRZrFbbiFVcW1GQqk62IusUai48hMAocF1wHpTS5Uo59xzro6R+itaOLV11/NVatZdPS0/eI59o6BxgcKYe9zz0DjoupLFWUUqQSiVmpEhd+2YBEIsxFn/R2qPBXoTTCaLaDkt12QdwvrSPP0TN0iK6BpxjKHKJsesDJYLWDIYFFoSYXdqYi3KAdB6VU5d4wGGMqPh19SuxAAC4EpohvfApeluJolnIwTtEboWnxVozNsah2x9mnUsRcEEEXXqpi3jyY50hzFw/+8BGe2PssZRIYnSaRToHSBIGhVPDCF3XFLTwh3sApzvbw/3WogFhj8MoG1wmPL5UDtNI4qXo849E1lGN8z3Pk8iVKvsHfsZZtyxvP21z0judpaeulZ2AYH43VLoEJcCCsFJdOkk7NTrS+Uj6JRAKtXTAKqwg9INrB87Nk8l1k8n0srimdN7dzYANahp+kZ+gQbd3PMJQ9TOD0k0gXcBJlAqOxfgDok4s6G94QSmk0GmsIxbwi+OGXt2hs5T+NUYoAD5QikU6glM9wYZxCxwD50jDrmi7H2oDFdbvkARZE0AUBYDhbpCdT4tiJDu697yGeeOoAbk0DxjoYo1ABKGWxgUVZcFwHrTWBtQQmFOdQxC3YUNAnrDGlQLsuOpnEBBY/CLBWEQDWahylUElNtpznsacPksvn8bwbgM3nTdQHRwscPnKU4dFxAutglCawAdpaHEeTSiVJzFZQHAbXdSsWup2s6Y7SWOWTKw4wMt7Hgto2FtdvmdN5MTZgsHCMbLmX1t7n6OjdR87rRqczoLxQfFFoxyGpHUBXbgmLMYQiHlgCYzEmFHqlNI6q1CyobNlYTLgAmPBOmDKBLoEqYrQi5xfpHvQpFQtsWavAuiyu3y4PsiCCLgijxRKHDp/g3v96iKf2t6BT9aGbHQc3kQAUxoYV0hylwFqs8VHGok2A0joUcAAbxoJjLUqFpVKN8fD8Ekq7uMkkTrIG3wQUikVs4JNKOrjJOkrlPPuOtYF5CEdpXL2JTUvnfk99cDBDS0srhVKZwKkBV6NtpdALkHCcSW9DNbE2QBHg6ARUBF0RbmuAAh1Q9EcYHeunuCAPc5i9li32UjB95P1uuob20z38LKOlVpxUiUTaUPY9PN9ifAdXKwj8yk9qlNUopScL0VirwoWco1Dq5ELGmgBTcc9bwOCj3QSJlMbYAmUvg1UGRxfJeQHecEDSacQuS5HUC2isXS4PsyCCLrx0yZY99h1p44EfPsKzh5rxSOAk0rgk8PyAILBggzCdyglfysZYbBBGKbuuxhpTeXVTCYyzE8Y6FoNWLk7SxViF55Up+x5oHVq51sWYgMAYEqkaAr/AwRNtpH74MA31tWhnJWsX1M1KmdUzcbx9mJ6+IQaGxglwMQq0sjiugiAAa3C0xpkFQVfKQeHikETbBMo6hEVcDBYPdIAXlBgv9pP3Bih5WVJzlJNeNMN4doiBsWMcbX8czw7ipvP4tkBQMmjXIZlIYQxgLI4TWuTG2DDx0CrUSfUOvQ8mtMAhDJ6c2LrResID5OAHlqJfRDsl3IRGKxd8MF6RkjdM1+B+XDdFTU2dCLoggi68dAms5Zm2MR5+Yh8/PdhCUaexOkGx7JNIh3XLrSJM11KgbGg3WexkV4Lwz2rCxpq0ysBWot8r8czKYFVokYUxdIYJv6rSlcA5zyflOCidZP+RZuprH2bBwjtY2pimXs/No5Mr+Dy37wSjWYNya1E6TBkDD6U8tCYsmpOcnbYMDrUQJEnregomiTEa7RiMzWNMgEKTKfXRN3aIBQ1LWZK4bA5mxRKQpzfTzLHOpyn4fVingFV+GEdhExCEAZFORaXNZJn30LtgOXWvfOJTT37+5NYC4W0RxskpHFsRcRLYwMHYBNgEViXQrk+QGKB14BESaUsiaViS3k3CrZeHWxBBF15aHB7M8diTB3jmUAu5wMXqRBiJ7moCYzDKopXCnPYCtueo86JONTdP+5nwlR5aZKfaaRO/OxXr3ws8NKHHdv+RE6z96X7q6q9iR1MDKWf2o5Z7+sY43tJN0XcgkcCoMGUMPFw8tHJJugkS7ux4DBQpHJvEIYUyCbC6Yp37KDfc+igGI4wXOsgHg3Nyn4wV+xjO99DRe4SRbCdG57GqVIli14CDMgqUj6pc1cltguctDKLMwISoK1PZU1fh9o81LsamwLqAxjgenhrGmBF6hutZOG8RSd3AYvdyebiFOUG6rQkXBFnP43hzH3v27KW7bwDlhGlGhtDlaaytvEyrIVKn2mpnfr0rx0E5oVveoFBOgsHhcR7fs5fjLf20j5VmfU5OtA/S3NZBT/8gAQqrnUoaVbgPjFUktEPKdXFn6UlWykVrF0c7YRoXCmvCa+E4Dloryl6JTG6EkUw/o4XeWZ+XTLmHnv5Wevvb8IICVGIJwqupOXmThB6c6nVhs2f+O1U5hzVhCVllGR7tp2egg2xpRB5uQQRdeGlxvCfD3ieforWji6DiIjWVlp2BMRhjK/nfVbJE7enGva3oga3IvKmkMDmJBMpJ4BtLoDRtXT08+fQ+hkbysz4nI+NZjjW3MV4oY5WDVZowkUqjUCgDCa1JJRMkZslZ4KoUWof1zSfE0lo1mRiolMLgky2MMjTSQ94fmNU5Gc4fZyzbw+BwB4XSMFoHYcEBKu6Wcy7TqrEStKd5cibFvPK7JQy+LHt5+vo6GBrpYyBzTB5wQQRdeGlQ8gOaWzrZt+8AnlEk07UEBozVoByCMKYNrfXsVVE/dc8UhecFeH6AchIYqyl5BjdZQylQPLXvIC0d/ZT8YNbmJDCGjr5BTrR34SsH47hhQxZCS1mhUdaSdDQ1KZeVjbNTKS6dWFAR9SQnI8SdMMAsCOMXHMdS9jMMj3WRK/eRKw/Pylj8oEQpGGZwpIVsvgc3WcZxA6wKTr7OrOa0ZZqyJwW/GqtAZU938Ux6AUxYD76SIukmLGO5fgaGOiiUh/H8rDzoggi6cPHTMjDOoSPH6BkYwlSsUIMOLVKlcJzEyQpws90YpSLstuK+NVZR8gOMcjDaJVAu3QMjHDrawqHO4VkbxsG2Lo6caKVraBTfcTHKCd3uhHvEGo0yloRWpBMuKXd2THTXSeGoJI5KToqlQmOMwvd9sBbHBUOR8Vwfw5l2sl7HrIylUOpgPN/DwPAJSsEgbrKMoVBpsDLRNEefYqXb51nU1XDrmNMt9IqQT/zZ2ACUwU1YjM0xNNrFaKaXXKkLawN52AURdOHiJTCWvsFxTrS04VmHYtmnUPJAu6BdDKB0+JI21lZe3LOu6GjHxUmkMFbhG9DJNB4azyoC5XLoeCu9fUOzNoru/hEOHm8l79vKQmKi+E0Y+KXQYMBVmqQ7u4scrZKhy72yb3+qXKJAOxa0RykYYXC0lYI/QLnqFqklsDlGM12M57sI7BhG5QlskbDlzqlizvNEt1pifqZfJ63z8O6s1IhXZZykR77Uz/BYB6VgjHxpQB54QQRduHhpG85woqWdrt4BfKuwKrRGDWF5UaUc/CDsbmbs7LQuVWd47yutsUCAQrkJrOOEUffKJcClq3eQvoFhSp5f9fEc6x2lub2X5s5+bCKFrx18pcKtBxtayNqGgu6ESQCzvMQJA+MmK62Ziv+iMkfG+qDLGJVlZLyNTLGX8VJXVceQK/ZRMCOMZrrw7BDWyWFsHuWYUzRXPU/Qqy/q6pRSwpN758qEiwplQIfzEdgiyikRqAyjmS5Gc30ERtzuggi6cBFTKpfp6OxhNJOj5BmcZBo3ma70+g5LjHqeH5birOrL+Ux2+cmPN8aGhWyMRTsJwlLgodegHFhGswX6B4Y41t5T9bH0D49xrKWToUwB6ybCUq/YyoKGSgewMDAuLCoz24qu0SpxWuc6pUCrUNoC44epdLpMvjzIaLYbr8ri5ZsM2fwQ47kBrMqhHQ+rPE5mDr4wEO7kVreq0j0yUU6YMy4cLAqtdVhdDg+ri6AL5IoDjGUGCKw3a/evIIigC+edQslnYGiYohdglYtvFMYoUA6mUmM74SZCEZntwZzyrlUqfDmHrn7Q2sXzA9AuTjJF2Vha2jsYHR2v+hDaO/s5cqKLQCfxURitMIRtP8NCZhZlLdoqkokEiaQ766+JdDJdKZcKWofSZozFGio1AgKU62PdPJ19x8iVhhkYb6vaCIwtky+PUSiNEtg82g1AGzy/fPLCqVP2uJU5Kea2uldIocJF1Wl1DioLD9+gHY12DYYiAXk8k6FYzlQEXclDL4igCxcnubzHeDZHYBVWh8FwZrKaV/gyVipse1ndV6F6wbtVndFNOyEWlXStiaA9C6PjWQrFYlVH9XTzAEdOdNAzlAGdpOwbbCVSW01EUVs7GbittUbNtoWORmtd2aE26LDVPEprtHYq2xMW35YpB1kyhQGGs10EKosfVCdf31Cm5OUIbAmrfKyq1AFUp+6bm7DNqQoqwk4lkK8a8/P84Lrn2f2TVnslVx8DuozSJQw5yn4eX4LiBBF04WIlMJZMJk8mkwXlTPbcDkXzZKzyhJiHYlYdG+tkuc/Tg6gmRF29QNRPfaGHi42xTI5coXqCboHWjgEOHW0lVwxQbgqrw7K1E0sdfZqgK7SrcWZ5E12hww52GqwKsNbHYsKFlq7sr2uFIcAzRYr+KP1DbRS8IUZKJ+jPHZ/5vUKZYimLsR7KCRdXWAetKvnxylaE3EcRoCY6xp+WxlZFN85EU/jnzZRSYUdAawOUDkCX8U2eUjlP2ffloRdE0IWLE98Ycrkc2Ww+rMGtnlc4xj5f1KvnO7WTqWmT9voZRP0MaU+TfTQhl89TKJarNqaD3eOcaOmkrXsIo1IYHBzHmex6pghC/4WdLOuC44aNZmZV0FXYSlRriyLA2iDsQGbDlrMWHVrKGtABRhUZGu9gPN9NQAatyszU7+0bj0Ixj7EmXPhZDdZFKbdSbCeU/dBC90ML3QI41RN1ZU+5W55fwGbCOnexVmFsxVugPTyTp+gV8ETQBRF04WLF8w2lcpliqVRpeaonK7W9UHonmqfMXlDRKY7+yWhmXfEKnGq5T/y5VPbwPK9q52/rHOTQ0VYy+QDlpCn7odvYGh9NgEOAg0HZsLMcSuEkEjiJxKxepzD4rtJaVIVpWmFzk3APfTLyXofeAu0a8qVB+oabKXhDaDyyxb4ZLb+M9Sl5XlhTnUpDFJtEkYRKF7gw4rwi5hM+HutU/zVnn58iV7ln7YSgO+Gtqi1og8HDD3wC8bgLIujCxUrZ98MSq8aeUq5DPc8oOpkqdLpNPVML/VxlR+zJ81p7ipvbnrbP7gcBfhBGws+U4yMZjhxvpbmtj8AmMLgEQZjZrLVFqwAnDJHj1H19J5FAJ5OzGjsdWuigtQV8lAZHU+knrisWaWW5o0E5Bt9m6B9uYTzXh6WIbzIzuE9yKGWxxkxa5tYkwaawxg2tcODUnPBw4fF84a3u0u90K31ir97B4lS2dcKqcROFb6y8bgURdOHiReE6Dq7rYo09g7JOuLft8wLWZnNEJ891ssrnqYuJk787WoOuziPU1TPMsROtjGQKoMNys9px0UrhaCqhggZtLcqYyhgUbmKit/tsei5UmDaomCxtqtREP/FKfXmrK9X8JgLCPLL5AYbGesgHI1imvzVR8IbC4D8diqYxDpAAmwz/bCvXQJlTAuIm7h2HF7rHp78KnJj3k2780306ilOD8Cr3kQJHhyVzBUEEXbgoSboOiWSSVCrJmaKIOUVMXxioVi0r63QxD8t129OF/QyR7wpIJZOkkikcPTOx6M3m2H/wKK3t3XiGsD2n0jiOg+NorDll/3wi53mivr0T7rPP9jJHoSdd7tYGGBt6Vuwp0d2TM2YNSvsYlWdopJORbH+lh/v0rp2xYQvbCVGcsNLBDVMcJ19jp0a5nxJWaXVV7pYXLAomguLsyVLBlaS28G6qbBFprXEcF61F0AURdOEipT6doK4mSTrp4Ey2oLSV3tW6IlxhFS6FwVq/SoJ+upirU1zqE5awsgEQhAa4UpVcawXaIVAaoxzS6VpqkjNvitLcl+XZI+30jmYxCgJ80AalFTYw4BscE+adG6XCynHawVcuSaWpAxw1e/nNi+rW4ei6yt41WKOwgarENAQofJTyUDaopH9b0GVwC4zluxnOdlIiN20r2VX1aFwcnQhj3SaCBFWAUn5l3zxs0jK5eaMmygRXpzmLnWzN6lQ+08cq/xSvQADKA1VGO0HowTAJMCm0rSHhJkgmjDz0ggi6cPEyrz5NTcpB2zDVaMLqUzrchwxMRdBVgDXVEfSTvoCKLWUnHMcTYm7Ahr/rims5sBarHYyTwMPBtw4NtY3UzVDQe0fHeHLfcQ61DZH1DCTAKA+Uj1aWcrFMQrloA1ppfDSem8BzkgTapcZ1mT/LtUq0ckg5C1E2GRrBOGgVbgdo7aNVGU0ZjR8ujIzF6jLGyZEP+hkcb2E0Pzjt8zfULEeRJOmkwxryxq+48EtoHYooyp+0zu0ppVhtpcb6zO+b0NIPI/rNpHjbSWGvjEMX0E4ZrTSYNAS1aNtAOpkm7RpGC23y0Asi6MLFSU06weJFC9AEWBNaVxOBclo7OG4iFHZrqna3nnVHdSK3WIWubKU1nu9hjMF1XVzHxfe9Sc/BgnmN1NfVzmgsPQPDHDx8gp7BMQwa7YYWoBd4+L4XOruVRtuwyI5VCqMqznelcbUiNSexBQkU4X60spW5qmQfhAVvKrnfNlwyaccSUARVZjTTQ+9gG52ZwzM6f0PDfFLJGhyl0SoM0LOc4l634b76hDv+9I5rVVgGqud/loOybmVeAAxKeQRBERP44d+bJK6qJ+nUA5qk0yAPvSCCLlyc1NYuHYzoAAAgAElEQVSmWbVqJQlHo7EkXI1WCmNMuB/puFilCaxGOQlQ1arLzSl74+pkQRulK1HKzkQZl9OO11hcDAkHmpoW0zi/fvrW+dAIB4+0cOxYM/lCKQwyC/OysNZWFjV60qtApTnNyU5nCsdx0M7sP8ZKaZRWkb3mthIMpjTk8uMMDLUwXjjBYH56RWYMmnmNC6mtaQy9N5aKe73yGrMuyqTA1ISWsQnT2aoUDseEmz107yuwyVPOl6zEGITV/IwtVcRdY41D0m2krmYRWtVRm1woD70ggi5cnKxaNJ81q1fRUFeDwpBwNAlHYa0hCIKwZrjSGO2Ak8BWQdAnU9BOKaFasTUxaALl4BlLYBVuIol2HEzgYwOPlKNQpsyCuhQrVy5jZdP8aY+jvW+UPU/uZ3A0RzqVBhSe76GUxnXdMLJch4sbOGVPGBsGnilwXXcOguLCRixaadRpEnl2uTSBHwYLKoslIFPoYWD0MCXbS7Y8jT7y1qW+ZiH1tQtRNkUQnKzTrqxCWRdMCmXSYNOhpY6uroVOpWiNVRVPQBpMTbgVYVWlLG4lgFErlHXAJKhNLaKxfhmL67bKAy+IoAsXL/XpJCuWL2Pp0iVQEU1Hg6NsGEkN4d61cglOsZhnZp1bNMFprTAnXNmBcghw8a0mQKN0pQqbNRB4uASYYo41TQtZuXIRC+vT05KGo33j7DvSzoFjHZRxSKZSoVUeBGhH4zruC8VyIm1Knex45roudXU1s/+iqNRtP6OA29Nzsu1EZ7jKXzmuwguG6B/dz2j+BEW/O/b5E04dSebRWL+MhJ6HDVy01YRLDFsR9URoLZskyiZQtpqCzun57TYMeAs9AROd6AKs8dCOxdVuZYx11Ncupb5mKdKYRRBBFy56Fi+ax6YN66lLuQSlIhgfR3EyHawSVe4FExHwMxHzk/a4rrhsJ2vRKT35S7lJlJPAC0JPgaMVrjIEpRwp5bNt42qWLZmedZ7zfNr7x3h0736GcpbA6jD4z4ZxA7pSv92YAGzF7a5UaKFPZErZMBfcdV0WLKif9WsUVvI7UyPSF5ZBnfg/Yyfy5Q0+GcZyJ+gbPopnRij58dqrzq9Zi6PqmVfXRGNtEwnVgCYU7Yl6AeGf3dBaP7V6XDUEfTJqviLoJhG6+W2ikhZngABjwhQ7ZVysn6QmuYh59U3UuIvkQRdE0IWLnyXza9ixbTOrli8ioQPwizjWJ+w5YjGW0B2uFNVJQLKnl5FVnFKLLtxHp/IrCAKsCXA1uAQor8D6FYvZsXkdC+bVxT57YC3HB3M8d7CZA8c6CXQNxjr4no9SGu04WGMJzMkUp7AiGyfryKuJPWqF6zqkkonZf1EohQ4ry5xSnledVdwn89FVuNdt8Sj7GQZGWhnKNzNebo49hobURhrrVrN4/iZqk8sq7m4HpQzggyqjJiLeqaSSVdrOVstKP71eYbivrpSPxjsZ5W+TWD+NY+excN4aFjauZEHtWnnQBRF04eJneX0tmzasZsPa/5+99/yO48i2fH8nIjPLo+AKngAJGlGiXEt9X3ff29fOvDff3n/6vsx6a+7Mnba3W62WKC/KW0r0Hr4qMyPOfIgsAxBUixQJEVRuLiwAJFiVVcjMHefEPnsvMd6oYHyG0QyLR53DuRwVwdjooYni9hq/qgQy91LspWvI+zYiWBHE51jNqVrPs6dWWT0yw4kHqIy/2tjm/KUbnH3nI9Z6QupjMDEgQVlPWER47wctbtUQNNKXxMkIuRtzMG3coTOcjESF7t8DGSVzCmGcsYBxrG9e5psr5+i56/d9DJGtULdzTI4dp1mdR1wtKNpVEckLMk+BbE+M6sMj810LGdEwg08anh+PIcJoBVyd2Ewz2V6m3ZwrL/ISJaGX+OlgdbbFyy88y9LMBLGmRD4lkhyjYV9dvSucwopb6mj7d8T29PvQmw4sOUPV2f9jjMGKCZTkg0QuMgTTG9eDvMv8VJuXnjvNwtTYAy0hbq1t8s65j/n06wvkkpB6AxJhTSBzJWzXM7Bb7TuO9YewdPBVcJ49oEt4lNDvqsj3eecH5kBaRM9HoDG5T7l552uurn/Kta337vswphrHmWgcY3r8JInp4HpR2CtXB/QQ00VMF+iimoH4h5PSp0LwjI+Kb3Ogh8oOWjyXqBBLA7IGVieZah1nqn2E6cap8gIvcSCIyregxOOAyVrCSy+c4PzX33D16jVubqXgI4wqsRXEGrx3GKUglpG6a9+93e9XdSKmSAwL6WFFpkbhm+6xOGLx4HOaifCrn7/AmZPLHJ++/+r8s9u3+Oyrb/nrG++yvpPR8wkmSsDnQdrl+1V3sZfv+yK4YnRODOoViULemTEGYw9IaKVStP73kLrKsGui/RG/sDhSDeI4VSV3ghATG0j9Tb6+8Dbt2hGgxkzj5H0dysrU8+ykN7mz8S3bN65h/Dbe7IBxxbFEoS2wx33/B65oguUsUnQrcpRs2OYnBx+hWkXzMVq1ZRZnnmG8sYgpPdxLlBV6iZ8aTnWa/OrnL/LymZM0jEN7m0S+R8UotUqMuuAUF2a0fahV+1V2n+S/R0iJ9H23CyIXAO9xWYrPUozmYb/c9RDXw2pG1Xp+duY0//LrX/Lc0c4DVeffXrrB2Tff45tL11ETYZMEzH71o/yNR9L+Ombwug+uQh85Rt3vmPuEbwqP876/uqAakXlHN9tgbfsSF65/QOofzEGuWZtloXOK2cmTiDYxWitG14I+wliwVob6g4dA6N6B90WXyIQRNms8kY2IpQauQbpdp1VZYbHzNFPto0zf52KlRImyQi/xRMAa4Z9eXOb2zZe4ffMW733xDZVKwka6w/ZGShxXkULP1ld599vv+r3Txob7oEHwBiYyVJKIGIJbnYbqPIoEkztIdzh+dI5/+5dfc3K580BhLB9cvs17H3zBm29/xE7PoZFgY0vuv/9RD6JhdFh3HhShh8WDuSvO5t5LpqDKFw2ELiYuHNw8uXbZ6l3nwtUPmBpfpmJn6NSP39fxLI0/Q663Sd1tNrcv0fN5eD4rqBJEhlhslGCMfQgRt4K1MYLBq8NrBpoVlsEx+Cri6lTNAgtTz7A08wwL488S2cqexVg5ulaiJPQSPyFSf/GZ46TdHt3sN7z35bfU6i187hDNUbUoIUozqK4ltHW9L3K7zXeS+yC3TQxiDargnAt75sEoPHjGa44xSkLO0uwk//e//jPPnV5lbvz+le293PHJ55d4462PuHZrmyhpkWPJ8iwcx/3xSvEKpJgNP5gmmxGze/Gg8jeI3YAqHhfqdeNDF3zgiZ5yZ+sC5y+/RyOeo1NfvW+ya1RmmZ08yeb2da7djtnofQt+GxMpniycB2qKKt09hEVNcb54h0gQLQrgsgTJm8Q6zXznWZZmn6PdWKISN++j81KiREnoJZ5ArC62UX+aNM/o5b/js0tXSaIqWMjyoUCsTzDB+92HKNEiSOW74Irs0TiOsQJ5luHyjMgIcWSIrODTHNIuRxY7/Ld/+0d+/cvnOLXwYHPnb35xh7Nvfsgnn19BbANMQhwl7GzvkCTVovwWds90j9TkRVdCzCglKGLkQGxf+2QmYnaFyd7bKU4G2d+qGR4HYgsPdkDjsAhz21y58TETzTmqcULdzjJeP/G9j6lTP4FohhwRoqjBN1csW71LiKYkcUhec94VJjc/jEwV8N7hfciDj6IIQ4RLFc0a1Ow8k60TrMy/xFTreCmEK1ESeokSfRw/MgH2eeJ6jf/v33/DZxevsrmzhUlag1Rw3VV13w87hUor98H4RIyQmAgritEcn/WoWuXEsRX+9R9+wa9/8Rwn5yYe6HV8dGWD1984x1vvfMLmlqJJBa8WvCeOBPVpuAyVfQh9b203IkArtAMHN7Z2L2OZ0cpTdr3HqC8Ma3M8OwQntb4Ri2AiRy+/zsVr7zLWaJK0E3LX29Om/m5MN55GiTg6HyMm5tvL77LRvYSyg40AUrzPeBi6NDH9LR6DV8Xn4LMK9XiWhalnWZ59kc7YKWaaT5cXcImS0EuU2EXqC+NsZicx1Tp/fP0tXnv3Y7ouppeBy3NUFTvSeqevVP8bMMYikSXPs4FpjPqczGUkxtOqJpw6usQ///3f8YuXn+K5pQerzD+/vsn7577h9bPvcvXGBmKqOBcU+2maUqnGdHu9EMl5T32q7FMt9kVxD1P09Tfes2Kb47v2zcPBFcYyWmwMCKg4IEclw/kq4pqFaj7D2C53Nr/g4rUG1WgS3ATTrRP3dWydxklULEfnDZG1XLxRYWPnW1y+DcZixI+ksj0gmaNhnt4IhcyCSGqMteaYnTjDcucFpponmWs8U164JUpCL1FiP7ywMk6tFdMYazEzM8efXjvHlRvrOJcHE7AowRS2pN4H//e/JRSTwgsdHc6Ze9ejIp6TR+Z5+flneOHMKY4tz/LcUvuBjvuLGxt8c/EWf3r1NT4/fxlHDKYSCtf+nr8G+1kRHTGOGVjd7DN0JSMtCcVIcHA7KAgGsIHNhN09kn6HQfqvT0OOvQ3HGSxYHUg8MMhxmmEjyLIuF6+fox6vUJs/yr3FY/1QmrvL7Zn6KgJECxHNVpMLVxtcv/UN3fw2GAHp7WMDq3s+711Aya4ljc8MQozBEEcVxhuLLHZOMz/xLM14lZna6fKCLVESeokS34VTkw1W2lXmJ5ocn+3w4ScXeP/DT/jm4mW6WzvYuEIcJSEpzVPcwIfV5KBL3adK9ThN0XQL7zOatYjlxXHOnFjmxTNP8fTJY7xwYv6Bj3czy7m23uNPZ9/h7Y8/Z8N5NErwaBhTU8Uai3eeqG9kI46wAWDxUlSE6rBFzrhKiHP1WrTZfU4insgc3B66kUqIJu3b5haZ5IOvi4z08LZnDIVocQgz6S8KTFr8ZnLUGMRatnubXLj+GdXqAt5mVM0UM83jdy0p5Dt65536Kh1WqdlxmvE8k/VvuHHnG25vf8FW9i2ebsi6NxBFBjGK1zwsDguhYfA0KDomCl4lmM35CqY3TT2eZ3xsismJaabHF5hsLdCwszQrJ8p58xIloZco8X1QsZaXj07y8tFJ3lg+wosnjvDpF1/z+VffcuHqLe5sddnOsjBbLgbEIsYW5jGhovXqQR0qOXGizEw1WOq0ObE8x5kTyzx1dIGfnzlxn0e2u5rcTDM+u7HN2fc+5Y+vv8u17QwfVUJRXczcGdGgGvc+5GirL9LeIpyY4AcelicYzcKzmAivBu2P6vmcCo74oPbQKQhdq6BZQdj99LG91awr5rRd2C/3USBIihATkwIeY4KYEbEQG+7sXOT89beRimd2/CR3ug3Gq/dvmzrbeIHZxgu0qx8wPfYt1zamubXTYrN7je3tddJsm9zn4RgpxhRNIGPvCD76CiIR1iREUYWEKabqP2Oq9jST4zNMTEwx1pilUf1xbF1VHVs756kkM8RRs7xBlCgJvcThxM+fmeLlZ6Z4/8sVvr18jfMXLnHh8lWu3bjDnc1tNra7pJkjzUL1JQKVOKJWrVOrJjQbVTqdSRYXZjl2ZIHF2UmWO03mxh4khnQ3oV5a3+Hch1/wH7/5Axev3cJLBTVDdfheGxnR4aJAB3Xi3a3gu8xtB+mkBzgKpfcKZfmun+9Xu6aofPsVvEfVhy0SDTPeyja31s5jbISNIpJWFXhwwpwfO0Nsa7TGmiy4o2xs3eTO2i02NtfY6W6S5zt4TVHNQ5qahiAgFYu1CdVKg0ZjjGZ9jFoyznT9OGPxIklcZ2Js9Ue9BkQszfpqeTMoURJ6icMPAZ5fHef51XHO31nk9maPm3c2uLW2we21Dbq9Ht2dLlmWIgK1apVWq0mz0WC8NcbUxDjtZszxqQb2Ie1Df3FjnXMffc3//I/f8+2la3hCKsnuhC4YZHbpfejzNbTrh+yuI4Epj+NvR3aReiDz3UsQr2GxJTZHtYtKTDe9wc3bhkqlQt2OMZ4cp/oDKtDpxiqwykb3CuPxOnOtLmnWJU236KXb9NJtsqwXTIYAI5bIxiRxlUq1Qb3WoJrUsZKQSIVWZRF7Hyr8EiVKQi9R4j6wMt5gZbyBW5xgrZdyq5cWheBwjjsyQiuJSSJLLYoeGon3sZlmfHH+Cv////wt73/8OZo0ieMqmQse4NrPSRMdEPIDF8o6onI3j6lZifZ1DAYpKnsZ+L4Xcj/viSsR6pU86yJisYkh87e4euMTIl+jHk1QMVNUozHa9Qev1lvVOVoj1X7ueqx3L+I1R9UFC2GGHYXENKhWJohsUgTm+IMLwilRoiT0Ej8V9Lq3yPKUanWCKBpWS1aEyWqFyerBVlDn17f55Isr/Ptv/8y7H31JZhLyPISneMwgdnPXbvsPcSIdjKLfR/v7x6jQtSDxouVeSODpq+H71bqKQ3EYE2FNhM89270ul69H1KI6SzNPE0Vz3N7epl1beSjis8hWmGwcKxZIHu9zvM9QIIpqu54jeBWUgrcSJaGXKPHQUalOUHlMiOzTO1t88vlVfvu7/+TPr71DJgleDLkzGC+FCY65O8KzEOrJfXC7DCr0IhHusW2594+3X5nvIfqiChax5M4DHmtBxOH8Dp4UsVV67gpfXXwDJCWKM1rJPJvdC4zVVh7iwiPsR1try1Z6iZLQS5T4cSrAHx9fXN/kg69v8vv/fI1Xzr7HtrN4seRYTJygYlGVEWvX/bzt7iOwo/8QOsxzfxwJfXSW/u7lSr9itwgRPs8Qa7AmxMc6nyGiGJOjssF2+jXfXk3xbLIy9xzt6jE2uxWaP5K6vESJktBL/CjY3NwijmMqlaR8Mx4BPvj8Av/jD2d5450P2OhBXG3gckWJEBuTu+Fe926DmCGZ31fnfZf/ifxgf/JHuY4amvNqGG0bXdCohFE1gtGLKV6K82EEzkY2OPf5DarVlPXuV+SXunh1LM8J4zVDk1nKsJOHA6+Ojc3rZGmPdnuOOCo7FSWhl3j8CH17gy+/+opbd9ZJKnU684ucPHqEZiUu35wfQuTf3OCDjz/n92fP8eaH37DWdZioSq4WL0HRrgPnNNnDyPpgDFlExiIMAlmsMVh7QHu7AlEUDaJq5XutPLQg7b3jbgJqi3WJRb0vAnU0+KR7UzQuFKcpNla6+TXOX3qPLPMcW1IMhqn6syWpPyiB75wn14xbN9ZJu45qUqNarWNNSQkloZd4LDE3M8ed7Tt0veP8N5c59+lX/OX1MWbnFllcWmG602R5okJibXlb/J4F8ptf3+K1s+/zp1fP8sm3N9h0MRLVQkioN8MRNWWEzJV7t5/1ez73yCR6sWgw5mBb7mbX2Nzf4P/+Rv9eUh+ZZde+/34/Tq4/j19Es4oBT4a1AtKlm13j4vVzOJez3dlhu73D4tjLpUPb90TueqztfMnttUvcXr9Kr7tDLFM0KjMYY2jUWwODnRIloZd4DHH66GmS6gVq9XG+/OoSn3z2DR99fJ52+xMWl46wuLTE2FiDTqfJybkaFVte0Pvh1nbK659c5vW3zvHGux/yxTeX6foIYluEqwyJqtC7DYRwMjKJLqNO7aKFClyfwHdMRtrsI213MXcny+l+9X1hwaqW3AV3PRs7uvkNvrn+Dps76+zMreHYoZ0cZeKhCeUO0QJT3Xda4XbTW+zkF+m5Nba2b7O+vsbG5hYb65uoj2jWp5judBhvzjAzfawk85LQSxwGrM4tsTq3xOzcMguLq7z3/ie8f+4z3n//U1pjY8zOz3L06BE+Wpii02kzMdmk0ahwrF1/6PPahxHvf3OLD7+4wB/+8hZvffgFd3YyMqlDZFEs+8edDsNVgD2BryM/JYyowJ8gMu/P3Q+6C/1KvSi9Q80/QvwjZN5vBKgJzm0+x1pPFGeIZKTpFjc2e6SX1tlO77A0u8FmfoNO7akfZEJz2HB75xMsFdr143f926Wbn7OTnmc7Pc/GzmVu3fmWtTubiLaYGDvG7PRJJseW6Ywv06hNljfJktBLHDpinx1jdXaMhdkOK0eWefvtd3n3/XO8c+UCb7/zJmPtJivHjnBsdZnZuQ6fT7SZGG8y3qqx2G7QiOOfVGv+i6vrfHvlFm9/8Bl/fv0dPv3mKts55BJjoiSozHW/xC52kfluUu/L40Zb6E9a6dhPZiN0IfqkLkWEqfqCzDV8ltHeBcNFgAiiBmsjxOQ4dah4bALerXF7u8f2xU02du4wN3WSfHydejxNxYxRi6aI98yTP2lwVFGx3Ng+Ty/rkuVdur11NreusrF5mfXNi2xuXyVNd0CFscY8C3Onme+cpFVfYqp5srwploRe4rDjqeU2Ty0/x9NPLfHsc6f5y19f59zHn3Dx8hXOX7zEK6+9xdT0FHPzcywfmefo8gJzszNMTzapVyvUqhWmGjETleSJJPgvb25y/dYWH332La+99S5vffApGz1HTowTIUpqqFhwbsSLnV2kvX8bXQt1+vAng3Hck1aiy0j1HSpzEV+8SlcQ+IiuQM2ujsXo34tIcGgzBudTcp+CKMY6xDp6+WUu3NhkY+sqaxuXmJ08xlRriVxvE2U1jFQZqy3zpIjnFKWbb5GYGi4bY617nc3eBda2vmZr5zxbOxfZ3LrO1s5t8BGJbdKozNOZOMnC7Gk6k8eYqj9FVM7cl4Re4kkj9gkWOy8wv9Bh5e1lzr79Pl9fvMZ2z3H5+haXb3zNuY+/odFImBgfY352lqXFeVaOLLI4P8lEq0ItiajEMcemGof+lvn5jQ0u3dji/IVrnPvoc95490Ou3FojF0vPBROURquNtTG9NAvZ3IOae2/Otu65ERc/qQQx2F3/8oQR+oCk3WBPIcTA9n/Gg5qgPxiJuu1X9YM5e3Xk3gfr1Qgim4RKXRUxHmtz8myNG5vbrG9e4+adCyx0TjAzeZR2dYZa1GZtO9+3Lf24I3c91nsX8KQ47ZL6HbrZFjvpNhsbW9y6s8bOzi2208uk+TVyfxOvmxhjqNaqVOw0460VlubOMDfxFImZYqpxinIyoCT0Ek8omrWYX7+wQmd2nGMnT/Hq6+/z9rnPuXZzg8xbus6zeSfjxtptvr54h8r7n9OqJ0xPhNb9wuwUR5cXuDQ7yVgtolmPWZ2bPlxEfvE6l29t8cWFa7z38Ze8/8lXXLp+h55GOGqkuSdJqtSjiF6vi3M7YWRMZJiRpnp3NT4gqH5FKuyt54emM08a7MhL1kDsxcKn304f7qubYW9Ddk8EqCjOO1QNQoK1CXgld4HohRSMYisZqo71bo+dCze5ev1rOpNHmJ1cZbyyTNaF6cnHn9SDEv0bnG6T+g16bp2ddI3t9DabO7fZ2LzF5vYddvKbZHoH57oYcZjYoLniM0sskzRqCyzOPM1C5xStygKxjFOLZ0oyLwm9xE+iWp9r025WOLLU4emnTvPa2Xc499EX3FjvYuIYj5Ip5Bls3t7hys0NPvv6Eo1qwlg9YWKszuz0OAtzU8zPTjHXmaQzNU57rM5KZ+qxe729NOOri9f59so1Pvz0K859dp6vL93g+kbKZi6oraA2Js0cNqkg1pJmGSDEUVTsA/sBZ91T3CayZwf9b+Nej7XfkuHgm/U6cnDKbqe70bhX3SMO6AsHddCpGP7fkXdIdbAIUBSPJ4oFsDiv5L0UsEUwjUX6meyaoupwPse5lN7mJutbV7l49Ws6zZPMjZ1ibfsyrWabOK5RjSeJbeNHbz1n2SZb6WVy3SF1W2R+m510jdvrV9nq3WZz+yab3Vv0snVyv43THZx2MdEGJt5C1eNcFaWF0XEatTlmp06yPHeGieYSFTNOKzlCUmaml4Re4qeFuWaVuWaVUzNNTszVeGdljFfeep/3v7pCJhHqLWpivInINaLrhK1ewo0ecGuT5Pw6teg8zaql3UiYmhxjdnqK6akJOjOzjE9MMN5uMT5WYX48YbJ2sDfTzy7f5vbaOheu3ObjLy9x+doNLl6+wrUbd1jvZqRqcESomMCq3hMLiDrIPaIekX64yEgLvaCj3eI2HRDZLtKV/ShZ7/KRU9lL2DLYf9c9//NgeFzx3t1jebGH1MUPj0tGSd+GVrywD9GPvDk6+t4YvIYRNlHZvcUxuigovvYmR9hBTUZPN0mz22zdusaltU9o1iYYa00w1pqiVZ+kUZ+kZtskNEnMOGO1R2sn69Wxvv0Vjg1Sv8FOeoft3i02ujfY6t1ku7dOL9+km26zubOOGI/XjNz3UHJM5BFxqE9RVUzWInE1NG8SSYfpsRMszT9DZ+IYzaTDRH21nNEvCb3ETx3NWsw/vLTK3GTE6skjvPbh17z65vt8df4yzlSIai2iqEruDV0vRFECChvdbaSXU+0J8UaGvXSZir1MvRpRq9doNuu0x1pMjo8xMdag3azSbtZoN2u06hUm2y0a9QqrC5PYB4yqdKpcWN9ifTPl9to6d+6sc2ftDrdv3+H6jRtcv3GTK3dyLm8Ia9sZvW4PxBJFFYwdBmiq9+GmKRTVOHdZt+ogNWy/Cvp7tjZ1RAsve2vW/R7ux2qZatAM7DK/21uhs4vUd8Ps+0bJ93724lFk5DvduyAgdE1MCqTFj2yS+XW2/RXWthOudKskt1vUkwka1Ska1Slq8ThjjVnqW5PEpkFsGsy1jpLcV/Wu9LItnE9J8w2c9shdjzTdoZduk2ZdsqwXZsJ7V+m5W/TcGl13m667Sc/dIfVb5NpFRZHYkGU5YEiSBGNMyGz3jiiyRHkd7VaJZZpW/Qizk6eZ7zxDu7HM7Nip8iZWEnqJErtx/OgyS0uLjM3OszA/x+tn3+HcJ1+ytr2JtzmRJBgi0l6GIlSSGGsTRB3OZeQa0Utz1ns9/FoXsXeIrCGxhmpsqCWGRjWhWUuoVyJazTqNWpVGo0ajXqdSrRDFMXEcY4wlsobIFENQqjhVcufJnSPLw0eaZqxvbrK13WVjc5v1jU02NrfY3N5ha3uH7V5K6mO8baBisVGEGAOqZFlWiK3MY2kC4nAAACAASURBVJ1iVuJ+aNZj4xQrKc5tkjsh611jp1dlfatObBvEpk41GiOJGkSmShLV+TSukkRVIptgxSJGiCLBmJEFWGHHq8X2i/eObm8H5zK8zwKhZ13SbIc875G7FOdSMreD1wxHhpfwoUZRE2OMhDhZdcRRjCr4POgMIlMDIlwX8rxBuzLH7NQJ5qdPMd5cphYvMN0oybwk9BIl7oFKZPnl8RkmxmoszU6zuvwRr791jq8uXqOb9bBxjYpYcg13Ou8MPki5ERPmtY0R1HtyDR/d3LOZeWQrQ3QbUYfgMUaIrMFaQ2QtNrJEUUQSJ8RxQhxZjDpEQ0PXq+KcJ3M5ee4DoTtPmjuc1/DhPH5gUpZgbBWJYyITFaYlflCNQxFJWv7anzBS74HJMUaxUZHNrl3Ur5N6Qy+zbPUEwWKwWImwxg4+jDGIGMREIGawnTBK6OGzI8+7eM1BQ8a7Jwdy+kE0YDCmgmqEYvBaRMlSwUgMkuM1Jfc7WCsYMTgVcDFQw5o6iW3QbsxzZPYEs5OrtKsLWMZp106Uv+yS0EuU+G5YEZ6ZGePpmTHmOxMsL3R49ey7nPv4K25ubkJUIzYJadYjV0GNRWyEFyFXLTrWFhGDSjBKDVvCoWXrvStsLCFT8LniUo9zOV4zRLqIMViAPMOogpFwky16wNp3HDOCiRKCYQmoFdQOm8PeCFYEK6Aux7kwF22tJSra/N77sCgpceghgPchxlYKAxsjgUShv9DziDEYHGhOTpdcFcmLCQYUxOA0GjoDDnzoAfoLQsVGghhFcQRlfxDtiWghgVDUp+BdCKhROxjdU/VQJM4ZjSA3iMTEmuDyCkZbtJrzzE4fY25yhanWHBUzgaFBu3ai3C8vURJ6ifu7Of7s6BQ/OzrFwswkS3PTvPvBZ3x16TobvR6RrWJMTI7gTCD2XAWXO2IrGAlkmfugZg6VDyE3nFBRiwhiLSYOY2EGQiWtilNPnID4fthH/8BCUEmoniDNXXGDlSIzPDyP16JV7x2Ry0H9YEEQKq7i310Qf8kD7uOXeLzOWkMVsHgXfve512BMK2CMwZiCaNWjEtrnqC9a6RoWnmJQMahEDAWQplgWFGJF9XgcqMf3H4PweP3TLHSjHCIGsMGgSC1CkT6HohoI3ZAgroK4GnUzzVT7KPOdE8xNH6OVTCNUSKIOjaS0bi1REnqJH4B/e/kUnekJVo8u89pb7/HeR19ybX2bnSzFxnUQoZs51ERUKgniUshz7MjqQAoS7UvFIwk2oFLYg6pKv6+J+lABmSjCGIP3inofBscGyWaCGCEWCQ1ODb32YF8SXMhUwzCUqhJZCyJ458izrCD/4QKgrNGfFPgQ9dLPgukL7UUGUwt9Cd9wYqE4F/vnQRHr6ke3ZkaFisUC0ms/OrdvfWuK5xguPrXftDdakHtwHJRiEsD4GHUx4utEjNOqzjM/fYqFzkkmWvPEMkYSTVIvibxESeglHhaeW+nw7EqHpaVZlo98yOtvn+Ojry6x5bYRUdQpeW4w4ol9jvVZsPEsnMHU66BqVgie3UXetvd+IKAe9V6R3IXqfnB/DCQe+HxoVqIS9sfDxr7uyvB2xfy4N7YYxwrfG2OIoggjBq9+UKmXOMxQvM9QeoMFW8iTD9s0fjAb2FfLj5jcDBkeVcGrQbHIwLZ3ZK6+OP2MiYG4WDT6kf31vgGRIGoR8UAKkgMZKg7xFnyMdTExTWLTYbJ5nOX5MyxMnaSRzND8CabKlSgJvcQBQYB/eGaZ8XaTpSOLvPrGe5x990Mu3VpnrDaGxBW6vR4RShTJQDzUFxSJBiIVY1B14ANZm8GeY7+KL2ooY0eIu/hU7NOHUeRQ0YsRbEH0YTEwTPoyIiG/vNgHNSa0To0xqPf0XBae6jFsuevIYNuQKA7ytz3ypew+rsdVTmhsGKPbbWEzkggnu+NvRz90UIEP8+D3OAYMfhejM4iD/ymjhjpahNbY4nkDsQsW8YJogmiNiHEa8RKLnWdYmn2WyfoK7dpJbOm/XqIk9BIHgTOLk6x0WiwtdFhamOVPf32DLy9cpdfdpmZiwKJqwIdWuhgTKmFfmJCoDm1U8YgqRouvC2tVL4JTHfFC1+ENdph5wsAfXXdX5kMmsohEQ+Fb8Xj9781jPrLmvccAeZ4fWBeh3zkZkJTICKXpY25f60IVPFJNgyl8BPohMmYk137074YrF6P+br+/ImFHRoyEBguHfvm/qz0fFpveOUQFayrgEzQH8XUqdpKp9nFWl15isnmUZrzIeOOp8gZToiT0EgeLZhLzixNzNOsVVleW+N0f/8wb77zP2vYOqY+Jqm2iao3tnR263S61epM4TkIFH0VFi9yFkTeGCmMpbqT9SM5h/Kjs47y2+yuh2NMUvUeluy97Pbbv8eir8AdeoY9S1kiszOMuNtBQFd/try97FiIj3Q/Y4/AT/OhF/d2/kZHzS11YcBoxhZ9Bcc72G0oCIh4TGVwuZJlgtUYiLcbq8yx2TjE/fYpmMk81mma8XpJ5iZLQS/xIEODZhQmmxyp0Jv4bJ1fm+dOrb/HB+RvsZCmpV7ARSb1Czykuy4iSGqkWM7pFG9Kow+AxhM+C4sXgTEQu5u4KffT7vRugsjcWRQ5txpn0i2EZYYkDXkgcujNSq+DN7lcj/aCY4Qm0t5Mzeo5I8d7Lvu+K7vpSitE4KQJqQoJssYQUj7E56g3W13F5lYgOs5OnObpwhun2UapRm8n6qXIMrURJ6CUeD8w168ydrtOuJSzOzfGntz/jlfe+4OrtdWyUoGJwqtikghdLL8+CiYeEYSCPweKKGn1I6LlYnJjvpByRezCQ9Ct+MIeQobTftRhUfQdYoevw+fRQLYcENAZfGZTcYa7coeILUu+bvgxZWXatDIvzZm+qntwdj2NM6Aip82gxMbHLnN8YfJaDt4ivM9k4xpHOi8xNPkOrMs9i+5ny5lGiJPQSjyfOrMxyYnGa8Zl5pucWeOWvb/LFtxdwGlNPqjgcXgRrgtGMShj9GZDWCKGHr83uNukuj/ORPdLBNvt+Zuu+eMzD1vsIn/tyrsE0wEEtJ1QPLgzmYa9GZHQwrUhowxViuf73u6Nb954fYR7df0fvQooxyGKWHEVMf3IjnIviK+BaGN+iM36CY4s/Y27iaWrxApOlgr1ESeglHndUIss/PT1Pc6zBQqfNX8++xVsffMLtzTUkqmFMFUtfh25Q6ddDweFLxQwmhWWwk17cTpXvEVyyW5Ites8IlMeXzovD1ZFwlIOs0L0qXj3fJT14bMkcT7BfpSDkwr0NB1K4uQ1iYe9N6Ayb9Pc8d7TvdyBSaOuCYZL3Cmqw1GlVlpmfepr5zgkmm0eomE5J5iVKQi9xeGCN8HdH2kzWT7A41WB+ssFfzr7DhRubpJJSjWrkeFzhba2DSnRU+U6hht9TH+3SZsm+N9ldhD5osR7CSrPwA+8T+kFW6KNbxYfqXRO3i6xlV5U+0jZXGZx1u75m2HQfVvz7kLoWCnml2P+OcDnkLgg6q9UGE9WTrEz+msWp0zSr46haKtFEeYMoURJ6icOH41MNjk+dYHa8wUJngv989U0+/fYam/kOQoQhwhNsNnfrqTU4vqnfR2lcVESjc8N3VVay674bugCPQ+nNnjhRvTeX7/kvwWDvYF6FFguIw0fpxX55cB5gb5p8v+vTVxqKjhjMaN/zfcRwZtAqGX2s0Tx3E7LbJUJVcA7wlnq9xczMIksTf8eRxq+Za63uOkrnehgTFVtNZTxQiZLQSxwiPL86T7tVY35mhj/+5SxvvPcx1zc2yU2Clxg1EV4ivBhUhRyDQbEiQW0soxO/hWK5X73LXgKXXRX840RLWhwvgKjHylByFpYwdjC6ZwVc4fWNWDIM7qAKdDxKhkgKhVgRtQXR9dvaPHaEP6Bu0YECXVX21N272+hy19iaCa/fUCgv+hs/fctXP/RLQDBY8AZ1CZG2adYXmJteZWHmJJ3aSWbrq3d3sErTmBIloZc4zFjpjLPSGWduaoKF6Qn+9Nc3+Pb6Glt5ho9qmDgiU0OG4LGIQIQHzYPflpHQPtd+9eVQ7wsf7mFzVWWXTnnPTfzHL9F9cUwWh3jFS4TDolg8Ekb3fEZkBIeSK2Bies6S5gfF6B7PDpgd1Dvw/eQxi5AXFqZ+pFJ93Or0fuVti255/zwoOj79vXTpLxCLnpCYYmElqNViYRAhJOFncof3KVZyoqjwTPAWn3sS6ky1Vjk6/0vmp55nvl3OlJcoCb3EE46fP7NMq1lnZnaOP7zyGu9/9g3rWUqeB091G1WGSmEMNk5Q5+jlGaKOODJEkUW9oJoX7l99gZLsIXaGW6CPFdkEsV7fRIddWwh+EFgz7DoYHHJgMa8alhIo+cgEQdGSlsOQSqcDq99QcZuBAEMGZjJ+d2UvfldXJ5B9n/xTUCla+Y7IGJKogu95XBpRj+dY6jzL8tzPmag/TadVknmJktBL/ETw1PI0ca1CZ36BmVff5JWz73Lp5jrWBnWww9PtZuSqVCsJ1hisNYPtzDx3IXwjSopADAZV+rAW3nV7PmSQu/jpIFXuIblu757xYYEPYSiqI+9l/3UU2zNaZJIPwn2KEUlMsCyWECYUFpY5uesiQGwsUZRAHrGzHhHLBFPNoyx2nmapc5qx2iLjtdPlBV6iJPQSPy2sdlrYOKLZ/mfm5hf47R//wodffoviiOIaSdXSSzNQh3rFWsFIjPeeLMswRoiTGJ/nYbxrl3d3vzLvz58fvin0IQUNRWp6wHPoIdP7kEnjZHSPf78Alv4soA1Vuoyq2mVEoKmodyFnQDwWweDR3EBeI9JJZsbPcHThRWbHj9OuLtOszlKK3EqUhF7iJ4mV8RpL7SpjjYTpqTF+8/tXefuDj+jlmzgiWtUGuUKaZUFBHMWIsZg4wSukHrSwzOyPusku8VOf5A/jTbbvFFf4m6nHHRCh+0EU6MgS6RCM8g/lkH4kvScI+YYvpSD3wfbMaGbAUGBpGQbUJHEFQ0RvO8dnFSYbKywtvcjS9Eu0a0eZHTt517F0u1eI44lSAFeiJPQSPx1YEc7Mt4kiS7vZYHF2klf+epaL126RuRy1CXEU4xSyPAOr2KiCqpDlOWLt0OJVhkluojpwnEP0UJL6KH+qL7Lc9dHnyfiRTG9G57FHZwYeW4IfPc5gLKOYcC6IjBjC9km9+F/9r/uaC++L4NMIzSB3lpgW7fYqR2Zf4sjMSyy3//GeHuzer5NlYO1ceZGXKAm9xE8HApzuNKlFlvHm3zM70eIvr7/JR19fZjPdwVqI4yqqOb0sDTO8Jt5tIiMhY33o7a6FqYw5tOEse0nWF+Yy1j5iYdpd+/V7mLtv3LKL1OUxOp9k6Km+h+j7AjjEFy13v6vlHl6TgHoMBvExPo+IZYqZyRMszz/P9Ngp6tHidwaqVCorZXVeoiT0Ej9drEzUWJmoMdlI6EyP03zlDd7+8AvWd7aDsthacqd47xATgRmN9txdTUo/+koOoShO9uPY3cr3R8vno4Su96iAR8rZxygfXXQ/w6FiBG3w9XB0Lfx9/2eH2QFWLJIJuBqtyhyzU89wZPZ5psaOM9t48W8uYEoyL1ESeokSwOkjU8xMNohrDaq1Om+++wFr29vYqEolsjjxeM0xRf9ZRlzm8CMK7UNamAuCV5BiwSJF28E5z04vpVmvPlpCR4PS/VCq3AVRS3//XHXoxqb94JYirGXUea9vHiMiGBJIY6xvMFY/wvzMaZZmn2O8tspU/enyAi1REnqJEveDyUaV//fvn6E5NsbU5Dhn33qXr6/cwhBDJHiv4b4sIGJBHahiin1S7wu5kzmErC6CeocxhlwphHGQZTk372w8ckKnEOAFUj9kOd3F2Bn98bS9ZI5HxIV2u/pgOiOmWBIaUIv4GHFjTI8dZ2XpeWYnn6IeLTJZL+fLS5SEXqLEA8Ea4Z/OLDA92aLTmeI3v/8Tn3x1kVw9sYkRifAeEI9zDkSIkhjBkqc9vHrMYSzT9+xfB4+UsNWQ5/kBPX1f/Ha3H3r/uB6/6r1P5CNfD/5pGNIiRUXuC193Q4xoAhqhLsLoGMszL7A0dYbp8aM0oznGSzIvURJ6iRI/DBVreWa+RfyL55loj/G7P77CW+c+YccpkRVyVcQaJE7I8pyd7S2MMVSSBCMG593hjA2TUZOcMELlnDuQxDV/18x7fwvj7tjRIZE+TqRu7j52dqetqQd1BmtiLDV8FoNWGKtP0xk/ztHpnzNdP0WjMkOzWirVS5SEXqLEQyP1Z+fb1CrHaTdrtBo1Xnn9bdZ21qnWWqT5Dh6LkYgkifFeyJ1iTLD+HLX5PDR8vqsIDjamLs9DJ+JRE7p3wWZW7jWdtp9QTh6fd64v0pM9XQYJ8knvwGCJbRXxCT6tIL7BWGOOI3MnWZ45w1i0SqfxXHnxlSgJvUSJR4HVySb4eZr1/8JEu8X//v2fuXLrBrbawtgKTgVjY5wIWe7JvCeycji1cYWhjCoYCZqBLM8OpOXuvcf3RXF9UtTDf/5In+i9wZgKEU3UVRHXYKK5zJGFp1maOclYPM9k/Ux5wZUoCb1EiUdZtR6fbjFRqxCZXzE1McH/+t2f+PryDTIvRJFlq7uDw5LUmniELO0RWzlUnu67B/C0KNCVPMtx7iAI3RUt98Ooct/v3RzNQzcYk5BnhiyFRtJmfuYpjsw9S6e9Sj2eY6K2Ul5sJUpCL1HiIDDZSFjojNP61UuMjY/z3//9t3z4+QVUPXEUod4WqWD9j8NWXhZbBdqP9ywI3bmDablrX+F+aEvx/ith935/UL4LEUZjoqjNzOQxVpefZ7p5itnGz8qLq0RJ6CVKHDRWphtAg6R6kiiOaf3hr7x17nNyhEpSoZem5GqIowg0e7zIRvsp3EFvLXsqSd3D7X1Cd97hDmJtoq5YTMg+FfqjOgAd6QfISE9mv+fdewzD49S9lXl/VA1B1IDG+DyhVZtlsfMsRzrPMtVYpR2fLC+qEiWhlyjxY+LU9BjTvzhNs16lWUt4/Z2Pub21TuINlaiCMRVSB06Dc5y1ttiT9njvMWaYkX03X8guzvjhVFYQtoCqQYlADUalMDwJ89FeTPAfV4jUE/swspblnq1HXKBf2/iC1K/hxaMkw/p2kBfuR7Yv+rPeD4HORQlmL+FWJWpB7UiHJfx73+FtYEKgBih+Vi0Y8OKAHGODu546h5UKVpv4XpV2/TjLM89zZPYMk9WjjNePlxdSiZLQS5R4HDBZS/ivLx2nEhla1YRX3zjHjdtbqEIv9XiJUGPCPDeCivQDt4KLt4TwE2EfIodhUtcP3k7WgpAELwloHEJlgvwtkKYoXgRVQVSJPUSSo5qTOsfWoy7RZZPU3UbVoZqguCLcRlFxCL6IvOm3r83ensIDwg/eG1QDUWtUkLqGjHNRIB+S+sAMRsIMucYoDi+KR7GaExnBSgRZRORbNGrLHJv7FUudF1mefLm8eEqUhF6ixOOGSmR56fQy1VqdRmucv/z1Dc5fvIYSY5M6qCGyFjESlOKqGGuhCD2RkeStvjHJaOP3odCo3NUC2PXoRXTIrhT3sOgQVIP7Xf7It7ZzlByPBqIcpN3cvaKRh7bQgb5L26Dqln5F7ot3pt8+Z8QNbnShlIf3TnNUHUZAnQWtEEkd0Qbt+lGOLbzM3PhTTNWPlRdNiZLQS5R4bCv1esKvTs8TJRWq1Qp//strfHnlFl1Vtno7OGNJqjUiI+TOk+cu2H6K2U2xAqIHLKST3VQ/HEEfLivy3JHlj14Up1rYogoHJnIXNSh25An7Fft+JjZ2xA2OgTd7mJsPXYRIqljbwKcJ3o8xO3GSo/PPMz9+irqdpVGZLC+YEiWhlyjxOMOI8Oxym0bt57THGvyP3/yRj76+TLteY6fbo7vZo9poUU0SdtIM5z3GRsheAVZQohUUontL7IdXrO9n21Kknan2n73wcs8dWZY+WjJHB/qCg50OsIgWtyjJC4LOC12BDCvzQncw3Fv3I4TusSJEWDS34CtUdJqp9klWF3/GXPs4FTPJeH21vFBKlIReosTjDgGaccRzC22MnEYsyG/+zPmL10g1pRJFaN4j90pkI5CQmq5ihuQ9wt/yyFLH7pXSPpLNvStHTsiynDR7xIp9DcYyWlToww2BR1yqFwr0gfjNeJAclf7rNUBcHEyf0Bm6wJkghLMSY9SSZTHiWsx1nubp1X9kvHaUmUbpx16iJPQSJQ4lTs+1MS8/TaPR5N//4/e89+Gn9Lwn9Sl57tCoitgKIgavIzvm4ofVuTxEPt/tGLPvA48OrmlxAH3qz5wje+ROcaE74NXvyZLfe6wPm+D7AjcdbM7rQPnf/yXYUJHr6LEMA1lEBJcZcBXalQXmJp9lZf5lJmpH6ZRkXqIk9BIlDi+sCE/PtImtoV75f2jWKrz21nvgIKpU2MkychVMVB2pjnWkMn74LWe510PuEqDJsFIXCUEiGvbQc+cfqX9bv+WuXgN/ihYkuw+Za7+ToA/lme8ygSGM7w2WOKLF3r4HdSHDXA2IRTRGNCbyY7TiRZbnXuDY/Ms04iXGKkfLi6FESeglSjwJODHVopkcwfDPJHHEK2+8x62dbZKkgREh8xliknsS5aPYSZZ7fre3Yi9IXcB5xblHLXPXwiVuPyMX2b0AeahzAIoUwrZBi7+/Zy4jr7m/X44JPvdY8BaIEY1oVVZYmX6eIzPP0k6O0Kw8hbWV8iIoURJ6iRJPCuZadX7x7FHqtQTE8Oez77HW6xElBrGGXp6iCkm1FnLHszDD7L1iTUGqD4XZv8+DCGJC9em8YiRUq7lz5HlIQrPyaGp0VU+WZXh133s58nBWOB7oC/58McJGQdyh/d+3wo2skKc54oU4bpCn4HOh1Zzj2MIvWJn6Gc1khnqyUpJ5iZLQS5R4EjHZqPBPzx/DI0RJhf987W1ubu0QVQS1Nuyj+yzQlfd4DJUkxrkc7z0iP9QVbXSeW7+zVhXCrLVzSmwBEXLvw7id91hrH1mF7nw2mIk/OBSq9kGeuRmay4gDHMYEEyDvHIYIaxJ8apC8wmRznqNLz7E8/RKLrX/EiC1P+BIloZco8SRDgH99/iiKwVrLK2+8z9U7G0S2ipqIXi8lSipUkog0zfDecCAj6SPWssHRrtC6y1D17j3kzrGV5VQeCaEX43L9kbUDDVorXPR2tfINw9Z7sMIV9fhcqdgGxtfJehXGG0scX3qB5ZmnaZjlksxLlIReosRPCf/83BGMsVhr+c+/vsnlWxtIVCEWg2iO2BhrhV6aYozBmAMgCSn4DAYz6CKC7yu4vZJmObd7GZPVR9NKdupCN2Kkp3AwK60QohKaF31/9sJERgKp+9yhChEVxFUxvsFka4Fjiy+w0jlDw8yVM+YlSkIvUeKnBivCr56eA/0FVuAPfznLtbUtkqRO6nPSbk5cqSHiyX2oXEUeXcmqI6w+aMwLxV66gBicd/R6KWn2aGjWq8drjvP5nsr5IAp0GSrpRUHd0AiuUPwLCVYtVivgm7RqS6wuvsjyzBkadoZm7UR5YpcoCb1EiZ8iKtbyL88tUa1YrBV+88dXub6+TVypB0fzLMVECbG1qHdwUHawYsKomgzH1voVei9NyfJHROg+J/cZzuUgPhTG/bG1RzTGt7s9YYZGMQPf9pANL1giSbCmhutWaDeOFGT+LM1ojlaZmFaiJPQSJUr88tQ83v+CLHP85k9/5dZ2l0rSYDsNRi5REgW/d33UPurDUJbhfnq/TBW8etI0DeEyjwCp28I5V9i+7tdDkEf82qPhnDlBCBdSViLEG5wTcDHt+iLHj/yMozPPUbXTJZmXKAm9RIkSQzy/Okuu/4A3EX989S2ub3SJ4ypqK3SzDFElMo+69zxiLFNUxcPgmJDhnmUZuXs0Cwvv0hEf94NGP23Ng6SouEGVHsx4IqzEjDVnOLZwhuWZZ6jaDu162WYvURJ6iRIlRtBMIk4dmcT8698TxRX+1+/+zPWNbWxFSExQmOueCJfgUKqjxfWgmtU9VXewMpW+hL0Qv+1JEdPCoU5CFrqIDznghM9eIfPKo/KWyfw2nh083eLYDKgvVPajgSh3G+Horpy4uwNtZOQ1sm/9X6Stych7poW+Xy1Wa7Tri6wuvsTK9ItUzTztsjIvURL6k4nt7hUUaFTnyt90iQfCXLNK52SFyLwMWY///Yc/s7Zzm8hW6GmFjBpIILlAuKDe4Z0jTiL6Lmv9ZE8dIfKQ563BylQUIYSPiBpkIG0PSnpxEAkYzcBlWJNjDTindDMlfVR76KRkepNMb4DJ8WoJawdXWLCOBqKMkrEU4TZ+RNLXr66LRYqawefB44wsALwIzhgUxRiL9zmmaLVb12KqeZwTS79kYfJnTFefJ4ma5QlboiT0JxGqDudv4vBsdqFZknqJB4Q1wtGZMf7LP/5fxEb5ze/+wI2Ndar1GZw35M5jTSAv7xxWDGIUzV2orAdj1IU1S0HmKrtTy1S0IEAQAtmJGkwRnWqLbG80CNQQxXlPL1PS7BG13MlxrONlrZgJt8WCpL9CKURrKoMsuGE9LiNO+B7FF1PkBZnr6Nd7CF186F6YIPzLc6VeaSIZuEzojK2yuvgSc+Onma6VZF7iu9FNb5Hld6hXFu/pFJi7HtEhdxF8cgkd2Mp6bHdvU6nc4U73c4SEOK4TSxxuL+oxYrBSY7y2Up71Je6J2XaNicYcxv6Src1N/nL2Ha5sbmOSmNhaXN7DGouNLS7PEWPw3hVUbXYlptHPNdHh+NewGT0SoTpS9AZDmfB/VEMauveKeiVLM3q93iO7kpzPB17uuisw5buT1na32GXkb2Qg7FMtyHvXKFxY2Kh4VHNUlUgSNKugacJEfZ7lhZ+xOH2GqpktybzEdxJ5mt8Auiiejd4mYPFYulkKmiKSkfYyrEQ0ax3GmydL0dYC2QAAIABJREFUQv8x4Vxv31XX5sYOV25coJdfR22XKLYklSpJVMeaysBEJDJ1bu+cx0iCFYs1MdYmWEloJnNUyhvGTx4CJJHl9Mo03X/9J5zCb199jzt5jzip0stzjEAURbhc8QomikPs6KBrxHAEq0/cOtxCHt1Cl32XqAUBUnjIa3iUNMvp7jwaQleFPO8TOtydgPYdS+pdnL87uGUQBlt0JXa9+MHyJ/z5P+y915NcSZbe+Tvu94bKSJ2JVEBBVQGlm93T3SO4Sy6Hxoc1239z94WP+zBcM9pwaSR3lhwup2eGbFFdClUFkVqEusLdzz74jYgbgQSquwrVDZFulshEqIyM6+6fn3O+831WUlJpUQ4TlpvXubX3J+yuv0/L7LDSfu9qcl6NmXHc/5wQLvA6oAxDSp/hXE7pS5zzeHX4UJBlF3hX4ssSVySsr+zx1q7QGzpa6Q3S9NXb918LQHd+gLWNmW3QiMWaRUKwfPn1rynlMSYtMVYx0iZNutgk+l5b06DTWSKxDdKkSTNt0Ug7NBttUrtQgX+T1LZITIuk+m5p0ExWsNKgmS7wB9bFvBp/4BGCstZu8Jc/vhUFXYLhP/7db7gY9WnahICjzBWTWJxTVGy0Hh37nEdB+AhpM7dNAU8u1WPTSva1UogzFSFNFBFD6QJZ/kMBemXMEgIiM3mGufc/G7HLU6BeadHXHjkuMcweWmoEOgGrgpEmoWyx1Nrlzt7PuLH5MR27zWrnCszfnKGcjr4iaI5S4DSj9Bmly3A+x/mc0pV4n1MUF5TuAqcjSjckL0qK3FOUDleWeC1wvgeU+MLgsoTV7h3Wl+6CtoCUJGlfReh/rGFNg1G2jzENmo21ye23dz/GccbJcImTwWdk/oDAEEOHUdkm5DZukxIIFxlGBGsSEtMkSdokto01LYy0aKZdFjqrNJIOzbRLs9mllSzQtB0SmyLSxJoNdpY+wl7pRr+Ww9Za1P7Vn9wl2JQ8wN/87d9R+FhfHuYZzc4ixib4UJHfxFQR+ZihHWrp6Gq7kjHIyyxYjjVcVKO4DLEPXTCIKGIMzgXy7IcE9KJyNxunyPVSEK6DeVTR0ymo1yN00dqxIDwVmU9eR8f19ZSmrHH3xk+4u/0zNtsf07rKmr32wwfP47PPcGGID32CDijCBbk/I3dnZPkZo/yUUXFOXvQoyiHOZziX4UNZ8TA8aBNCB9G0OliWeO3RbBjUL9Ba2OH6jdvs7d5jY/njV1r3/7UA9CTpkjxjga8s7rC3+zZu/yHFxTFYR5I6vB9RFooxDdKGJeAAD8FQ6ojS91AXfZVVk0gGOkxiWt40SZM2zaRNoxG/0qRJq7nB1yd/RyNt02y0aCRNEtMgsU0S08TSxEqTllmm09y8Mox4xcc7tzf4l//85xTZgP/2D7+kVKXdtGT5iEZniaKsLD9NPQKfRrJSa++qY6To09FJxMQ64Wz8IENZOrK8+IEA3VOWBUEDmMnpoiLCPf0+x9+FOmhP3/f4jxv/KzIfmTM5AGhogGvRSDYmcq5Ns3EF5q8qQPuc0g/wvodXFwmXweO8w7mCggynOaVmZPmAUdZjNLpgmF2QFefkZZ/S9XG+j9eMQIZSxM4Q4xETBYikEbAmEDTOVw0eJmWjgFJipURsQpI2WV/c5drmDRbbO9We/EMLJl0B+ncem4vv0Cs/42L0gPPhE4b+AoJDTUCSio1slKjLIVVb7XSrFQKiJYY4WTQUeN+n9DB0gowMiEHEENShRmk22rSbXVqNLs3GIu3GMu3GKq10hW5zg2ayis0WSKVLwy6y0b0i5L2K485yB3d/D5f/Ob7M+eWnXzEoFCse1Ef4lnqvuqJqaqCuU6Z3vdd6fsjc94kDWiTGFaX/4SJ0At6XgI9ENtXLI+oJwNf+tqk/HLUkfJWRmO9Rr6UqEFQNRjs0k232Nj7g7u6P6aY7dJPdq4n3Co2y7NPPHhOkQLXAk+N8RuEyMjdglPUZjvpkWZ9++ZC+e0AZBnjvKoVCT1BfeQrEbhKb2ur/OjEsQpJqOoaYlg/jeWgxahETCz5GPEIgeChKWGmts7V5i8WFdbqtrfmFdgXoL+NYat5ga/1DLoaHFGc9yrIHqUesJVRtP8aktQ2lFnxUQhZey+iLLYCVmfTohMIjOWoKCgxFZjkbJhBSRNuk0iU1i7SSFRrJCq10mYX2OgvtVZ60fkW7tUgzbZOYNg27ympna06y5Gq8lFH66gL+/duURc7Z2Tm/+vwh3cV1RmWJNWnspdZaLblKW0/jdb08yL1kW9HKYW1MhkOJwjLOU5Y/jPSrasAHjxIqP3Z9+j1fSpAb18dNbZ3IHITHksRYGl6wld95lWY3m2wvf8DdvT9lMd1jpXn/lW8rennGi49Cvc/JilNKP8BpjgsjCjeg9ENy1+e8f0RWxIh7mJ2TlQNKN8L5gqAFmhwTkgM8o4r8aRBrEEkQLFYMqkKpptJuMIjYOG/GnSQqYCwBBbUIjVjyCoriUHGgASMLNJM1dq99wN7Wh7SSTV4HDtQbAegbCx8QtKC3fsogH3A++hIXzkAsxjYJwRCCnbug0xrfZBuSMTlJaxFG/bEN0JQwEQWpog0pKPUC5wfk7gipUviGlMQ2aaZtWs02zWaLRmOBhc41Oq11Ou1FOukSDVnAShtDE2s6rLTfegGTT3k2dFyN33UIcGO5hfvgbbLRv8D9m7/mm4Me6sCmFmsUX3iCQtpIkaA477HWkCQJzpfMEsNqV0Rnr5NzjiRJ8a6MZE4bpV+9V4qy/IEAXXGunEkSjL3ZJ0h86Qejl8yxWcKfAomxeOcJXkhNE0KCL6Fhu2xtvMv7t/4XFps3WGneuQLzFz5zX1AU7nKOR/+dMhwzzAb0hxf0h+cxVZ73KFyfwg/Iyx6eEZ4clQKlBOPABsT4CLhqgA5SI4uGsRDRWKJIxkY9WqXR3aQcFfHcoMHinSUxTVQU54dY42gmgpaGYthiZ+d99jZ+TCe5xXrnndfiqr4x0q/Xuj+m7064GJ7QG52hfkDaaOCCEMLYplGYtcHQp6IoYQrq042rSoNiqwkZb49cKEWIkxUgVD3EqE5iGOdhOALJBJEmosukdplGY4l2c4l2c5VOc51uZ5PF9iZDf0xCh6ZdYbm99R0X5x/c3fq1Hd1Gyu2NRcJP3idg+N//9f9JVmQgjrJUTACbNjACgUCSJIgQe8dFo9mISK1lbdzLVpt3IqiGSf+21KRXQwDvfiiTmBD76SWm3+flbC+fQ/Ua+ryUbWzCV4UQQmztE4OG2H2CNjA02Fi8zlvbH7PYuMm1hftXk+wlGUE9w+KcXnbCaDSkP+gxzPc5z39L7vfJixFZMaJwQ0o/woccrxkqeQRvU6JSgq10+ce1bwKEJvgGonY6a6Q2i6p/Zso1dU5G9VinBk8kkQZVRDwmcZEM5wHfYW3pFttrH7LYus3GawLmbxSgA3TT62ytvsvp+WOOBhcQPKIepAQTLmEjKar1xHeleqXPiHclwFP+2Drz7HG61ZgY6oz1RXzwMbWpBVaEwjkG+RmnPYOhQWJatBqLtFtLtJpLtNJFFlrLLC5s0O2s0TRdrDQxNDCkrPzOmtZX0fmLAfWEH11fw4f7HB2d8n/9u//E/tmAZqOLqFCWGaIp1toJmGkFbAZ5ek5JrUGdSm1OZ/u4x93sPihFUZKXnmZqX/AGHqJ16jOY6M/O/syD+phMVwG+gDUWV3oSaZGmTUKeIqHL5vJb3L7+AVtL73CtewXmf6zRz55Q+BNyvSB3ZwyyE/rDE4bZOcOsxyjrkWV9ct/HaR+vOV5jzRvxMahJQvWzn7DOtbpvrCFIEBSDCRajDbSSO0bGNfI5AJ90Wuhcvme8y+YgHkk8EhQxgUQK8AG8pWEW2dt6j62199hZ/Oi1umavJaCXro+GgkZjdQawri3cpwg93to9JP/miPPhIyRRjClQk8WJNgNy1Uar0zqgzCYfmbW3VJ6TO43TTXSyzRmVSZURA8ZEn+sQithvLJEV7FUpvZJlwkU+Ztq3aCaLMXpvrdNurNBuLNNpr7DQXmWoxzRklbX2nSs2/R9w3NpY5J//0z9hMBjy1//hv9DLRzSTNsGXeBdIkg5eFecdjUaz8hl/Ttpaa25rIlXbWAWXCiIGHyDLcr45OOXu3sYL/XsmXujE9Ps8mW0WxJ/2R7/cMb3iEBiDLxSTJNhQ9Zp3dnlr+yP2Vt+jZbauJtQfYTy6+JRhdsRgtM8wP2CQ7TMsDhjmB4yKQ3J3RmCASgZSotYgZiHq/Gs9qzTe3Kb6BeP8ZpzLUmUqKzlhTUCT8ZOqOno9EzoG8zBthZTpQTHOqhjtWxuDNaHASMBILHs1zAJrCzfYXrvLte67r921ey0BPW4WjUvvW2newa+f0x8eMhwOcf4Uawyu5vokE/aSzPwMpkaGq2arMkteu7S2Pv1uzLi5uNZWQfT3MGIw1hKCR7Ws+o3ja4cQnbWCetAS9UOy8oKL0QFCgiElTTp0Okt0O8t0Wut0G1s8avw3Oq1l2q0VGrLMUuPGlfLdDzjWOg2uX1vmX/7Pf8qwP+Tf/81/xXlhodkgc4r6AjEWTFQ3x0yNXabmLXOgXrHgn5JtqTgaISjZKCPPXnzrmnMlzpVTpbiZPvR61A3PJsfVzVnGJSdQH2gkLUJpKHNltbXNnb0fsbf+Hh2zy0rnztWE+gFHUM/R6FcU4YxR1mMw6jPKLhhmZwyzUwajI0bFKVl5htMBmAxMjtgSMeO6tUUxSCXpLxP+ZzVHgxK00vWvAotp86bMhk8qgI8lStH5vgjG6fapKNFUcVGZNkdamoh2EDVoGJMuA8a16C7c5Prmj1hZ2GOhpllyBegv8x+VPFu1rdtYI3N77G58wHnvmIPzf0RDHhm8RmeBvNowpYrQpRapT4wpkKkzlsxvYDx1whwbVSBmkpIcR/a+qreLqdKVGjdtHbOahcoLuzqhGg+SEwi44Mm8p9+Hk8xiWcCGZTqNDRYXtlhe3GGxuU2n8RXt5gatZJWtxedvmKp+sgivxu8+bq62WWxuMxz+Bb3eBb/45WcUXkmTBoUrCaqkaZOy8jC380HupaBILWqZRuqxXTKQZRlZPvoBsl1lJO5V9UkRnbN5vWy+y+V/Q319VPhuxFKWQipdrm/d4+b2+yw2rl95mr/o9HlxwrA8JkhB6TOybERenjEofku//Jz+4Ize4JwsG+B8Tqj6xBWPpDFtHcloviKfmQqoI5k4VOJHWg94RCawraFutysT86GacxGGEpEi/k55VidFnH91sJ+Cf3wVCS0kNKtapkO9ARq0zCYb3ffZXv2Qlr08k+V9TlGe0m59V27SFaD/QDH6s8dG511KHXJ965Bh/pBBkRMkQHCMwyS5LPVeN86oi2FMj5hz7PdLTsU+GlEYiSdWMTJR1tKx4YaG6KolgjGCGIOZQH+YZAV0vLhUCWYa4fmqjuT8EfngnNPB19jDNs1khcXOJivdbZY6Wxxe/IJOc5WG7dBMFmjYNp3GFmkVwV+B+feL1D96d4+8+JeMsoJf/OYLaMRr7lxJs9mOCcLxfBhD4TyHbIrkk2h8eqcgRlAfyPKM7AfoRfeuxDkH6XQDnabR9TlLLa6FSQ1U5Kk1Y6wlzwvayTJvbb3D9Z07LDQ2rsD8hQzlePgZngyvI3LfIysuyIoLLobHnJ4d0R8eMiq+welR1NCorqeYMd+nMs0xJpa6FUJV70ZM7O22BoNBQ4iHTK1llGq+BCKKqid2DVVAL1Pwjz/7KkIPk5d5emevL4pppK/zi0YDgkM1R0OThl1kfekW22sfsJjcYr1zebrd2iZt++o6cyZv6nTfWfgJw5V9zvuf8tXBBT5oFCdgtrucGfpRXXtaJ0A+If+I1k6WdRstYdqPq5P0feydNNRJTohijCJVW4ZMXtNXPcFhEqVNXyf2YSIWVSF4wRBIUoeQE7xSBKUoHzK8SDnudWiYDq10leXuNt3WNZY7Oyx1dhgmR6TJChvL97gizH3PSH2tg//4Jocnf8bFKOOLR0cYY0iTBOdKMAliDBJq+uX1eETnptGEVGliOab6CpVBS1G8+Na1sbjHRMyGGjfvKQiRp/4O5OmyU5VeQtRgpcHWxnXuXL/PamcH0YWrifM9x1H/t+TunMJfkLtzevkhpxcPOes/ZpSfkLtzSj/EhRHWBMRWJRCtsYBEYmlIBB9C1Q9mpgFIdb29V0JMuoP6yetcds2NyOz+KvM7zLNOs/VnyYxFr1AXbmIC5kiBMQ7IEd+k01xle/0em8v32Vh8/7W99smbPPEXG7vsrv6Ei4shh8NfoTJC1cbaCxpTP8ZVaabKgxqmJDmVKRlOwiUpono7UiSDWGtj2rw6zKqGSZpKZazTTSUaUrVzVMCOxOdDNArRsZe0CMj4fUdinQal9DnWKCYxJAKiHg0OFzJcOGM0OuZ89JBEFmklazE939liubvF0fATFtprNOwiDdtlsbl31Qf8HcadtQX+4qcfMBj0Gfzbf8/j0yGd7gLnwwIvSpo2Ivu3qlGrzGeZtEok6iQCMkItpjeVuEwge8Ge6GeDJ5Q+j7V+MdHOVHR2U9ZQbazNKir3VeZIJ9GTyJhcqohKFArxDXBtNhfvcGPzp6y236PJNksLV3Xz32c4n3ORPSRQUPoho/Kc3vCQ3vCQ04vHXAz2yd05mTvD6wBMgViPSQKp8XgfuTkmkngmbbrTbGCN7hvCjPzwOPMiNR+CiX5STfxQ5vI607q31sCf2WpmHcq1TkSulzkFZmyIw4Q9b8RiSCAskMgGa4t32Vx5m2vd19vQ540G9GsLP0KLBm5PufjsK7zN8C4BSfEh4H1B0vSodfgwwlgfWZjamIjDxJnkJtuXqjwj7T/1f46pJ6apJqkTSaZpymmv8dRHO/h5JdBxislXr1sltIxWCkpKCHOPr/qe1Ti8DgimpNQLzodf8bBvSU9aLHSWWOqusb54h/XFtzkrvqRll0htl5Xm7d8Z3K/q8PDxWysMfv4RZ+fH/NW/+38ZZj0apkXmx1er8v4mpjO1FsmIRjAXFIKj6nac0Mu8KmWAYRG4GLxYUtyoOKE/PEeNJUgSVbaMr5FHFcRBaEFoo8ajto+KJ4RYN7XGkNoEQsAXBaIJqTQwfoWF9C3ubP4515d/xtbCj67Q+fcY/eKEnvsCFy4YuR4XwyNOz59wdrFPb3BAVpwRZISYEqRAEzfNLlbpc/VVfl3G98y3JOpkj5rTz5wpPkqY7H6YMZrP5JXkqUOqcsk2KWEqWDQ+NujYuKhGTq723UmGVEIVdPlqv4mBUXAtQr7AUvceN3d+xlLr5msflCRv+sLYWn2Podtnb+tdHuz/fxAqGUH1JKkFUYI6xMqsLrWacbFpMoF1JrX+O8HdUwmlp4fMHFmfdVy4XORDZh45n8HSSnM8GBchQwLee0pV8iyh55rsH39BQ/8Hq4s7bKztsbq0y6A8pGFWaCebrLSfX2+6qsPHcf/6Bv1/+qec9zP+6t//LWm3FTfR4KtOh0pwpfJkG7uvmbmIJmZv5gQ1AO+VrHiREboStMSFosJvE/dSqbnASqjJLiUT73eVAGJJ0gaoUhY5VgyNpImWKaFo0k42eGv7I7ZW77G9fAXmv2s0fpI9jFF5+Q3Hw8/pjQ44Pz+i1z9klJ9FN0lbYJuxZStoPgXySttcJ+TeimD7XF0BvXQ3k1qQ8ZzV/3vdruO5U7cgGksDM7U3Gmc9tZqDTHrbfaydi42gH9ostvd4a/d9lru7rLZvvfZzJLlaJrDY2eSt7R9zcnbCee8QNRkiJdaWBOMqG8cU1UYVoScx5TlDlJOnAPRVGIrig07qsUmaTEoBRTGiDAeUXJCdfs3h2QLNdIVu+xqry3usL1/nvNilnayQmEXW2lcmM88aawsNbt/c4i/+/Gd89eSET78+pGkTsjKP2RRhjgg07ZwYt6dNUow1tvg4IHLeMxqN6I9Kuu30+88LDSgeF0pEYp10ZuudKVoGwNciq9iZYa1FnaMMjsQ2saaBCw0assbm6h2ub9+vlA6vxrNG7vr0iq8pwxkDd8h57wmn5/uc9o84H55QuBHODwmaI2bcTlbgfBHFVeRZEs8v6V6lMWsgOqdrIDVLXp0qFo4d1IRp1wehSfBNmmaJ7Wu32Nu6Tct2sbZxBehvxGbbeZdCz9i7dko2+ltG7jGSeHwYYIxgxeJclGXVykBCKj75tHb+6hHIYo1Lql7RgDEGIwZrItEuqIeQQxji1eBDSpHvMywecj78koOTTdqNDZYXdlhd3OW8/ZCF1ibXuu9cTarL5lm7wbv3bvK//a//gv/jX/8VT04GpGIJMzFU3aFM56iYNZ+2CSU+Prp0nsFwxHFvSLe9/L3fawiOEBxlmT+t9vZUerZSA8PPRHTqI6s5tSYa1bgEExZZW77Dresfs9TeZeWK0X7pOBh8TmBA7k44G3zD4cnnnFw8YJAdEPSCMkDuxyAXsIlibECq1LMPnlmv+bqexssaeIz5Q1O3vvlDpAZfAbpE8JZp1C4YjFi8b4BbYHl1l72tuywmayQ03wizqytAJ/bCrrV+xI3NwMX5CY+PzynDOYEcCSmIhZCAtCZ16Vkwf0WHCEYihASN7HnvPUHCxNLTGEOSRK1tDYHgR5ShwJV9RuURljbHZyu0m+sstrdYWdzjcPFTlrvbtBtrrF9F7TOA3kgMxXu3+ObPfsJf/dv/wNB5SqXiCStPm4rq1KVMJNYoa9T32AUheO/JsgznX4w2f9CSoAWlG01qm3qJCpxUhFDVSBqVKVeK4D1GFGMSgrPgmqwsXGdv+0M2lu7SSW9clWRq43T0gCKcMSyOOB8+4aL/mJPzbzgfPKFwpwQGBC1wIQcxJI20mh8B1QrEq2tgjNb0z6cp9pc6i6hzBj7y9CFSJyvDjMv/TFovlCh049p0G7vsbdxjo/MWhg7d5t4bMYeuAL0araTLW0s/52LnG4b5Q04GB4g1lUKbwUgDtFHVzv2cKUtNXe5VGhWTXiRmIZSxx3aYbMoqscxrhLg5pwo40AJ0iA8Jo3BKNnzE2eAL9k+jr/Da8nVWl3c56X5Ku7lC0y6x2XmbN70VrpsmrC62+Yuff8zR4QH/z9/+A0UQxDYqsY267vm4aD1Ptqw3DsVr44JnOMyqzojvP0oXtblLN6pFepfpuFf5A3FT06HqoBhVP02kCRQJ3fY1rm+/z87Ge3Qbd2i/hkpd32URHgw/Z5SfczF4zMXgIeeDrzjtfUnuDyn8CV6HsSxjIijboDjNcCFgrMFaU2VVovNeDGClMvKp835e7kzi7B4a5jSKxvNsEotMDo+h6uqJ7HdLQ1bYWX+Xvc37tGQVofnGdOhcAXptpLbJ5vJtLjbfpvCHZFpQuCK2ChmJm6VctrHVo5dXB7BUp6l2MYIRE9uSwnSJaTAEbwkCxgaMhOiOZKIELRQgBZgRGoaMwjmj/mPOBp+zcLbOUnedxe4mm8u3GZYHNMwCqe2w0bn3e73Xojih8ZoAwE63gdxY5S//p5/z5NEjfvvoiEz9hAA0aV2sw6hI1TpWJ6VVcVcVoY+y0YuL0MMwAnqYRujPJm0GRFxFnostRQawUs0dl9BKNtlef5fdzXfpptt03mAwdz7nNP+CUvsMizPOe485Pv+G84tHDPIDivKMwl8giY9rjhSvDg0ekVCJuWgkLGKimYmMM2qVCtukNXY+1V4rk9RyQS8LpDNxq5SqbW5qlToWqIkZ9rHioEAwVQtxQkKX9aWb7G68y3Jjr4rO35ws4RWgz42O3WB38x690WMeH59gie1qLvjYoqPm8mjlVXQjlanykoapyt3UotOANFHbAg1ocHgpYnRuohIT4hDJo5hjkmJICD4hd0eU2Tf0yhaNi2WOT79kqXODpYVNlhe3yH2PbrrHcuvbVZm8z3HuFGsXsK/BSbubJry9mhDuX+cv/9mfc/Zv/pqHp8Mo8ytCzbInHqoYa2FLXfh6pvPBh8Aoyyjdi4nQlUDQAh+ymQhdZ2U8YNK57GtyyTaCPIBPSVhiY/kOe5vvs9y6wdrv7AT4ekbk3/T/gX72mLP+Q07Pv+Js8BXD/DHO91DJMVZIGtGVz/sKlMWCiVoAoSr3JSmTVHss2dioPjlJr49/5fNS2S9bZnF8ANHZkyvzEq+VGE6IbWyWJqlt0bCr7Gy8w8bSLQzLrHRuv1FZwStAnxtrnbsEzthZf59e/5SL0UNU+wgFyoiAYIyN/tTjdPsrOl9EBGOq+vhE4GYK6GOyk4hDCRPThDrQoFXUqIoPsdfVSsA20hi7acnIjegfn3Jw+jmLnU1Wl3ZYXbzO0sIuZ61tOo0NNheeTaSztknnNQSBe9eWyP78n/DlN48Y/Nf/zukgj+IeYlANUSRTbHXYqj5z1alkZi39GAKM8uKFicsEHD4MI6DbMOl9n5gJYabkpSpiitKgUThJUHwJuDYrCzfZ23yP9cXbdJK9N2o/cT7nIn9I4TNGxYBB/oT9819y0v+K84sDhtkpKhk2cZgkHo9CZUGqVflCKvlnkdhyFoIBCZgx41ulAnMDavBB0BDidRAzc5iIYF4ny/0+bbZ/HHCvZ961atlUkpiJ0BS0QWIWaJhFNpZvsbV2m4X0GiudN4+/cwXol0wiwyq7ax+QFzm//iKnl/dJWwanwyjeYpoYm+J8IATFjlsjtX7qfSWChYlSUz3NW085KAUqxXwCuLo/mZKaxjUtohRp1KMv4h2mwLZHBD3nLH/C+f5veXi4Qre9w+bKbbbW7jDMH9NurLPcuvlGucF9sLvCv/rLf8ZZb8h/+cUvyXyBsWnlxCdVS1oAO1UqCFWb4TiSkap3bTjK6fWzF/K+PDlZ2aP0AyQNlb6RTiI+GZsGKSSJYGy0QtBgMKZJYpS8cHTSDfaufcDuxnssN955LR2uLhvnoyeUeorzPQbFCcd9YB7cAAAgAElEQVTnj9k//Jrj3qeM+BxvLgCLNBKEhNjHb2N2Q0oCeSxrVQ2DShKJuRWAxXJYzowAlY5Tz6aqt8sl63Zci65lctS8XJvSJXvyuNQUeT6h4vQkIA1CaCHaodPe5NbuB6wt7L2RYH4F6M+J0o+HnrXuO1xbPaQ87lGUB5gmBAJKgQ8hkjHUxKRQ5TRkXtm/+jKpmorBPOMTPxXWkYkynjxldTgWrFAUMdX/RYEClYxcM9yoR1YecnzxBd3mNXY23qbX/ZqF5jW66S7d1vZrP9esEW7vrfI//9lPOT0+4VdffIP3BWnSwiIU3tcyQJe5i8f/B1Xy0jHKC3LnaSbfjz0e1OF1VB3m/OzvHVsJS4KGEu+ra10BjmiTMvMsNNfZWbvHxvJt2nbzjQDzo8EDAkOcv6BX7HN48oAnR19w3ntC4XtgL3DJGUoWvSNsgmiCklQKgeMIek6kauLoWFuLmsxcj6db0+a8xGXe7vblizCkri43SX9OI3Ukul6GAF4NNjRp2mXEd7m+/R6rCzewLL6x2HUF6M8Y6517uKDsXjtjWBxycNFHyDCmqEhCjqBTgwwN497g16heI9UGIo4pYaWKBLAT3ft55vW4J1mrSKCyZoi63kllrRBGOD9i4M4Ylo856y9wePYbVhdvsLNxj2urdxm5Qza7H/K618De3uiSf3iH/ccfc97r89XBGd4HJG2DhyQWS79lLxTyomQwGHI6KthebH+/CF1LnB+BlFFSs0b61Er8wyAEAoSAmmgaY2ggoQ0O1lfvcH3rPdYXb7K58P5rfQ0z1+ci/4rcn3A6eMT+0eccnj6gN3xCGc6jWJUdS+emVSTuK5WzslLdq4yadKx01qipUY7VChyYvBK4Sufq45cdzOelXOvcn5dxXekzN6NJLsJYJDRQnyDaQn2bnc232Vm7T9tuv9HaBleA/pyx1b1P7k/orT9mWJzSLwdgyomyV+WTghFDGLMyX6MhOnU3mpG8naT3xk5vUvP+DLXT9HTzUE1RSTAV4It1iHGIFggZqkOK0Ofx6SGHJw9Y6nzC9sZ9djePWOnssdm991rPtQ92lzn/2T/h8OiIo7O/pVeUBAyNRgevWpOYedZ1iuIyvcGQQR74vkGKCyV5OaiZEimzrU+mmvtRJc4YjS1qmiDaodta49rqfdaXbrOQbL7GV07ZH/yaQbnPef8RT44+46z/kN5on6w8QU2GbTqSpAoCvKDarA5FxfQALD6CdVXKih90wuWktfFatHP3XQLel3XlPNUC+TKBuU7n19SXuqbLULXuSQOkhS8SOo01bu19xFL7Oq3kLd7k1tgrQP+W0Um32Fp/l352wuDJMSF4rCkwNroURYnMBLDRw/yVorn/DiG62mk6T+cFKiqBnclhfxyRV8phVVQR1fUaaGgRgq/SuIqIj4YOxoPkBPVIWuKC52Q44PzBI77Z/zUbazfY3rzJxtIuHbuEpQlY2jXv9tdh/Om723zz+EO+fnLAP372kFIEFcV5X+spfsZ1qmrtg8Eo1t+/53C+pCiHKC7Ka05+fVWjHdddNanaGZWgBkKCkS5b6++xufIe7eQaS6+puNDB4Ff08kccnX3J4ennnPW/4WL4mCADJCmxbRdNd9RTThyS0om86SRSVwviUHFxDxEHUjJNn1dGUJUxVPSbuCyqrQN4mAP18TCXHA5elt1Ga24stfc6PkSKiVmMIHhvSGggLHBj7z5r3RssNd5+rfaDK0D/AcZG5w6lDri2dsTR2Tf0shLvTxA7rht6PBo3OKkB3GsD6XZ6olep7QGzrkizm8e4fj4l6yiR8BMfnVZM1YBSoiHgKQGHNZ7EKpiC0g05y0/Jjh9yPvot+90d9tbfZql9jU5jCSmGjIomRpbotl/9ers1wvv3bvPk6Mc8Orpg/3SADznWJBN7lstS72MGfOkDg+EwCgN9z+F9SemyCDRU9q5S1c5NBCEN46yBIXgleLCmyWJrk53N91nt3GX9NUt/Zq7Paf6AQXbEycUDDk8+4+j8C4bFY4JcYFslmBwfSpx6NEQHPSPjljLAhAlIRRvcdMpJERB1VcReiQsRKiJcUh0A0mqdOWbS6JNMymV6GTIFdK2BpehLFIToBNS10jeYtaOK5R4hMv19sFzfus1bO/doJKtvPJhfAfrvOHYWPmRYHrN77V2+PhzSy/oEX068d+PGZqp0cuD1itJrC76+STzVyzqbEkPN1PIQiXVCU05EIeKtSXR+0shc9T6ASaJwhgWhwPuCoetT9A/oDx9zcXrAevcGmxu7rC3v0EnXQRXvV1+LHvUPb6xw8P49Pv/6gH/3n/8OVwYMkZEw+Yj18qsU9dyH+BcC6J7CZehc1mncsiY6tu21Vao9Anu3s8L25i3Wlt5ic/H1AvOjwS84L79k/+grDo4e0hvuk7lTnPYIMkRNThnKmHkyFisGH2JnmY9HIawJQDY5iY19xCe2oMGg0pyYjYz7raf+4znYora2mEbjkzp7LSrXeTCvMeIFUD8Xwf+x95rAWNvg6VT7uLPCkNgmndYKN2+8zVJrk9X2lSfAFaD/HnHqQmObnY33uBgeMBg9IfgMSajMEIB5MYc/yOT/A6bCLokCok0mNWKOnQJ51YKj48yFjFCTV4sy9tQakio6iRuOtVH1LKgScJFdb2JvuzMCYchxb8Sgd8LJxSM21q5zbe0WK4t7BALd5p3XQuLx5t4af/rTH/HNk0P+/jdfRiZ05Yo+jmPkkkOXc54szwnh+8+NoB7ny5kDndYiPVWFMHaJM3GTNQusLu+yd+1tri9/9FrtAA/2/47D4X/hoP93HJ8+oj84x2uBSQJiAyIliMerj5+LietBxuVgHZvseETKKB4kApUwiozb1sZfMxH0mJgaU/FReKiK1MdXRsLc+pyIStRAfbxHmWmk/q0BiPxB99nLdzad+ByIGjQYmo0u13fvstbdJmEBc+UJcAXov8/Y7rwLvmS4ckr//IhBCZ4exmSIje1YkZx02cm4NmWfy4L/NobqJT+LPgPgn6W9PY2mpwdzec77kFo0MI7GQwUqZtLHPqtEFaM6xVeSlBo3oWBqhhHV/Tqm3Um021QljB2ViBujSPRtdpKRNM/pFf1oXJE/4KD3JZurN9lYvcnqwgGdZINu4+YrnX67u9Yhv7fL8c8/ZP/xNxwORqhtUXowtkFs+g4YFKMe0YAVQ6mW3rAg998vQnc+x/mCMlcIKahDTASHoIrHYUwA9RgRrDShbLHceZe3Vv+M1fSdV97ZKsqzfsogP+Tk/BHH5w94dPILBuXXkSiYaOQN4KNyG4oRsDaN/g8hRE6IRAdDEalUTAWhMad4NlZmHPNOPE/3kI9tQsdrLUHHh+GJpejYJLwepUstqxPXpo4PE5PfWSsTXkqYq5fc5NI94tuDjOe1y1WtlxhUk0qYyMTspzoUh0FJxKDBYnWRa0vvcGvzT2ibt1jtvH8FUFeA/h1AffEjfDFkuH7Mg4OCvvsakhKSgEqO+jrz9BmzV7+F3HTpQqh7A8+D+Xwdm5lTuxAuWZRMFrp8G+N1xm5RJ/U34WnmtUqtbU3qqdqKSBWSpw4VdZOR4KeazXVf8HGvezCeXE4hAdEGo3DBaHDA0fBzVi+us71+l63l26x0jmmYNVaa77yyafj3d5fpfXSHL754h7/+z3/PkAQkQU1CwMSyRVBQT4pHDARSLoY5Wfn9AP0i/5LS5xSFoqSI5BjGSnGBIFFwwYzFSdwCLbPH9dWfcmPpT9lYfLVJcIXPedj/BSeD37B/8ksOzn5NP3sU+R42zB2ka4CkWlFoBIPFyBRHx3gmJBDS6sBTc20cr5mnIuY5MNVxa1u9bU0nWvtTvYdxH221f0yEZGZT8qJhVotNZFZoRmdT3k/br871XsizgF1rH8bloK4YAjaq3kF08MNV79FjK1LgcnuX6+vvs5reY6Pz0RUwXQH6dx+pLPHWzgdcjA4Znpzj3AhjSjBF5ck7Bkt59slVnxehzy8YffaTZoQX5hTqtJJl1frr1EhtqjPlWHluWv/pSF+rlKDW37vWsxP6dOD+rVGbPjdToCghxL5/YwVjFZWS0p1ydJ7T7x9zuPA1u5vvsLZ4g9IPaNtNljt3Xs0D5OYaf/rTf8JvHzzkk0entJotSg04FzDVZ21tgig4VyDWUJSeLPPfS68w4HGhRHHVgbBeWolagN47EttAQoIrWuxtvM3e1j02ll9dMN8ffkbmjrgYPWT/9Lc8PvoVp/0HBLkgbVbdG8/lJ8jvdESXp3gnteU5YXTPZ/rMDKDGlH0+60Ymz8jSzb/m5HUAHSvUPW8d1l77qYxgrT7/LILHt25849c2Uc5WPL6MKnmNVDCa4kuDK1OWW9tsr73DUmeXhfTNkhG+AvQfYFxbew/p5+xtv8tJ/zG+HEDoo5JHA5PLTtdz6abna8/IhGj07ZtGbWE+tUZSCC1in/hl4KyTiFomym5h7v3W63fTA4fOk+DGvekz72ccg1QbiUQW+/cZoimJtCMxxukkYlRxuOAYlhnFWY9+/4iNlSfsbJyxsXSbMgzZ6H74ys21mxuLnN69yU9//DGPjv8T52VGoIGVBmVZRMEZYyhLEJsQ1FMUBYNBwemwYK3T+E6/1wcoXUEgR0xZGa+Mr6nEaEkUCRZ8m25rh+3Neyx3t17JNV36nKPRP3A6+pRHx79i/+QTeqNDnA6RxCNafcZGX4BuVBWNz+iphzlQrGNfvV20ZoNqili3r547pZE9K5qe/l8nEb8BbdZq8eP3F2bfZyUUVW9FnSHHTlrrDN/K7XnO5ydjL2BAxWMwWNMCn6CugdVFVpdus7N5n8X21pX97hWgv6Ao3a5ybfUddq895sF+jzyUYLKqfmUuOY1Oo1eRbzu91ttOLone9VkR/XwMYGpRlV6eJqxSczF1Pud5PUnnz6cBx602NTCfnFtMTWN8CgDTCOH7fe7RL7wRW4E0Ao0xik3AJIoVB37EMH/Mw4M+p2cHrC9/w87mfUbugoV0nbWFe7xKwhPvXV/j5M/+hM8ePORv/v43JKkBk6AmZoEKF1APrWYDdRlFUdDrDzjL3HcHdB8oipygeXUQ89W0UAwWNKp1aWlJZY29rffYXH2HpeatV24tP+l9Rj//mv3Tf2T/7L9zOvicfvaQICVpI8WaBqIpGuwLEo7SyrXxWeUt8+yMXY3tHp89PhhIDdTlkkzf7Nd0G6haR+s19BlAn//+rI4XQfR59rrz29yz1t+4Dz9qUxgaEBSXCxIWWV64zbXV+6wu3KFlrl0B0RWgv5ix0r5JoTm3r/+Ii+ER+2cX4IaVwYmdS2/Np7/mUlYyC+hTURY/R1AZE1zM3GZQA/T67eJBsmekzOfbzkKNxzy7YPWpfnMBDdNIQGS6EYmp+kTrt4/bbb7/ZqgK3gWEBGMTjEhk/YpH1eFCbHUzjQTvHBdFxvDojLPBAUfnX7GzdYtM9+mYa6x03n01JpvC9e0V/tmf/5yHjw94dDqk9AXtVovSQVkGEpviK25DXpT0er1KX/07RqzOkZcjVGsRuhjwijHVoc4HxLdZXbnF9e0PWWndpfEKEREHxQkno8/YP/mEh/v/g+P+J2T+MWp7JK2y4iQ4Su9BHcakscVLX8AFHZcwJuvWcGm57Zl8m3HUnjDbq33ZT/O93PUkgMRW0qfwV+ey6vX0un06XhnzatQ8A8TniXTP+LvMEDQD9STWYBWCU3yZ0k232Nn8kM2Vd1lM770xJj9XgP6HSr137qE65Mb2e/SH+/TyASapzXN9hgyjTgksdU/rKTksemJ/W7lp9obLHj/WiQ5zT3weI/Xp2p7WjUFkciCf/g21jUNm7A5lrmWGFxAZx0yCMVoRjgIhuMjCljCxkjSSkDQEIxZXnnI86HORPeE8+5rd7Ztsr7yDMiRhhcWXvL7eTC33Npfof3ibTz//gH/zf/8NzoFJmzFiTlLEJvhQYoh67r3+AO+/u8CR9yVFOSKoq4iVlSO7BkzFsC4LWGhcY3vjPqvtmyy/IsI+x8PPKcIpJ70HfHPwaw5PfsuweBzdz+wANUWV+jUVF1XxWuBDTAGb792aWmst0/lD8TgNfhnohRmw1brL2rfmtZ+n9R4qPQ0uzwhelrqfPzroXK2e5wUc8ozHgGgCPna0WJtgSPE+pWVX2Vy5y876+yw2b1yB+RWg/zDDyCI7a/c47z3h6/0+uT8lSMZsfawW8Wq1MT6LnT6+XaWSk33eQrzsxF+nqIWK1KRzqfj6CX82MpgRcZiQdKa19glrdi49L0yjeZnj+Ez+mfACvjuoiwRsUiImEDQSs0JwiAjWpJjKMlLEUDpH0CFGEmw7RTXneHhG76svOTn9ittbH7HYukEeBmx0X36m7L2dFX7+44/45JPP+OThMUU5QmhiE1ux3uPGPjZocd9ZXEZxmlG6jFBlYqbdDFHkJviEpl1ia+1trq2+zUrz5Rb1cD7nLP8GT49e/pBHh7/myfGvOB98TRnOUDMCU6WOpQ1qCU5xvsSFEmNDLHV44Q9n1zBf+ppVf9NJ+xkz9XZ5Kn0/BWWZAWiok3flqQP9pWH4pdG84OOX+EsAv3YgmMi5yiVRewR0DV0IHqMWtIUJi6wuvsXe1rusLtxgs3P3CniuAP2HGZuduxwOc25sv89gcMKjo1+CLSoArDPPa0Br6otnbtHqOLqtt749zy3pshR67eQ9F0XrzAKrO6eZWu3NzEi9qjDb/sK4T7ZWW6v9LpVq859pUTG8ENGdsfNbbS8wRjA2xRiDBgghICa6gKm4KNFrSrx6Cu/ISsiPTumfH7K99j47GzlBhWuLLzdprttIuXdnh5/95CMOTv4jR0OPtZB7jxdDIkLQqBaX5Tn+O4rLZMUpQTNcKFCN+ocyPoiqRoEUl7K8dJ2djXssNa+/1P71RXHC0O0z8sfsn33Kw4P/wdHZJ+T+ESQ91BZ4dRhpodrAuyjsIsYgkpLYEpU8zit4Af31+i3RtM6V4ebWWc0CNcyl0Ot2xtP2s5pio15SUw+2cnn7XfaUy1pkp5lFwTwjtX7Z7zZz6XgQbSFqY3ZJBUJKKmusL99kY/kmO4sfXoHOFaD/sGOp8RZOe1y/9jHOCWeDr1BxExCM4ghhmqIONaW16vbYDqOTn1X9pOYcD9Ax8pXaIou1TK3qmzPNY5MOcWjELPTM+V1qS7GyftVar/pY/W38mGAJIdarZdLPGsVIUV+9RoIx0agm+Kq9Z9x3K6YizbwIZyeNnw3R2SvW0E2VSIh+9ApoUDASCbMScOoJ6lETMCI4HXE6eEyee3rDC7Y2njAoH7PU2mOp8dZLK0rzwe4q+z/5iE8+/YyzXz7AuQyRFsakeOexVbmmPxhSlN+to6B0xxS+R+GGiFhCMNhGgisLUtMGZ2jIKlsr99lYus1G6/5L+VmpegajT3H0OOh/yYPDX3N88SWnvYcU7hSZyKcmjImecd04VMBIJXAiSZxTPh5i5XsX0WtgNlNaq/ugK6rVmjcBGRseMf6u0T+dRnwtGZe4dEJeVB2LMhHXaQgTpszk8RM8lmp9P50Ol5pJSpRdja89TdgpqMWHTlVDN9WzTZUtm76mkep+iS6N8XdOHyehCdqc/HVpo8nK4h7ba3dZaGxcgc0VoP++J+ffH3CaSZc032Br5T1azSUG+TsxHaZToQfVKXjHNLFH1ROCwwePD57gfaUu5QiaETSP93uHDyXeF/hQErREg8O7snLCElQiqI/BP9bpBUhjsnS8OYhU5bpaHV/DZKMSU6XFRCcLV2iRmGa1MKdZhHEx3VSPDV6r6MDWzuam+qpU4V4QSzh+tiEqyGkF8jreGJhkCgK19huJ0U0ArFVsIzAonjA8PuQif0Av/4rt9XtkC0e07DbrnZfTrvXm3ho//uh9vnp0xNcnI9IEco1ZCyMWxNLr9yny7wbogYIiXOD8CDEJQU0VpUsUI/Mp68s32Vq9RzfZeSmldrPihMI9pl884eD0S746+gf2e7/CMcSbEpKSoIBPEGsQk0YwF8VUNqdxDdnK2SwFUkQKoHwBgC61NnNhtk20QkrRWAagOoxOsmJaHcIbBE0I2IkErxDV6+oBQ1zbAYxWHgqV+UmVQTNKvL5jbA6VQE518BBsXNdqqgOOxUpFSjUWEYOlQ8IKhjbGWKxJsDYhsfG7MRZjDIlNJ68RvxuMMRWZ2GC0g9WFar8osEZY6Kyz0t1lrXWl1X4F6L/XiT4g31EPeGPhLnlji3ZzDWFe/7oWhROlIiO4xzpwUE8IfkYuUvEELQk+6mmXrsCVUY7TB4cPBXk+wvuikunMq58LvIt1P685LuRR3Ur9dEFPHOEcYnx0fkJRCZX9a7URjDcDCTEbMLGKrSIV0SjuIoIPig+hOjBUFofVQSJoiPuQeQHNYlo5U82nLidymc/KYto41Ss2bggGpx6SQKDP2ajH6PEx58NH7G4cc23lXcow4NrCxy+dRvTdjSV+8vEHfPrFN5z94hN6ZYl6T5o2EY2Wvv3+gLz4bqQ4T04ZBnjNq+jO4B2kpk02TFhsrbO7eZ+1hVustV++ToHT0QPKsM/54GseHfyGhwe/plc+JDR6lT+AAYlWpIJAGNv9VpalY19yGRuYJJGsNXH/+t51o6dN80RmU9gSOTAy+bkSiaraXyc6EKIYDZXbaLXfTNJUUrm72WlebiImpVWiTxBNMaHBmKUuWEQSrGlibfxKbQdrmiS2SZq2SNMmadIiSRpYm2KlScN2sTSwxmKsxVpb/ZxgKuBOTFK9n+rwzbTNNf4vrayRA4Ecrw4hIZXua+HRcAXor9Bopl020x8uqlOUrBwwKI8JoaDUCOJlOaIoM8oypygzirLAuZzS98jLQ1wYUE5AP8P5jNIPcSFmAURLAiEeIEKJGI9IQEzN7EHLGDTUanhS9bgHBDGGxMTau2o0XwkqaDCTiN4qL0CUw1TkOqmJXIxFL+o1xrqyVuUjTTJ5flClxNFIA8aUODeiX55QnB5TlD36wxO2136EasLO4stHmPuL9/f4zWf3+fSrx/QeHpOaNlZC/OwRev0Bo7z8TjknT0HuB5QhkjsNNnqcmyYpHdaXbrG1cpeFZOulO+z0ixMu8occnv2ar5/8A8dnn1LqCZqOCJKhalGaiKTRlxyDaKhKR1kslRGmXuRiQB1T29IXZIg0Ixqlk4OC1FpFQwgYoUpLJ5OSUsxQSaURH/kiRqbs+HGEraoYsVgsIYB6rZJqEViTJMWaJqkukbJImjRppC0ajQ5p2qaRLpDaDolt02ouktgOiW2R2DbWtkikQWJarDS3o2LgD6Lt8H30Dq8A/Y0e8pK79QhCO+3STqf1XedzRsUpZRgyUXxTX2UFCpwOcGFEXowY5QPyYkCWD8iKWCPNyz5ZcU4ZhhRuiPMjQsiBMopNiI8Ab6rIfeKwptPMQwjTdLaO7Q0FxGIsGBNrkerD998Qta6VT80tirmovTp0aE1oQ8fpw8qM1Di8idkH00hIrCP4AaeDL+gNLrjo9Rlt5eQu49bqz16yuQDv33+bX33yJQ/3jxEJ+OAI1QFrlOWMRjmF8zST329eOy0p/QgXRsAIYwJWGgTXZKlznd2ND1hs7bDykvmc7w8+oZ8/5IuHv+DrJ3/PsHyESfpIMiJITLGrjo2CtDqwVnnmsWWn2upwaJnp5pjwRkx1OHxRV3FOzKmWhLfGRlknV3VjVg5s1sR0t1ASfF5l86psglqElEQaWBqIbyDaiMCddGgkHVrNBVrNDs1mm0bSpttcpd1YrgC9SWqbWBoYSRFSwBKwNEyXpfYWfwz3tatxBehvxsWzDbqtTZwfUbg+QXO8VtuTdtnu/giIVpjD7JAy9Cv3opKgBaUOGZXn5GWfYXZBf3jOcNRjMLogywbkxRDPGZjz+No4kKjOZmwEchVf1eSjWYdKlfYj3h7ExxSbSEWakRez0FUq7fyxT/I4otJJCk/HYhcT1n4F9DaA8ZTBgYsEqJgeVNSPyMvHPD4pGAx79DbPyfOCt9Z/NDlMOZ+Tlad0W3+83us/u7fF5x/d57dffMVvvj5ATIugFqzgvWc4HPHkIuPm2sLvF6H7krIs8JqDDGIqVNqURZv1tXfYXL5Pal6ePuCT0QMyd8T+xWd89fAfeXT0K/JwRKNdYNKC3GU4pxjTYGJnKm7iMBYzT+PadbUdBlO1YLkK4AsmMqnYFws0MzXvOpCNyaYpiEW9JaglOENwgrEZrTS6EmpVihJpkdpFWukyDbtCt73OQmvj/2fvvZ8cS657z09m3nvhUQDKdrV30z3D4ZCik/REipT0njZ2I/av3YiNF9qQl0iKb/hITo/vaVvV5QuFgr8mM/eHzAugTLuZduT0nahAT3UVGsDNPCfPOV9DMZyjFLUoF5sUozqhKlOUc9RKi29tR98m9LfXG1W3C0UYVJ+IzJZCUT0m/JHpmF78iEKwiC1mmJqbzWcmIcliknREkozoj7Y57K0Tp666T7IBqRmhszHajtCMsSIF5cFnMq/gLdY4YJq1BkWAeiHBT0+tIifty4BZ17bZz2dqQZNNzXOEwQiDlW4s4EA/jo0gMKA0MKAb32X0cEi3e8A42WW5eZmCcp9zIWi+9rt/4/plPnjvHe4/2mZkM9dlspZMGw677iACz5fQM61J0gRLipCxH51UKEUtFhpXKEerNCuvvzrXOqYT36GXbLLZ/oJ7j26x0/kKGQ4pVizajhimY4QAFYQesGm90JKerh/j99Esrcoq356eikHN9n++eTdwtqc0pYROvI2MB7J6kSRshLUR2AhpQ4QIUcYQZVAqliiXalTLc5SKdSrFBuVCk2IwhxJlFCWUqBCICs3Klbch821Cf3v9aVb3BZqPVUmzZDqhHx8wzjqYpTGJHjEYdRiMOwzjAwbjfYZxm1F6wDg7JDMDtBhjTIwRqZ/DW0LlkfPaUYjdqIgAACAASURBVPO+2WVmeOhTDv0U4OT91iemM2Y6Z5+Zsbu0rZDSAXawAmPAGK+GZkEpg1IDdPqQ7e4B43tr9EYfcGH5u5SjVcpvgFrV+xcafHXzOh9/fofPH+4QSOmAlEbTPugwjp8fkZ2mGeNxjLEJhShDx87WcnnpEvONSyzWXz8QTuuYveFHtAf3eLT7KQ93PmJsdlClHlamJHmXSoU+xHmcxRFVtNymd5YXPaN3jvT2pMqpEJK3vV9AdS7EFJyWJ/WcCkY+H4+wJsLoCEHJVd6FBpVSg3KpQS1col5YoRRVKRXLREHBoctFgBIhoaxSDJt/tPbBb6+3Cf2FXtZqMj16YznJL7vyD1SBRnkFOFrZj9I+ncEaqekz0i6h94a79Ea7DONDBuM2w/EhcTZwFDtpPJc2RZBxUkf+SaYOx7nr1htJOO7rER15q/x8HaaCHHraTs3dojCuwsEL0VgnYmGNa89LoTzHP8WImKCosHpAZ9QnXu8xGPU4s/g9kgxW66+X2lZQimsXV/nh+++wtrlLD+VAkdpw2Osx/hpc9CSNGSc9rM0IVYhFomyD1cUb1Mqrr31l9kcPGOpttjufc+/R79g6+IxU7mDkAFTidZEcEDKXfBBiYuLF1Dt8puszsYWdFTuRMwdHOxFlskdU1ZhZb8fX7uk/IzxFTHhddGulQ9Fb4R8DhCgQqgqlcpNaZZF6dZFKeYFK1CAKqoSqQsEusVp/708y7oq3Y4C3Cf2FpzTfyn57Hb1KYZVS411XL1tNe3SPtDog1QNSM2SUdemPO/QHbQ57+/T6HYZxh8TuY1QP0D7Ba6SctZI0XroVjMkTtfJfHi0vNEIZDBmZNljjKlAphBfR8EKl1jj0cs6vxwVNYRzYSQrhWu7CTCsjXzUJR+hFeH59ojNHtQlS+ukm9/cSeukuvYU1MrvPhbm/4FQ/+ld0/fDqAtvr5/j0s0V+c+cAEGQW+uMxo69h0BLrPpo9whBsWiUw85xp/YT52ndYqF5/betulLSJsw0OkzXWtz9jfftTOoMHaNFFSkczsyZ3l5M+dRogc61rE04OevZUT28/njliSJL/vAPNWV+xG087zTndQswcPz2uYyK+gpmMiERemWuJtgKjXQJXokQpbFAtL1AtLVIpzVMvL1IqzFEK5yiEVUJVQlJAICkEjT9ZPfO3yfxtQn97vaZLCsXCDNrZJfgH6OqYpDFgnPQZjfsMkwM6w/t0k3VG4w7DUZck65FlI4S0TuhFiYkAj/DJPBecyCsZbS1aA0qiApfsLcLTdByAyR8JHE/e03yEdQhm6fU7jJgi84/o7stZWWzpnb9diaeUQTMgzgbE3V2GZpMsS8gyQ63YIhAB5fAMhfDVHwKvrjb54OZlbj3sMbaSNBlw2OtjhCHWmoJ69iCZ6BGGDhLI4hJVeY7Vhe8xX3l9spv7w9tkts1e7w7r25+w3f6SYbyNkX2QDuDmONcBueihyMWThEaYAGmUL77tEatPmwsRHckqdjK6mf0bKae0SXcmyE1WjKOVAdI7DmLcQVPJyDm3GYPOMjItCVSZUlinXG1SLs1TLS5SKSxSLS5RiRYpBHNEqs5S9a1u+dvrbUJ/e73WBH9lktzj9JBRpU3GiGF6kWHaZjA6pD84oDfYYzjeYxi3idNDsnSAUCnIFGOziY2syJWxpJ8v2siZZEhPJxIaKZJjIdm1TK1Hw1svi2mYVcf3iHghpgHdQZ69euYUkS8QXkgHpDWkWZ9Odx07/jVZ3Ofc0vs0Kldohq+no3Pj+lXe3x5y8dMt7m7skhhD77BHlmgG2bMndGO1M2UxFmsCbFagsbhCq7l0hC75Kq+94ReM9Ba7h/d5uP4xOwe3Scw+KkxQgVNRMzNTcXusIe4MgzRW+ta6OFaY52DKY8l7qujm9QuwGBJgPKGoT1cHU6EWT3+zKKwO0GmEpEgUVCkU6hSjBtXSApVSk1q1SbXcpBjOEcoaoagy/9Z85O31NqG/WdcRi5RZMXUgy//fd2cDKVFCvtnvx+rnbodJoShFLUrHWoO7wzukjT7jtEN/tMdhf4vDwRaD8S6DeI/UHJIyJLNDjE2AxLUrJU5JylRdyzIbY0QKMkMojfDlt+Oe+za9f7RHwrudJvu8JJ8BSuUyudbT4vL7ZIxTEgxD6RKeHnI4+pJsa594POb8UpGyWqVWfD2t0IsXzvD9795gfXsbqyTj4ZhuZ0xnmNEqRM/0HDvDuyRZ7DnNEYWwwcryhdeWzIdJm0G6waO9z1jf+IJOb53MdhEqxorYm+8A2jgt9hwl7h3+bH44E7lYjKcwilOEXbxNrJ0kaS9I5FUGXbUfY8XYrwfhNdAVSuTYC4XVAkGIEGVUUCOS81QKK8xVV6hXV6iVFikX5omCKs3yKsXw2zPW08/gAJj5FkuQy8K+TSdvE/rzXu1Bwv4oJTWQZQatNVo7fXWdS7JqjdZmSseafBkX4K2TP3V660wMEiZfvgKczHr9rE1IgVIuGCgvpSqldPNkL6UqpfBayAqlJEpKgkAhlVNocxxqgVKCSiipRgHV8MXd2iQ9RMqIMKjwTefEs/aH7eFdFus9RmmXcdZhr7NOb7zDIN6hH+8wSvZJTBdrcwnbDGv6KKlQUmAJ0UZiMjcXFdJ9npAforwpjgfPWTFFM9vHWtN6kxeRV+bO7MVYjRQGFQQEEoyf/w+TLR5u/5ZxrEl1n+XGTc42Xz1Y6dJKg+99cJX/+vA37Ix66ETT2T8kew4J2DTrkaYxJg2QNqI5d57l5gWEeFVhwrErtE3pxVv0xus82P0dGzufctDdADkiLKYYkZKZBDCuxZ17D3iVwOMTciM8HdHpGjIVicnvu/IaCbOrQjA1Y8l7AJ4Tbq2XbrYeWKkQRAhRIpRzFKMWteIKc9Uz1CtnqJWWKJeaFFSNWvRmu9NNk69lvTsmydx+0NaSZYY002RaozOvMe/jm9a+U+JjYqat96EwzhjGGLI0wz6B/JfHw/zRxUGF8vFQSIGSwjvhCS8pK7zU7FQXXklFICWBkqjAPUrpYmOzFBIp9Sd7UPiTTej9ccpmu0uSZE49zRi0sWRGk6aGcZwRxwlxnDBKYZBJxqlhPB4zGo0Yx2PGozHjcUyaJiRJQpzEkySeZdmRxG+MJdOgjZiRaMwdwHJ3otwvXEwepRR+wcpJIg9CgQrczC4MQ6IoIIoiioUCURgShAHVSpkwDClEBUrFIoVigWKxQKEQUIgU5RAakaQg8QeAgCgMWVloUoie77YrVcHY9IXfo9Yx2txO5S5ju09ntMZB/yGd4Tq98QaDeIc4baN1H607BCogkBWEKKIpkGYSrf2AXGV+rpqLgvjqLUfC52x4YY91XsXx/vPEnhVhMEajrcFm2nfpLWEYIKQgjTfZPOwxTncZxx0MI843f/hK13s1Cri4Wue9G5c43NklHSUMeyN0/GzAuDjrk2Rd0jRGp5JS2GJl4SolNY81rwqoJOjH64zNIe3eJo92PuH+1odkoo0suOo4tWMsCSinJaCNxAox4XPb43bBudmQx1dYMQVKuCrceQ/Y3C88t4r1dEfhQXECidElrC443IfQiMDNyQNRJpJ1CqpFq3aJZu0CrfpFatEKJbVAtfiqFdaeXimvH3SJM+PshDVkxhUyWZqRpBlJkpGkmiQ1DIcxcZIyjhNGoxHD0YjRaEwcxyRpRpZp4rEDqhpt0NqQ6Qydx0if0NMsewqZ305i4zRhT7/y4icIApRShD6mRYUChSgijCKCQFKrhFRKAWEUUIjc3xUKIYUoIookUSApl0KiIHCx12vPB0HgvwTLlYhKFPzRJf4/yoSujWX3cEB3GBMbGGeWJE7dIkwyRnFCvz+g23USnoeHXeI4YRzHjMYxcRwzHsckSUKaZYwzyzCB1IDW01NnrolsjLMUVdLrJZOroU0fAYQMkTKcCSniRAFo/InV97AnVeBE9Uw4ZK5FH6nwpxPC/JmdOUoUhARBQBgGhP4xCALKoaRVKVCOFOVSiWqlQq1apV6vUa9VKZdKlEpFKqUCUaSIQve7tXLEYr2MmvJ8vDHCy+ezLlWuMEgalGSZpcpZEg7pZbvsH27QPthmMNhDxwdkaZe4P0Zbgwxc5yIIDJlJyHQ6Yycrp/Nyr1bnwoZXuTtSjYkjlpLGGqyxBLhDlhJq2pb3WvZZlrlqoGjJ0j32+x+TPYpJ9YBMj1ioXKNWenVqcvVqkR//4Dvc+fhLNh/ukAwTdPps3P9+suWSehIjdIlG8yzLrcsoUaEYvhrryvbwDrHZZbf3gAfrH7Ox9zmp2EGoMUJmGJtgReJYEtKdudzeVPhcfHTglYPWbT6Cme4jh16fNS2ZJnfn+y79Fs0BcApsGWsqiEwhRUghrFCvtmjNLTPfWGWutERRtQhFDUmFZvnqa0nkcaY5GCd0RylJmpFmmiRNiccp43HCYDCk2x8wGI456Mf0hhmjccxgOGQwGDAYDH1RM03Yxlq070pqa1zlnY84rB9v5RgFZuJafiuEr6yf8HlY67qds/dQzNi6CiH8vjRHWzAzTpKu/5agROLjQkAQuOQfBsp9Tymq1QqlYpFSsUC5UqZWrVKrudhYqVSoFENq5YBipNzvh05NUilJqAKiULFSLzy3tPK3MqFbIMk06+0BmXbV8DjOGI5ier2hS9TdLt1hzH4/pTNM6fZ6DHoDhuORS9R+IWfaBW5XQfuFOLvjBSCUt4r0G1fg/LRlbgKat5EMyJkE7E+ReftcW02q9ZHFeKKrq5wDkl+F3i99ZsJrJdabieR+xsLTsqaexdadfoGxADKwqQabuuDkA5XQzuAhEBKpBIGUhIEiCt0CL5eKtJoNyqUStVqFuXqdxlydZqNBs1mnVi1QKipCBYFyratmOaRVjF7ava9EToFtlHVQtCgGF2m1NLqhybI+++0HHHYfcdBdpz/aJmUfSx9LjJQjlMlcIp8oyLl5uZ0AoPREsjavCKwXErF2xqdagvCtdqz7/KRVrttjHVDPADrTBIElLFiMOqSb3OLOxiGJ7qLPDIlNn4VXpKxWjCTvXF7l5vUr7K3v0usckj2jjaolIdV9knFCKWyy1LpEtbCCpfjKKFJ9vc/2wec82v6YnYMviNmjUDLEWR+tM1QAQeDul9vHAmYO2bNdF2Ym4tgC2MBV2iIhl3QVaEQuTQzObcxKhFUI6yv4iQthCLpMMVymUTtDa+4cc9VVqsUlilGDYjDHQvkC42RAMaq89ESubd4SzytiS5pZBsOYbndEtzfgsNujc9jjsNvl4KBD57DLYDBkPI6J04wkM4yzjES7cWFumyqknHwhBMYqH6M8oX9SgMyGNnGi2zJzY5zhzFO9HNTkEJB7rx8N1U4Z0xnrTAsqMcFL+HuuQVtJakGkApsYrI0ngzYhwOo9VxTlXVEpXdXvC6MolNTKEeViRKVcplKtUq9VqddqzNVr1Gs1qpUSzUaFKFKESqECNwpU0sfJUvTtSegWGKQp/ThlkGSkqaU/SOl2+3R7ffqDIbt7+3QOu/R8td3rDxgOY3dyTBLGGQxMRGxDl4wFjm6UV2JWYaw8IgoqVO7rO0U3C2tReXKdsUjUZlYgQpGPEv2IfMJhzpOxa/mqYxO8YwuTac7I2+7MLmIESDVTMdr8xUyrS7/xpDj6MxY5fV4hMUJ5ZLh15iiZQSQghEGJFNFJEI86SOG42YEURKFL9LVqhUqlQrNeZn6uRr1eY2F+nsX5Fs1mmXpFUYwEtYKiWSo8FzXqaW3XStR6bBI5V/8Be70vGYy3aXcfsNu5w37vHuN0FyUjpHLytZOdi51J5l7UZuLUZmf6snbq1GYFSkmECtxoxWTuswWMzjnzEhUErmIxKVJCUDBkokd/fIeH25rRaMCNS4K54nnCV6DYdbFcIalkvP/udT758GMO9vZJn1ktLkVnMWliqJWXWWicIxQ1WqVLryQerPdvsX1wh7trv2f74FMI9ilWYJyNnI2mdGs6rxKNxc9S5YzoywwOYqaF6+q2wLuc4EFxKbn+gdt1Oq8rXUInRNrIW4IWULLCmTM3aNbPUysvUS0sUVAt5o8d1orRy5mPa2NZPxwyTjRxYun0E3bbfdqdLvu7++wfdOh1e3R7fXq9AYPhiHGSkqSaNNOkxrnxCRUgpAKhnJmPkFhpnVMs/rPxh1Xnjz6rzDMVenI4gqkDnEP9i1OC3MwBy4pnzAzMdFz8886MKkUuF2Vn0MUe3Ip1hlCKwBdMTLuc/gllbvuQm1pbyzgzkFlE7BwnpbCwc4AUxuGahCvwQiUpRCGlghuBViolKuUS9VqNRqNBszFHq9mk2WxQr5WoVRSVgmCpWqIUhq7L+8ee0C2QaM1Wf0h34KrtdnfIbrtLt9tjf79Np9Ph8LBLr99nMBgzihPXHk+1r6xzKQcJUiIIMUKRmIBMBJOKearXLY54cli/KCaLLp+7WZDCuZSJSXuWU06bx8Y/4ujcNUdPM4OUnf6sPeUzEafMk6YL92iAwns42+l3fTXimFbiSIvRfSkyGWJQnnfLhH8rfFNfCOvQ4dZijXaHhkQjBkNke0gg9wmBSDBZxOVSgXq1Qqs5x8J8k1azzspSi8WFOvVqRL2quNysHWnZH5+RfaMFqwqsNL6Lse9RK91hZeEDeqMd2t377Hfv0ek/pBs/QoQjZJhiZQZWo427P1IqhJJ+Lu7R68dCkUV4FznpveCna0LKKZ3NCYxYEMpjJ9zhQUYJsX3ETjcjvZ2RxGOWWzdZegXCLFdadbo3r/K/r1yie9BmPBw/4x41DEcDrJbMz52nUT5Dq3T1pZp3WCy7w3uM9S5rO59xd/1DDvpfQXCIjMaMs8yD0n3itv4zzis5mx/CZ+fmZsJFZwIwZZLMrcn9zSMkBkEKpE6ERiSu3Y4ksHOUo7M0axdZaF6hUV2lUmxQCCooGVIIWpSi59Pzf1YVNAsMkpRHhyMOe4b2wYD9vS67ex12d9t02l3avUMO+l3GaUKcuNZ6pl3lbiwzzocKKwKsdIWCENIfaMSMLLI+Ercmlup5UoYp/fNILBQT6t/UBPZkbn7eA/3xuHkEqmhn4ufMv380LktfyJz+1Gby2zNaBMoe+1ELgfJgSn8Y0CC0RaQaORwhGSLsvisIpSAMXLIvl4qTkWa9HLDQKjFXq9CcbzHfWqDRbFGr16iUA0qBpKAk1SikGoZvZkKPM82DgwHd/pj9ziF7+x0ODg8ZDEZ0Ol322wd0+iN644zhOGE4GpOkmUvaFrQVWONnNla6ZCbdoxRq5mQu3UL1Afc4utWeSJIzf2dnv2eni0Z8vbV3pMX3wo5Bxxe4mHCl89c9qwk9+5sGifbWh0LMbovpoUDimwEAVoNH6wvfHsu0JTYWoUElBjkYA0Mk+0RKUC4GVIoh1XJIvVagUSvTataYn59jYX6OpaV5FhdbVEsBl+fmXqhnshSKpbmp9Opa6Q8sNq8ziDdoD+5x0L9Pu/eQ4XgPlCWIXHA31pIlKdpqAqWIAuflnAMc8+d2FYKejEamcUMemfl58ITrBFntxiPKYO2A1GzTGYV8tS4YxyOSec251svVQldC0KiVeef6ZX7/4e9Ik9Ezr7cszSgXGjRrZymoxktN5qmOacdf0Rk/4tHOZ6xvf8Lh8AE26KCiMUKmfpNOBYSmyPRZMnmuwmanIy7paYf+qGayDGszlIxQMkBYidEO6ChxFZ3RBklAKWpSL6/Qql1mvnaducpFisEKSy9A5rc/uI9UTSqlo92nfpqyfjCk3elz0OnSPuizvdPmsDum3R7Qbg/o9mIGw4zx2AHVEjsmlTHGu8a5zqTHiqgpk2PyJcQRnj5+mCisRVozU5uI04LbKV0QcTz9vRK8wLNEWDODNDo9Vs8WOI+L7RYhw2Mx03961plH+xaGW4Nag/YVfj9Fij5CCkKRUZQZhVBRLBYplctUq1Vq9TqNuQa1WoXG3BxLC/O0GnM050rUK5KztfLX6nq+sIT+8d0ttnb32Gsfst/psd8+pNMb0ukOOej2OewNGMUpSWZIMk0qBEZ6Ti+O4yyUcgvPgBYWESqEcN8zvlVmZhacA69oQqu/1o0/WjOKb2inJGZmt99gYeeOYqdunceTrWa/J3wbLLCZl61kshCP1KHCmaNNTqDHfJkRFpSAQLrMLwVYg9YZQ50y7MXsdw1SGAJpCQNBMVSUixFztTILC00WFlrM1WosNFostOZZWmwxP1/k+kLlhW7/8y1nFbs9+Ipm7T16o20Oemu0uw/oDB8wTrdI6WLFCCVCAlEG7Vro1prJHD2nFc4MV6atRjGbUPLKPRe4SZnIg/rEY4Cx2WGz47znNQNQA87NvVwE/JUzdb7z7nUe3PmCfv/w2RJsmmESQau+Sqt+lkbp5QqctOOvOBh9xdrOLda2b9EbryGCMTJIHG7BuG6KmzTJGWBbbp07rQllXh/aKRhSWNfiNVZ4czUBNgOZTg4+QgYIU0bqMvXyeRqV8zQqqzSqZ6lXFimGdeqFsyhVeiHvueaV3x4cjmj3M/b3e+zt73Nw0KF90GF3r81+u0OnO6DXTxjFhnFsSFKwBDiL1MDJ3AYSQjU50FsLxleTDvTpu5mThM70UDTToVY5xdM+ObK4hojl9L6bRBjl/73XfdkTCn+PrcSEePLBwR6ZiM4kdTuJn0LafNI7LQ+tcSMObUgMjIx0I92eBvogBgTBPoUoohiF1MoF6tUSlWLIUqvBfKPGXLVMa67KfKPOuTOLXDs/92oT+tbWIf/y77/h89v36A4TRqllnBqGsUELhVARmZFoIwkKFQgEmc3QyjiFJZFX3QIjwQjrkryfkdnJXHx6EyQa11RO+doZ3S9IM6kCvklKzx3AxDdbkJgTT3HibGwf/68InKKZQ/CKU1v++fxYzPz5aFvL8XqtlBgJGXoCHpDSIfpd61JgjCYxmjSzDFPDfm/E2s4QdX+fQhhSiIrM1xZZmFtkcbHO8nKdhYUSrVbE/HyRhVaZm4srz1TBG6s5HN1DIClHS0THOL3LlWsTx9BHnbsMmhvs979gr/sFncE9hukWWZZgjPJjdjdTt8IxC4TVYMyMlvexrs+MIYyYnPKNOxlZCUTOlcu3gzWHqKBHJ065tzVCW+etvVr/4KVVwELAzeur/H51geHwkLsPNrhy8cnGKvE4Rdoizbmz1MtnXmp1vtX/kkG6wd1Hv2Xn8BajbA0RHfipkkUbCcZ/jpPR1vGkbqaYVpFrQWgv/jeVDHaGO3jxpgyjU7TRKAKK0RyN+iXmKleYr95krnSFc63vEgWFE3tF6xgpA18FP9/+1sby2cM99vcG7HWG7HSH7LS7bG5vsb29Teewx2A0ngDVjBEgAp8gFQShrxaV04D3WvKgscIh0CczZzHTTBZy5v/FyfGhcI05+6y9M3uS3clkdC0mzIDXenlNAoR5pkj7pL+zR8yh8ng5k9Bz/AACjJ10Ql3L38VPx58PMEJNZvrGWOLEMojdyGdzd0QgDiiFgsDeoaigVgpYmW/wZx98l2Zt7pnf/gtL6HP1KufOnufew00ONvbRIsSoCBEUkNI/+laXRjr9Y2nAeNkG6/6cA9aUcO1Ro/WMxWEOh3A7WfpUfMr05tmL4UlXXjxmfv4cE0HhXMW+4Yp8wvftU1fidNuaY8nanpzLP+YZ7DG/ZotGWwvGTLi8uYaTsBbrfZul9PrryrWjtbGMtCAeQae7y901Z/pRLEjq1ZClhTJnV1ucXZ3nt/M1Flo1mnNVWnN1ri8unp7QTeaDkSIKnuz1fbZxhUyfpV6ts9i4RKe/zUF3m4PDR3R66xhGWJzcrJBOdc6KBGNjDJmfLc72cezJPwuPnTCFGR14M/kpFUQoKTC6z8Hwc/RmjGWEFYdUw8s0SxdfSlxbWa5y+fJZr6Hw9Dl6FluqhRZz1WWa5YsvLd7uDL6gPbjDo92PeLTzMQmbWDXwkr8ChELJAGsc4FDK2RR0rIPkLXIFU5U3gUSikEQIAkAhRYokRWcCaeqUg0WatcssNq7QrF+gXlmlGLRYeiwbQTyXDWk/TbjfPqDT6XFwMGB/v8vGxh7r67ts7R2yfThgEKeMk5gsy1xck87OVwShj4EKbZ2IlSVzjeS8DBRgRTphXEzV7fzjRClvii8QnJTNmQJvxbPUs0dj5pEfMDhFxzegQD9ycBFfe5w/a7BzSqSfsWOSE4rz5AiQc+iV6xQZIx0A0TeRjKf3SaWQQoBJMTpxY2Wj6fYOsYnkxuVzXDi/QqVUePUJ/cfvn2Wu1aC5uMI///uv+e3HX9AfJoSlAjIqMBhlZFZSKJU9eSg+ATJ26mpm0goRMzflBCzNMqP+9A1n19Z67rL5husoc3Qo8Q1ej5fdnFqBHiu9TuhNP2mqlStkMbPpjy5ye2RUL478OxYH/NKe+jdRuBM5rcSdNqWQ7hSau6JNPlPhddgFVmTuEAckieZwN2Ztp8tHX25TKihq5ZAL5xZYPdPi3OoCt5abtJoVavUS1WqBS7V5CipgpAcYETIXrTxTpRSoAiuVD1zVPg/t/gEbB7do9z6l01ujfbjNaHyAkSNkmCCUcAnCuqrbTk76Jw09hHWUJufCFfrWux9ziByEF5JpDWKEDPt0kxH3t7sgE87NRzRKF14otmD2unz1HHt7ezyLsrAiollfplk/+1JeS3e4RWz36Awfsrb9e+5tfIhWO1jVRzP25joBComQynuPe7e0SVdkNlib6Zd1mv9KOMoZ1gHfrAkct1xkhEpRLS0xV7nCwty7LMy9x2L1Jo0XoBNgsXy+u0a7O6DbTej0xmxstnnwYIuHj3bY2T+kPxyRZhptJUYEIANEECHD4mTcp70QlRM3dAWClXYST4R3AZzuVHly3wuOUr98qzw/5B9J5zb3PJCPzdZeQ+mEkfGx/gVC+Nj32jvuAmFDn9r8GFWIr3VXT6PjiWP4O7e3xkFk+gAAIABJREFUXAI/0qIXs+MON/6wrpAnx+XkNaS0LiOO4iFFqVlZmecvfvA+f/2XP+Zv//zyc738FwqKe2e1goiuUqpXiKol/ut3H3M4SghFBMKdwK0sYCxkaQwknhEhZ3iN01OREG6myQyAbepNnMPQFJkQTz2HiacVveJFbGtv+fmNZ/GP2z72yIs+IWBzYjmKI3MtK8SxBr7f4jPfRxw3uDA+cTGhy7l281SKMeeM5vYnNqeK+dmcNKBCC2RkmROkUCogkCEG6CUZneGYjb0HBLfuUy5L5psVzp2d59KlFc6fX+GrhTbNSpnFapnrC1+/gmxVm7Sqf83OoMzB8Ax7+xvsd9bp9B4xSvfJdIpVDjPg+MdTFTKOYHnzpJKzX3OWwzQRWS9R6hgUxn1qyjIYH3Bv/Q9kaYSSsFT+4KW4tH3w3g0++cJydmX5qT9bKlQJQslc9WUI4VgytmgPv+Lexh/Y2P2U1G6j5BiDQRA5VzKh0NqitWtFSjX1ETiSXY4kdD0BI7olarGZS1ZSRASyTDVcZKF2jqX5Cyw2L1AJlikE578Rv36rN6LdHdIb9NjrdFjb3GZtY4c79zbYbffp9Mb0RxmZBRGESFXCFryKpK+03YwfPy5wvPccBa+1PxDLvNiwXnjFOxKKAClD710w24WzE32XI6yxx8QSa+WTE561z1Dh+jhj3wxdtdxx8eTrEc/cfvd+j6e+czEbQ3NFSXAaJb6yt8agfXEq1FTfQnoWgbGWzGqyTBNJSxQZpNQsNor84qc/5m9++hN+fH3puc8iwlprX+zWhdudAbcftPm3X/6WX334B7baPYyMsCoi1ZBmmigQREpMCkNrfHVupiKOuWjL8XnxRKVNSDICx6V8TFUs7Al8++nLcZYS9jXf93RWJV7AkhSnvs58gx0FytnTX88RNbQ8oYsjr3UKnOGUZO7wxUEeKL1KU47unqo4MTmYiZkSIa82LBpthiBTAhUhReiEPkxuZuFmzkZrlAQpDdamGD0iDC2tVpXl5XkuLS/zvcvXWG00WZivMVePuHK29rU+4cPRA4ztk9o+w3SP7YN77LTv0umvMUr3yGwfI8duti5yFLADPeafmbLGjXxsgCWYSMxaobEiBpkAsTsY6BBpC4SijtAldKKYqy5yZfXPuTj/c862fvhag6DOYlQQ8TL6pu3BZxyMP+Pe5q+5++h3jPUOxYok1RnamonCIliPb0iQ0qICh5lwAcLL9lrlKssJ5Wo6crNGYk2ApEqp0KBeXaZWOsNy9Ycslr/H+flvhlS3Fj5/1OGwN2Znp8P9tU3uPVhnbWObnXaX3igh1gYjA2wQYKVCu6OdPzhLt9NM5o7SEyyG8ulDTvBESrmxpDHauQ+azInceDS/FCGYYELlE7MbzlfyQkwZAeKUCfGkhyceF2tmI9sTZtbHatrXm8z9GMbO8NmPx9ZjBCL7mJb7aYw4jvWLZ6nw+eedFzgG61QNQ7eOHWvLTKjGUjj9A2UyCtJw7ewC/8cvfspPf/I9Plhtor5GZ+GFJ/TJCXY45u7WIf/wz7/hX/7jV2x3BlhVIMkMMoiQKkBrd+KcVJ3GIrz7mBBiehqdnQ/N9JaskKQo9GxP8VhiP5nnT75dOWmf2m+chF8m0vNUANvjXrOwM9uWSS9olrw2fc3iWFU//T3paS3Kd0uErxRml42dcSk75XAPWGTg9NWNdYEXGyC9Il4uG+naVm5m72aGOUdWg80oWGipEquteS5dWuXa1fNcurjM8lKFWjXgylLjuT7PTMd04zUkCcYOGOh9djsP2Ny9x0Fvg1HWJjU9MoZYlc/YM1dVCkFgAqSeUqpcMhczCT0lCDVaJ1gdoiiBLmCykEAGjrfKKu9f/r9ZqX/A2dYH8CdmG7E3fMBu/xYPtn7F5v6H9JN1CIaEkcKYAG0CdBZgjAIsSgmU1CASNHpiuDLpCk1ylj9WCYk1AkyIsCVC1aBSPsP83AWWFi7SKp+nKi4xX/n6qP2v1nfpDobcf9Thq4c73L37kIdrG7Q7A0apQVuJVRGowPcMfBL3kwIjxAQQhXWMELy0cJ7QpVAuOWs7cfWdttjtpCNhMb7ydqDUHCR8hDgmjpJoT48RUxktK06vUI/HmtMDkj2SSt+E6jwfhZ3svJ7+Ru1z9EmPDoDFkVhnJyBk4fEOAi00qU3dGM6PdgMhUBiEzRAmpSQ07129yN//7V/zk+/f4P3l5td//y8roYNDd360tsd//Pp3/NO//icPNnbQQpJZRRaUSCiQZpogDJBCoDPtzUqUFzvJdZZnZz4zuEPh7ROEeGxT6NmWmD1NOuaFVdYvtv/xbO/PPuHsaR/zDPZxXYHHNPWf63XnymwwNcKYpSGdYNLbmWDmDhHSCgIChDaEwlIpBcw3ypxbXeD6tQvcuH6Jc2fqVEshl5v1x4jbPCUB9b9klHRo9x6xtX+XnYM7dEZr2PAQURiiRRfNCKkg0nVkWnYHT4yz8hQGQ+ZAddLhKaywYOREL9xaDx4EhK5QFpf4zpWfc27hJ5yrPX+l7pzg3ixNaYC98Rabw4+4t/5r1rZ/Q2rvoaIhqLFrmpsiwhaxuuhR7flcMgORorFkwoG7lLAo6apbk2UoBJEKkRTRSUgoWtTK51hsvsPy/E3mKheYL157buvXWGse9ZyGeaeX8ODhLp9/8QV37z1gbfuAzjAjySx6MgtVXofA98o8TsRMkoU4lljsEQqp4Bg24HEFiDimrmE95/yZe4ePS+lPCln2a8S/133ZJxc6z/EuBcd05Y/fEp+4J/fdTKGaUjgBNC0EmRAICVkyRpqMUmBRNkVlY6rK8JPvvcff/+3PuH75PO+e+2Yyyy81oYNzPbu/2+XTL+/z//y//5PPbt9BywKxqjAWFVTo9G6zLCOOY5RSlApFkjhxE3Ip/VqeztjFzNz7BIXy7fUnfAkEDv2MyZx0jtAUA2jUiiw2q6wsNrh66SxXL65y+cIK51pVWuXn5xEP4jad0X06ozU29j9nY/9TuvFDCLvIwhhLjEiKiKzkqW8ukWc6wdgMIQVBqFxNZY8e9mY3nDQFAlunEpznyupfc2HxR1SDBRaqz44TeBMT+vboAVvjT3m4+Qc2dm8xTB4ign2QQxAxSiiyLETYIooSggJTnEKGIMUogZGKJEuwOkNJQaQU0gpIJTaTBLbGXPks5858h9WFdylHq0RymfnKledO5Pc7Q/Y6MQ/W97h99yF37j1kY3OLg26fcWoZa4H2bA4p5RH0mfFmJUKKV7YXXoiOlbBvw8pj0/xRoLQ4pfUuvDaFsTNdyUmFLtFCkliHBVFWUwqgIDKywQGNguC//+wn/OKv/oLLZxe5utp4AbfzJSd0gAf7I4Zpxr2HG/zPf/hH/tfvP6aTBGTBnFOFsxZtLYVCEakU49HYyzaKmVPtSbUet6blGyJo8PZ6FVvM+GpeSVDCIkyKyWLQCUpoSqGkVSuyND/HxXNnuHLpPNeuXGR1ZZErC/XnckcyVtMefckg3WKvd5fN/S856D1gEO8yzjpIlSGkRptsYrXqRkV2IpgkZTCV2jxx8rRIGyJMiSwOWZw7z7WL32e1+QEVefm5k9KbdKduH/wDd7Z+w9rG5wzG28goRqgx2o5BaIQUE5cuKfz8mMyj3ROvt2/RQiCFQhJgM4WOFcoUqUaLtGqrLDUus9y6QqW4RKQaGF1mofbsEru397p0BykPH+1w78Ej7j18xL0H62ztthmmFisUBoHW1rXVZZiXZ9Nk7kFQwNFE/zah/9En9Flsljih/TGDorczTfqpoQbaWlKjCZVA2QxlU2Q2ZrVV42//6kf87C9/wA+vL1MthC9mVbyKhA7w4GBEbAybWzv8f//4S/7xlx+xN3ACJcaCCiOsFKSZRqkAIxwS0M5wTXOK2oR+4UR4sai36+/bssWkE23wE2snBGM10jpDBWU1ZCkSn9znqqyuLHHx/FkuX7rM5UsXWF0uc7VVf+akvj+6jbE9hukOncEG23tr7HUecpg8ZMwO1iOylfIGLsY6RUihJlxofIvUzfhmzGCsxOiAUIVIUurlJu+c+zsuLvyMRnTzhHDOm361h3cZ6y1ur/8rD3c/pNtvO3lSaf0jIC3aZKhAYXGgL+GpT4gMbOr+jJN1tiZAmALKVCjIBRrlcyy3rrDcvEqjfJaialGOzhE+42elreX2bo9Hm3vcvnOPO/fXePBwg629Q3qjhGGiHSchiJAqxHqZaTcBnNIyT4+or7Bd+CJak28T+mOjjT3++ZyW0Cedw9mpu5h5Bpe7AmUROiEd9rh2foX/63/8nL/84XtcW6nTKr84V7ZXltDzgHyvPWB9s82v/tcX/OO//46HmztEhRIqKtAdjpxRYbGE9lW79e3MaVLXEyEJx9nOgVVvrz/5LSbASuGEiEy+BsyEoSCxDpUvJWjHexfWIoyhVAhZWVrk4vlVrlxY4NrFec6trvBnV84/9d/NdEw/foREk9gxw3GX/d4Wawcfsz34gmG8Q5IdIuQQFaZIqafUFhOCicCGjh87URI0E1yBMRBFATrtYXTGmbkf8M6Fv2Zl7gOWKj9+I+fjp12d4Rd043XWd25xf+OX9MZ3EUohVUisLbE2qCBEBJJUxwShIDMxxoyRUjuFYeH9rq1BmAiTFhCmTEHWmauusty6xnLzGo3yOUrhIs3yO88ce75sD9nb77O2vsHd+w+5d+8BDze22Ov0GaXG+R6oEGSIlcr5IejcU8JOwLqzCV0cM4Wy9sU6OjxTpf6NIvLb6/Hxxp5Q/Th+mJo1+5qdsedudIHQhCJDx0MiCX/2nXf4+U//nO+/f5UfXGi+cNRB8KqX3uVWhbP1IqVilUpxjn/+t1/x1cNHpDolkpIMiTUO4u8ESTzyWnAEg82R9vvbxfet2GDWkmntFS2dtvpEbtJOA6+jlgWOFa4cpbETZxw+7HBvs8+tT+5xcaXG9Svn+fzqNstLLVaWm9xYaZwKpAtUgUZ5pv1dgQvzUK6eoT48z077C/YP7zBONsC0HcKdbMJrcXSk0L3WPKF7dR4rDEhNnI1QKkaQsXf4BcF6iBJFAtFgoXLzjb83B8OvGGVbbLU/5u7arxgldxHyECkKIEqOY+296XNlNAcedPKljmYlwQhsJrFaEZgaJbtEo3qOpdYFFhoXmKucoxytMF9595lf2621De5sjljb2OXu3Qfcu/+QzZ09+qMxmXHyxkIVQQRonNGO0TO0TuUd062dOB4eJ8E+XQnjZZZJb69XcViyp3Rijgt1zeYniUXoGLIBc5Hgh9/7Lv/9b3/OezfPcnOx9lIghMHr+IgKgeJHV5sUgptUyyH//G//ya0v7pAIhQqKJGQoKTHOV8Ff3ghjorlujiFE317fhu3lqEpeMjGningQivTCIxaBtprMGBQSpQKEKmC1YawNW52M/XabL+91WfzDAy6cW+D6tbPcubTM2dUWjXqRi42G1/9+/HVj4b9RGNRolZc5mLvAfuc27cMvGYw3gSFB6NatA8qkrgmX+3d7ZUIrNBbHN1YiQgUltEnZO7xDMVogkvMIwm9Eu3rZl7GaYbrLZvtz1rY+ojt6QFhIkFKQmQytR1gZIJXCEGM8OBwypMgQSBQKkYbYVKJMREFWqBbOslB9h6XWJRbnz1ItzFMIVik8gyCMBT66/TlrG4/45O4+t+4csL61z+5emzjJUGGICsoIcEqIRk7Mn/LBnvPjEd5TwtOhjD5yIMsPmhPBK/E2Hn2bEv0kidspxkvmWgBAJDIWaxH/7Uff46/+6i+5duUs7yy+vDFa8Do/kg8u1igWrlGvFahWIn7/+Vf00hhpFUo516oJ2clORVDEEb63eJvSv0UbSfr/BBJjNUb7c7P09EYrvZ68cnNbxMRKM5+/WyIgYr8/5mAwYG27y8e373HuTI33bl7gxvVz7K4ustCocamxgJKPT+yXKt8lLb7DXukzDmurbJWX2N67TW+4jtaHGFKnkiicctxEzCL3ep4IhUiMDhGiiApSEt1hc/9zAjGHkqU3OqHv9D9lp3OH+4/+wF7vNrIwwEiNlAEWQ2YSkBkidBazmfW2pf4gpmyE0gVEWkJlFarRAouN8yw332GxdoNyYZFm89pTD+/aWL7c7NHuHLC+sc4Xtz/nsy9uc3dzSHsUoVFIGSKLJawQxLmksXKCOsYXCFLM1FkWjNFYY/xIgCNaGO5s9rZK/tNsCYqn1ou5nn4uZiOFd7EUDri72qjx8x/e4G9+9pf8+XcufS0q7R9FQs+vd1aq1MuXqFQLlGtF/ut/f8z+MMZkGqkiAhGgPRhF5ObddspNfpvOv00bzGsT4Co8OWm345QecWhjYwxBGKIChTaWNEux1iKlcpoHOIlRIyWIiEQZdrpDttuPuH1/k5UPP+O9dy7xwfs32DmfsNiscW3x8Y5HoSqwXP4uJVFhvnielfq7PNr6nK39O4zSbYzsIuUILYdoEi884/XehUKpiCwxaONQ81JJrJEMkzYb+x8jRIEoqHGh9eM37pbsDr6iPbjP2s4n7PXukdElCg1xZpEEEEisSbDSAQcFGrLM6a1TQOgI0jLC1CgxT6N6luXmRVYXLzFfv0it8t2JHOrjrn6acW+nz85en6/ubXDrk0/5/PZX7O61Sa3ABBUIijNKht5QA+2YCHbKWpbKJXUzoaJZpJTIMACjnSDM8Sr8tVTl31wzQ/C2Yf/kzpPr/km/XnKNAZnrnkwSuVsXUjgMD0ZTDEPOLM7zV9+/wf/5ix/xg+urr6bkeZWguCduyiTld3d2+ed//y/+7de/ZbPdR6siRhZItUVbiVSOA5p5hTkJKPkCzFnexIbOU/SVT9w2IU5/jlktZmsfGw5O/GvidJV4e8prmbaeZn9dHHmuZ1lmJ973MYCR8KIDglkHivzBHpVyFDPfn33tXt7W5PKLTqcLYSzCOpR8YA2RzJivl7j5znn+7IMb3HznLAutMquNKpUoeuox8tHOJ3QGD3m49TsOBrcZ2Q0SdshkH6PGGJH5hB4QiDJGK4yWCBsSiAhJ6A4pmaCkznL17M+5euYnnGv+aFqR6vi5XMBe9HUwesD+4CvuPvov7m/+hpRtguKAzI7JbAEjFFakCJWCSkEkXjZYomwRpavYuIxMG9SCVc40r3Nx+V0W5s5RUHXKlStPTObt4Zj1gy7r2z0++vQef7h1m/tr23T6KakOQEaIIAKpMTbl6MTbni6+dMxpcDb5PVPePrbO7bOs+edO1fbZf/rYxhQzBt+5d+VkD9lTQGAzMeT1HV5ez3Ep0wapFEopjDForV31LaWX7tUEUmCzBGE1kZIINAGWKxfO8jc//xk//8lNPlitv7LX/cbAw6tRyE/eWaZU+hn1ep1/+rdfcvvhNqiMKCyTZhabaVQUog1kSUa1Wnanf5PyrbrEsdO1tScCiYEJN1bM/E6OyJUnEr49VenRzh4exLF+SP5cQiCknCTgIzPFmd9/aiiQ8qnhTyI5JuA0mVfZXGosfy/iKIBJ5HK4wmKkk920KIxx1pXSOOV641/v9mHK5n/e4g8ff8aN6+f4/gfXuXHjAivLTS61GlTDxyfTs0vfoTE6Q7VS5dHuPGu7t+iMQsKwgxUDUgZoG0+8CpzUrUEqwAZorbE2QwUWLdts7H9EEBQQsszZufcAXmsyB0tn9JAHG7/nweZHxHYPGY5ITOIUHJ13LFLh5uiJQUlBGJRBK3QcQValXjjHmcWbnFt8l4XqRYqyRSjmqDzBJKYfp3y5ucfdtU1uffYVn3x5n42dLnuHY2ITIoMKhAUsoQdOJjixmuOp9BSNc8vU3exEkhZPTWgm34un7ZVTkr49dtg+DrKbPM/s8wk56VA+JUwc4ctbvM2nme4J17WQJw7cjz2czx4j/oQTvQCC0MWCLEux1ulMKCX92EUirHHJXKeECqfJruA7N6/xP/7u5/zZB5e52ii92tf9plToswvl9w/3+d2t2/zjv/6SL+5uMsoEGSGoIqkWaCsJoiJpmqBk6jS/v00VOieFUo8AdJ64w2cQuadU+vZYtTFrwPLEA8aM29VpVYoQTx+OTJ7jcRW6AYmaSADPGu5YMfUntzOuU7OMCCt8MheGTGpPPQlc+9cEKBsirURagRIOfmn1GGGGhCJhrqq4cG6R9967zvvvXuedM2d598L8E99Tb7jFIN2hO95gY+82azufsD+8i5GHBIUYGToxFWuNMyKxFmwBSdG72BrQEULXma+8y3uX/p6riz+lWmy94l05XTmZjtkefMLDnd9x+8F/sNf7gqA8IChoMpu5lnZQJE41WTZGKksUhARCYtMQm0YEtsFC9Qrnlt5jdf4GtcIZKuEq5ScA3vrjlAe7XT776j4f/uETPv/qAdsHfXpjzSgTaBkiwzKoiNQIMu2pQxgCmzmw0qyb4ymGTce/N6sKZoU82W5/SoX+2E/zKfv0yJz+1C6bfeoJ+bQ9Z4+X7lYcObyfdog4ESdyhsZzxKs/yqJJKbQ2aJNLkvv3rTMwGUpYCgEInWCSMfVSxF/88Hv83d/8lJvXz3KtVXnlA+E3IKHbU2u3T7c63Pr0Af/0L7/itx9/ySAREJRdYg8iMiPROkMp/a1M6Hxdvutpt/t4FXAsENjjrfqZ6vup4T8PSOLJM7vZ7sGR6n7m3xHW4aEdWMVy1EFvmtA5NaHnvFKLkQYttQNB5drqRiEJXQPeSgdwsRAFklAZMAlZMkSR0aiXOTPf5IMr1/jRe+9z9coy1y8/2fUt0zHrh5+w3bnNxt6n7B3eYZRtYmQXK4aEkavO0ywly6zDj6gQYwxZYghEkYI4w5m5H3Pjwi+4ufKLV7dDrZ81C8koOaCbPmBt61PuPPo1B8MvMEEHrXogDYiQzAo0LqFKIYmCCGlDsqFF6DLz1fOcXbrB+YV3qRXOUAwWaZavPLEiv73R55PPvuAPtz7ly7sP2dzvMcjAKOfimFmBFhIrFRmWVJuJdHSAQGntNAmOxBx71KvA959PGHJ4zw2X0OVztdCful8es+fMzMH4eKcr31Zu3v+k+2ZPntLFtDtxRAjl+Ohs5pCutT7adTg+jvsTbcNbP54THujmMDyZkyHGEAiDtBmRMDTKIT/7ix/yi5/9Be9fW2GlWn4trzl4Q9LXieu9lQaRVMxVSszVq/znhx+xe3iIVWWkEkRhgZHR3hv429Vxz7Wjj2+m4xvs1Fb37KbMn+d4JXx8Hi/EyRP+TACQQiDltG1nTztwPOUAYo9VIzymXWk4fr8tj/VLsrO/m3sAWKRRCELPWZ8qOkHs2pnST9eFJDWWJLWIzGAyJw6TdgIGg4SdzTvc/rLDjRurfPd7F7h+bYkbZ5qnAjUDVeBS6wcUwznma6tsty/waOdT9rp3GOstrEiQIiCUGiuHaJuQGYOUEWEh5P9v7zyf4zrOfP109wmTgZlBDgSzRFKkqGDSQVrvXe+t2q/3n713q+7etde2LMmyREkkxQwSBJExAZPnhO774ZwZACQVXGtZEt1PFQpVBAGCM6f79+ZXmJgorrNZu4HvZfBUjtPT1/5OzooCE9PqPSKkxW7zLmtbn7J/cB/8Jl5WoyPDMNJImYxLNdrgShdFBjH0MGGGgqwwUz3F8txrzJVPk3OnKPqncL4mdTCMYj5fa/PVvTVu377D/YeP2dht0B3GaOGgMjlQDsMw2cymZZyE14VBiQghTBIi1U6SXkmr18cjpM1RaU8j6ul+8WMG7VgExXc4mualdSbHBP2oIBqDEQLxsu9Lz6oUR4eXiLGRFccR35RDlyp5ho+eXJOegdFnzEuifM+dcXHk3/9HEPKj72XSrpgU4wrSui1HoYRA6hiCkPnZMv/2L+9z/Z03OLVQ/sHE/Eci6F/P2Zkiy5UcmWyWickJfvvhpzzZamBimV7s+tvDwa8iqYB+Xcj6+ZDYUXE/tNrT9ahKvXDpfN0kLBjtd0p7dNOjrXWcWPFHD/lLLPpvK/R7mZgLcTy8nmwZfjEecFzj5THv6oVIgBEYLdLJBno83ARpQMRpnj3ZZR3HBqMljvRwMnmEUcQxtAbQ6cbsNne5v73B7bU7vPHGPJcuznFqZY6L02dQLynomiueQRdOkvVKTGSn2dyfZrf9Fa3BMwbdIcJxcDyDlDFRHKNNjKMEmAitW8QiZqt2g7w3iysqLE+d/bs8clpHBKbFweAp61tf0OzeA7dBLFoMo9GiJEEQGXzPRSmIQ0MUSHwKVPOnWJ65xEL1LBPZOSqFC187Ae9Ro8v2Xp+Hj7f57Mt7PHqyxcbOHv0gQqg8+AqtDUEkEjtMeghipEiidSJduWuIEbHGGA+EP356j20UNi8ZGGLEN7ga303Qj9WtHD2rR8/HN3nxRzx2M9qnOh6FnaCU5NvidM/n2Uc7uw+Pohr/EuZlXvpLfucXDPbR7/eqXbOjqIgwjLvNtEbHEUaH5FzBa6+d4X/86hrX33qdt09O/eC/849+ZqrvKN5/Y4lMPkOhPMlvP/iUr1bXGYYhjpflW/b/vZp6Pjpkzx+0Iwf/qBge/XPBcwc3FeKXhQRN+gCPxfo5o0E8dyGRehovrZD/thy6EC9EHY4V5iAw0qQCfLz6mLRiPamAP7yUxbEdzWKcdhQm0e7Rch8lJNo4SdubMOMNaaOogXIUyQbjpKPCSINxwPgQo9kNutTu13i0ucGtu1NcuXCGtdf6nFpa5NLii4dcCsVC6Q1yKksxN0GpNcGz/dvs1jcIwjY4DkpJtOwR64DIhCgp0BJcP6QXbLJZ+4RiPovn95ktXv7en7l+0OCgu8vm/n32Gg+JxR6uPySOA4LQ4PhZpFTEWiRrYiPwjU8+N89U6QyLlQvMlM5R8GaYKLw8vL7d6fN4p8ODR5vcuvuIOw/WeLJTYxBptBEYJRAy8Zq0OowIKSWT1ZUGRCTS0kln7InHQhBLceiNH3lwzRHDlLTK3nGmAAAgAElEQVR9bdyV9DWTu7/xMZby2//e82L4kmiVieOXhu6PW6r6u9r/R0T88HOy5MgghDqs+R/dEUd+TyleXk4oDveIvrrtb0YnsxKUAh0RxRHCxJSKec6vLPJvv3mPKxdWeOvvWMn+kxZ0ACUFPz8zjZ/38XI5xG//wJ3HzwjNEHAxf+V/42W7z83f2Sj4pv3r4msO+guW93NV5XpkUY5ygal3LVKPXsrks0grW2W60e5ozkyOv0ceN7qP/FuJ8KZrQcdh68OvjT7rdOiCMXyHtjWRrp4U4znoQhxeHSMlTuX2yCsoxleLINng9fJd6yPxF0mhmU6s7kS0k0lgWoNO86oanYh5ukHNGE2swyQPKwXCgUjFxCJCaonRBfa6mv0v6jx42OXe3QZXL9XYvbDCwkyB15ZmXwhjlwvnKWVXcDM++fwkpfwq27VVWv1Nglgj3BjphMnCEukkNQAiQDpdGr1brO0aPNf7uwh6N2hSb26xvn0nSRF4BxgihKNR2kFHEnBxlCIOJb7JMDuxzPLMJWYmzlP0TlDNXf3aNrQvnzzj/to2X955zM27T3i80aA1CDCeh3GcJCmiDVpHSegznTyHSXK80gikUQijkNogxwszDEbFRDLmhabNcYfBESPVHPkj8/xgz28fIjPOtXJYTKbHXR/pWdDxsejXsQ+S6XTSTafTjc/pkfM6sjgOx259bRprfDbT+Qx6fDb1eK7D6Jzq8ZwHc8ToP/w3D717kf5uRxaRmFExqvjmtNrf+J79a9r+xHf8e4e6k8zyT9IeJK+ZjqhOFnnn6mV+df1Nrl5c4OxE5hv+x8IK+tfx1lwJ5+oZSk7E7//4IV/ce0J9EBOpXLqmUhDFmlhrpEz6B+M4PlL6YZLxjaN1rOmAGo0kJhn9OPJAhTjs0zTp5nrxXI/qMT/y6CpXc/TxPSyoEOOwcvrvi2P+Y/IzjcGYxAocH6zRDGkpktyNTKZiO1LiOir9cHBdB89RuI6L50pyGRdHCZRy0q+7uJ6H4zgopVCOg+d5YyFPRF8iUvEXqcge9fS1TtplRsJtjCEKI8IwJNaaOIqIoogoDAmjiDiKiLVmEMYEUUwYxQRBSBCGDIchwzAkjOKkmtQYIp0UNMWxHkcWxKg4RZIK7EjwJUKqtO3mMByfeBwkBseRS0eQ5seNQIiYmCOtPSLJz+ukqyd5DUR6UenkvVBitO86fQ3CkNjECOGi3OR1jUXIfrvLh1/c5/7jJ9xfXeHKpdNs15ssL0xxeup4VbxSPguFn1MQVcreIuXMPE92b7NzcJ+hjpFZjVARERqjDMPI4DuCOOqzVbtPxq2Sy+QoZ04ykXvte7lA9rtrbHcest66y17wBOF30DIgjg2OzCDJEwc+Urt4MosniyxVzrE0e47pyZNk5DSus/BSMb+9Xmdtc5ubd+9y4+Y9Hq7v0O7GGOmjXJ8IkXjfqUCnhcYYHaNN6icaxmdXpNO9ku6s5BlK59Klgpqev6NZIJO0NCYr8tKzlq7DHRuzaZEkR84j6LEAjkd/iuTyV1KihECNzqjr4LkOviPwVVps6brph4NyHBwnubNc1yWbySTnUckkZ6tGX5djcf+2t1rHyUhhrTVxFCfnMk4+6zhGa8NgmJy/KNJEUcQwDBkOA4ZBSBBFhFHMcBgSxsko5ShOPkb1JxxbbD0yAJJzOVobPJr7kKSyDv9sNBNidMaFEYfFf+bo7o5RW605vE+PPuni0NBK8t6HxYuCQwfnaLpiNDAIITA6jfkJOTa6lJSjxYBIHSGDAEcPWZrK8e7V1/nnf3qbt1+bZy6X/SvNDSvox7g8P8nl+evMZTQVX/D725ts9UfvfrLMJTYifUMlMYknJgwo4tR3S9ZuShMjMETCSUePOcfeYCUTL9XE4phXKMRzPdvp/HCDRKPG8iyPVVknlaJynMfVkI6UHP0kKUinDYV4UuM6KrkEXBffc8lmPHLZDFnfI59LPmczGbIZn0z6kctk8TMeWU9RzLq4kvSySATfcVwc12GymCef9fHdv80jYAwEYUSj3aXT7SeXRxQRx8mine4wSkQ9jBgMh/T7A/qDAYPBMBV1Ta8/oNsf0O0N6PZ69PsDhkE4vlyCyDBEEMQmMRY0ICVCpEVP5nAGd/KhjszXPrx4khndozGwR9bxjleaHi0OimG83S/12tL31TUKR7goqdCRZqiDRKRzebSJ2esN+Y+Pv+LWgzUuXzzFO29eYO/cCVbmKi8UzpTy5yjlz5F3qpTyFVb3izyr36EVbqAZoEWYPHcCAgOe7xAN+2zWPiVXGJKZfw/di/DUAnn/b9fStt97RG34hIe7f2H94CZR/gCjBsQmRJBFxAVEVESFeTKiyFRhhrnySVbmrlLMLJLLrrzQL18fBGy0hmztNrh55wl//vRzHjxeozcIkY6HyvjEOqn0ltJN3jtzxNuRHG3gTgd9mMSDOuxJGxujRqTPRmr0jRIxiZeZLtFIPV6druMdG5PpzzVxjEDiCDluYXKkwFMK33PxPQffdchlfDK+Ry7rk8tmyGQyZHyfbCZDJpsh50kKviHrKvyMj+95uG5yJh3HQTkKx3HwPBdHSYo5n3zWx3Od/7Y8xLGmHwTUmp1E1A0MA00QGeJYE4Yh/eGQ/mBAbzBkMBwShBGdbm98Dru9Pt1un26vT38wSIzzWNMdhgyCmCAMCeMIbdKVs0jiNB2S3K+AcDAiuSdN+v6IUSogNi9JF5jUHEu3J6IPnaWjAZfUCtCkk0XFkRFChxIxnlvxfJGiTgsUEw0wCG3wEOgoRJgBpxfL/Or6m/zy+lXev3T6R6mPP9m9o795/xdkciUo3OSPXz5hu9Yg1AbH9XE9lzCOCIYBruulIdvRFq60jmaUgTIGIxWO42GEQht9JPSUWmpSovWh5T56MMahbq3Tcm+NTBeHjKsjTQw6Hgu4lAJHCRxpUGnVpKMEWc+nUMiRz2WYKGQoZD3yhTzFYpFSsUAhn6eQz5HLZshlPEqFDJ4rcZWkXPDJ+y6eq36wagIhwPcc5qoTUJ34bkZAGkbthxFBHLPXHtIPNL1+QLfbp9Pr0e326HS79Hp9eoMhrd6Abq9Pu9Ol3e7Q7Q8ZDEOCME6EPtaE8ZBYj0y31FMQSZ411nqcFzeppz2KNIxa50Qai9exTucyy3FecRSlwIBSbjKm1ZBOkjJJDnXcr2xwHIetgz57f/qCr+6t8vbl17j+7hXOnV7kzMwkBc899pqUixfRSpMt5CmXZ3m8eZP91hqRaKPFAKPDZIe4CDHC0DdNdlqr5HNLLE+cxBPJspS/xcrVzmCbfrjN+u4XHHQeEcY1HDnESIMOHZTO4Jgsjs6TVdMsTZ/h9NJ5qoVlHFOlUHhxtend/Q7Pdls8fLzFf33wMWubuzRaXYIIhMwijBqnSYR0iM1ovrpMPebkdR15nyOP+DAffdifnaSXRNLnHxvUOLSd3gJapxG7w8/qyHoWRwh8V5HxfXzPJe/75DMeuVyOQi5HPp+lkMtRLOYpFgrkshmK+cRQzuUy5DIOnidRUpBzFZ5STGTd732e99eGkJWkkM1QyGa+uxEwPp+aZn/IYKjp9kI6qagPBgP6g4D6QYtOr0+73aHVatHu9Oj0EsOgNwwZhjFDbYjSpUlxamAdXYaTtKXKtMNEHIteHm0yMPrwKy/MqUynUmqTdrUcK5oQ4+SbclQSVYxjHMdJa3ii5P6WAh2EaRQUpNScXFrgn9//Gb+8dpm3T8/8eOurfmyDZf5aPl6t8duPbvO73/+RJ5vbaOlipIMRDtLJJOsRTbq2cXRpm8M5vGCIjSBEjgtaTBqWT0Lb6ayx0W5tMY7QPhdmE2kILgnPopPRgBiDK2ViwTsKRxpyGY/yZIlyeZJyaYJSqUh5YoJKpcxEMU+p6JHzFZ4rcRxJwXfwVGJ75T2F56hXtgxwJPKR0YSxIYg07WAU8jPExjCINP1eRLs94KDVptE4oN48oHnQotPp0+n06HT7tDpJtGAYROnijSTEFhuI9Ciczzikb44UQsUm+T2Qo9Yfeejdpx6FMXFqFqbLgtIUgBxdKnGYGG0iRhEi9ABfRJyYn+Jn77zJO1evsLJQ4eJc+dhrEMVD6oPHROaAeucpT7dvs1O7S2BqRHSI6Y/nSgvh4qg8c/nrXFn5X5yb/QWDsEvG/e9vdNrt3GC99iV31v6L5mCVSNSR/oBYa1zHR0UlzCDPhLfM6YWrLE2fo+jP4MkyudzxZTLJdLcm91c3+ejTm9y4eY/9Vo9AS1DpiFYkUZSmzIRCOorY6NTo0uMHJKkFSZeoaE0UBkkKScnDxSo6TsPK6VlODYLRsB6j4yRKJ8GRqXB7LtmsTz6XIZ/LUizmqZTLVKoVJktFSgWPQtanWMiRz2fIuBInNfhdJSl6Lu0gYi7v4zuKV51YG/pRTK0XJJE4YwjDmP4wptMNaLa6NJoHNFptmq02u3s1Ot0+7W6PVrdHvz9kGEaEOkm1GS3GW+84DMAcaS8dhedTI12m4XvzXEB9ZNgdnex3JD4vUm/ccRRaxwTBECkEGd9DG00cR/hKooIeGWLevHSO3/zLe7x56QQX50uoH3FF/09e0DtBxFqzx58+vs3//vf/y4O1TVQmT2gUvUCj3AxIF52uXTVGPDcKORlAIqQctSAfjuI0o7yaPiboyW7k9JIxqVQIgyRCmghHgqskvudRzGeplMtMTVWpTJaYn5tlZrpKqZijWPDI+gpHKhwlmS1myTrqB7Pgf5oXSkStM2QYp/n5UDMYaFqdIY3GAfu1OvV6g1qtQb3e4ODggHZ3QHeQ9HnHsU4kWTqY0fpMA0YqhHKTVIxQ6DQnr1NbLbEPkwItIWS6D1SmoUTGtRcmDnGVwFEGRQR6iAn65DzBuTOn+MW7b3DtyilOzVWYmzieXw+iDp3BKsNoj2d7t3i2c5v99lNi1cE4MSFDwlijhUOR1zld/g2XzlyjmKniqgLZ/4ao13ur7Hdvc/vhf1Lr3CIwezheTBgHCJ0lDl18Oc3yzEXOLF+hkl3Bl2UkBfLPDYl5sHXA6tNtPv70Sz75/Dbr2w1C4YGbJTKKyIikdx2RtAkakhoYJzlXxsRpUVcq0CKppUhSYskbIkbpEp3WPKRjgJUQCD2a7AWOkniOIpf1mZgoUimXKZUKTJaKTE5OMD1VYWamQnnCxU9z2jLNW5dcyXQ++6O+0H9s53Ov26c9jAjjGB1rekFM8yBgv95gb7/G3t4+u/v7NOoNDlpd2p1BWmujiTQIpZDKRSgHpJOM/Y5Nek4T4zwRepkWSkrQESaOD7MyR3Lq48onkRh9xmikTPZ6SqNRKima1cMeZdfwy3fe5F9/8x7nz85ytpr/0b/3P3lBH12e97ebfHHrAf/x2z/wxZ1HdEJDaFzcXIlQS2IUsVGHwj6qjB6JN1H6eVRIkYbgRBISl4DRyfhIo2NMHCYhdAGe4+C7inLRY6ZaZGa6ysLCAvNzs0xVKpSKWbIZZ5wTny1mXwi1Wv62z0MQxnSHEe3+kDCMGAYR3U5Au92l1myxubNPrd5kd3eX/XqddqdPfxgyiDRBbIiFwkgHjUyFXo3rMkbrgKRMZiGATC4XDdGogCutwhYYojBACo3riKSqIwpwHYmrIK8irl5Y5Bc/u8KVi5e4sjTznEFn6HbvEkQ19pqrrO3cYau5Sivaw/gBIqMJTYDuTFCRF7h4+j1Ozl1htnDxr3zFjl9Uq40/8njjv1hd/z3K38HQBa3QkU88nKRcOMOppSsszr5G1q1idAZPTVDMrRwaBd0hX63u8dnnt/jkxpc8WtumGwFOlki4hFoSxILIJHlVKVUaMh3pcYTR/cQYUknkI/list0KM6ptiMdnNknYahyl8F0H33Mo5TyqEzmq5UlmZmaZnZ2mWqkwOVGgWPTJ+BJHqcTLzrrMFnJ2h+P3fD4bvSH1bj8tuosYDEIO2j22dmvs7NXY2Nxie2eXeqNNuzegP4wYRBojXaSTwUiVGIFCMUpejrpuHGFQIgm7awRayPTvpsa6AceRxGGI0RFZz8WRmmjYw0QBnquo5j3ef/cN/uW9a5w5NcNMwSfvOT/658J5FR4QAbw2N4mITzNRyFEpf8Tv/vQpfW2I4wHCOAjcNC+TlsAcKZRSIgmLHxZZGEys0VGAMTFJFF0jdIySAt9TFEo5qpMTzM3Nsry4yOxMldlKnkrRw/eTKtXJQpbZkr0cfojnwXcVvquoFF6cQhbHmtXNA4ZBxGAY0OsPaBx02dmvs7mzx+5+g916k3qrTbcf0h0EBIm7gHQ8HNdFyGT0sI4CkAolnXQboEhFPfEPlOOglEMQBgzCCNfxcP0MQRwxCEKGUvDhzXXWNmrce7TDs3fe5vzKPK/Nl8b/m3z+AqL9kPlyhlyuTHanzNr+HQ6ibaKwh5YhqD696DFPNjJMlqbJOBVybhn3Wxa4RFGHMKyRzR4K8XrnDlv1B2zsfkVMA2W6SKOJ+h45b56Z2csszrxJtXyKjFvFc2fIPjeD/fPVOjfvPeUvn97g1p171Fo9jMpgHI/QyGTZklQIpXCfi2yM/CglRLLuViS1Jsnu6RiTtq4pMSoujfBcRdb3KOSylCdKzExPMTszy9RUmdlKkWopQybjJQWknksx7zKdz9ho2A90Pis5n0ruxWfz0V6LwTCiNxjS6fVpNLts79V4trmbiP1+g/pBl/4woh+EyVmTTnIu044XJUYrTU2aZgMt1GEO3iRFtUlho8LoEB2HEPVROmJldolfXXuTX1+7zPxUiZXJ3E/mOXFepQfl/GKVqYk82XyWUmmC//v7j9hpdBAqg1Qjs9+kCzNVGopJqt+lHiJ0OG5dEXGI1DGOgoznUMrlmK5MMjczxcrSAovzM1TKRQr5HPl8jozvcG4qZy+InwBKSc4tl1/48wdbLTrdAb1BQLs/oN7ssls7YHNnl529GvVmi4N2l3anR687QKokhBvHYbLgJZ2/roQgTiuloyBGKgfPddFpG+Uw1CjpIJTDMAoYDKEfGurtu6yt17n+5us0rlzg55cOdyjnimfpddaYzGc4s5SnMFlldesW6/sPQBpyWYkR+zR6d9jcXybj5Qh0g5wzS/4bFp4I4eJ5h5vNGv01msM7bDdu0h3u4iqPeFjAV3mK2QWmSudZWXiHcvEM+dxp3OfC+vc2kzz5B5/c5KuHT9ncqdEbBggnjxEOYWjQAqRyiOI4TXMm9dAmrUmRQqCkSia+xQMwYdImGccINJ7jkM+65LIZysUCc7NTTFfKzM/NMDM1STGfJZfNks1lyHgOeV+xUs7aB/8nwJnp4wNahlHM41oSiu/0BjRaPfZqbbZ2a6xvbLG1W6PZ6tIbBAzDAVEUpzUWpFXPEoGLlAKDQiCIRbKz3MQRUhpcaTBRn7wDr50+xXu/vM67V85zZaVMwftpSaTzqj0QlUKGX106RTabwc9k+M8//Jlne00CPRz3fifWmpOMCBUSqQNE3MXEQ4QxSZhuIsdstczSwhxLC3PMTZeZKhcp5vOUJ4osVLJUcp49ga8Q5+ZLwOGFUu8FbB0MaXX6dNJCnlqtxfbO7jj3t99o0mx36fY7REYiHB+hXBzpgnRRRhLFIVonBXNKqjQPmLZFqhxGSCIp2e/2aXz1jO3tfTY3tljfuMCF08u8cTapqs0VVgBDiGKhksHz8vhuic29BwSDLVBtpK/Y3LtFxitwcvYiIYpG2KScP/01xs1xL6kdbrJV/4z9g3vJLnOTxUQ58v4S55Z/xlTpDIXcMqXShWPft90ecP9JnVt3HvLxZ19ye3WTZj8pRlROFqnStcfo8WCSxPZNRFoa0iJVjdDJIBQTD9BxD88VFHNZJkoTTFfKzM1OszA3w/TUBJOlHKVCgUIuS6mQ4dxMwUbEXiF8R/H6bAlmk3MZG8OjWp92J6Bx0KbZ6lBvdtna3mN9fYPN7R3q9Tr9wTCtbpdJy7EEo9xkUI8xaBPhKFBExIMeBQ+uvn6GX793nauXz3N1efIn+Xo5r+JDoKTg3bMLKMdnYmKS//f7D7m/uk5v2MHzcyAUQdhP+5ZBmpDJvKQ6UWVhfpalhXnmZqaYmppkqjpJdXKCxYpPJWMF/B+JSs5LjbbDTWqPal3a7R6dbo9684Bao8Xefp2t7SQkuNdo0+z06Q6HhDFI5Scz3YVC4iGUIjJJPz5S4fgZIqEJdYySCkSetb0BO7+7zYPHe/z8ncvsNM9y6dwscxNZQBAZDyUmmC2cJXtikglvnqe7N2gOAqSvaPfX2dj1mZqcwM9lEHy3sZQH7TX2m1+xtf85QXgAQQHpzrM0e5H5yhlmqytMFk7hP+fx39pqcvPOMz65cY8vbz9hfaeO9hxi1yXWMbERySI2IZBOOq7JBCihk4FGaEwUEocBAp2ExHMZJkol5mZWmJ6qMDc7w/RUkveeLJWYnMizMpWl4Dr2Qf1Hiq4JwfmpHEzlgER0H+33aB30qdUbHBy02NrZYzM9jxs7++wdtOkNhiCTAjtHKQwxDqCDPnnH8Mu3LvOv//xLzp8+wZnZwk/29XkliuK+DgPc22nz2ef3+K8/fsitr+7TCyKkdFFKUSgUqVbKzE5NsLw4zXS1zML8HLMzVSZKPqfLOXuCLN9IrA33tlvUmy326wfs15ts7+6ztVuj1mixvd+k2RnSDyKiyGCERCoX5STeQowgkhItBDqSKKNwcDBBjIj7zEz6XL6wxPu/uMD5s7O8c3IeJST7/TUcEyAxDIZdNhu3ebj7Ae3hOt1uDU+VeP3kP3F6/jpF5yQTuW9e4tI8WKXZv8dXG/+Hx43/RJkqWc6xWHmHk3PXObv49gvf83B/l/XdBp/fWuMPH93l4dMD+oFPaCTaCTEqSi6Z0fAeY5AmTlJcJiksdYTBl5DzHCaLWeanKszPTjMzXaVcnmR6ukp5ssTkZIHz1vu2fAe2Gz2e7R6ws99gY3uXja1dNndrbO832G8e0O4NCIMhSmgWqhNce+sy//TLa7x39QwF/6ddrPxKm7cCeH22SPZnF8hnPCZzHqtP1vC9LIuLiywuLTE3v8D8XJWZap7p0ssLNSyWb4oGXVyYgIUJYJlOEPJkv0et2aVx0GFje5ed3RrbO/ts7+xTa7boD6PEc42T1jbHlQjXI5aKMJREeLheBh0btg6GHHx2n/XtLa69dY7aO69x9sQ056ZWxmZr3g+QjkDmfHbq93ka3GDQP2B9/TET2SUy1W/fAhWLfTb3brK1vYZSVaYrl5ivvMPM5BucnXpRzL9Yf8Lt+2v8+cZdPrv5lJ2GJjI5jEz6OpWTtAob4nQiYpQUlZoYV0LGFVSqRaqlPHNTZRZmp5OPucSwnizmWJkq2AfM8lczV84xV87Ba/PUu2d4VuuzW2vxbGuHp+vP2NndZWtrA4nhnTcv8+v3rvOLSyuvhLH4SnvoR+kMQj67tcrGxgZ+xmd5+QQzM5OsTBXtCbB8P967MRwMAnY6Q/brQza39ni2scXm5hY727vs1xs0u10Ogh7acdF4RKHCkEWqHFK6ydx5E2OGbSbzgrcuneDXv3iTS+eWePPU7LFLqBPU2end4en2R2xu3abbGrA0d46zJ65RLZyhXDj30glynd42z+r/wc17/06tecDswllOrfyMavEClcw58mnhWycMedZssFuv8fFfbvCHP91kbbNDLIpEFIi0QksBIgYxBIZgNBKNpwTFbIbpcpHpcompconlhVnmZ6qcmJ9lrpJnpWrPouX7o94bstkY0OkMWH/6BB2HnDqxxLWLJ18dJ/YfRdAtlh/UoAwidrsDwDAYxuzt9Vh7+oynG894tPaEnUadRqtHPzBEeITaJYwkGBdXecmGAB0goy4LU3nev36J965f4cr5BSpH5sIH8ZCd3g2ebn3BzvZT4nDITPksp5aucGLmF7xsYcTT3Y/46tG/U2/fZ3b6EosLVynmT7BQeGO8+64Thjyq1fny9ld88NEn3Hu4TrNlCKIssfGItEJ5LkoZhkEbE/bI+pKJYoGpyiRzM9MsLcxz6sQSJ0/MMVP2mPBdpnNZ2xli+fufx35IPuu+cikcK+gWyw/hvaczsndaPQ66IU+ebfPw0UPWnq2zubPH9n6dg26MNjmkkycOFY50cZWAeEDBD7l88QTvv/cWly+d5vxMBV+NerkNzw5u0u2v8/jxTUwkObPyBmcXf/PiopTWI1Y3PmF96wuqMyVOLvyK5cr7x4R8o9Om2e7y588+53d/+JDVtT2iOIMxPlGYDIRxHEEUdlBqyFSlwPLCPAuzs5xYXmLlxDJzM5MUcw4l37HT1iwWK+gWyyvsMQxCNpsdBsGQ3cYBq0/XWV3bYm19j62dJgftiP7QoONkypWUEY4IObFU5fr1t/jVu1d59/T0saKe3e4dOr0N9nZ2kLgszLzB4szxCXKPNv7M1v49MjmYmZ4l655mOp8U0NW7Q/Z6PR6ub/Lb33/AZ1/eo9YKGQQghIcSEhFrMp6gWs4xP1vm5Mo8Z0+eYHlulolCnnw+w+npkvXCLRYr6BbLP6b3vrrXpDsMqB10Wdvc4enGDncfPubpxg7dYUwQwnCokdJjulLhrXNz/M+fX+TS+WXOLx9ug6r3Vun1WrSaTVynxLmTxwvc7q39mUj3mZgs4ft5pnLnxt75jdVNPvrLTT74803uP97joK9AZVAOuJ6hWnY4daLMuZMLnFqeZXFmlnK+yMrUJIWMHW1ssVhBt1gsx7i/36AzGNDsdtmutXiwusGd+894ut6gcRAQhJJJp8vlEx7vX7/KtWvXuXx26djPGAQdjIGsf1g5rnXMfusZxVyVrFc4Ei0Y8Jdb9/jTxzf48JPbPN3qEZkCmcI00zNzrJyc4fz5OVZOZJmaVEwWPMq5DCulKftmWSxW0C0Wy3ehE4as7jRo1Nvs7DZYW9vkydoGm5vr7O9tMFnI8vZbVz4cghYAAAHySURBVPn5tZ9x/e0LxwrmvpPx8GybG1/c4Q8f/Ilbt++ijcPc/BIrK6c5e+Y8C4vzVKoFKuUc52fzNhdusVhBt1gsfwserj6hVmuwWWvxaGOfx0832N3ZZH66yvV33+LNS6/zxnPe+suoNzs8ePyUG7fu8cmNr+j3+5xYWuDc2dPMzlSYmSozVS1zesF64RaLFXSLxfK9YYCb6w32ai021tfYeLpGHPQ5fWKR186d4Z0rr3/t964922FtfZ27dx+wU2+TL02xuLTIyoklZqYnWCxn8V1lX2SLxQq6xWL5e4v77Sd7PFt7TLfdpFwqsrK0yJnTJ17692/eecDu7h7Ngw7V2UWWVk5wds4OebFYrKBbLJYfFZ1uH9dR+P7LlwvFsaY/HFLI2RWjFosVdIvFYrFYLD8o0r4EFovFYrFYQbdYLBaLxWIF3WKxWCwWixV0i8VisVgsVtAtFovFYrGCbrFYLBaLxQq6xWKxWCwWK+gWi8VisVisoFssFovFYgXdYrFYLBaLFXSLxWKxWCxW0C0Wi8VisVhBt1gsFovFCrrFYrFYLBYr6BaLxWKxWKygWywWi8VisYJusVgsFosVdIvFYrFYLFbQLRaLxWKxWEG3WCwWi8ViBd1isVgsFivoFovFYrFYrKBbLBaLxWL5/vn/TPTxUzGcAAIAAAAASUVORK5CYII=;" vertex="1" parent="1">
          <mxGeometry x="50" y="45" width="50" height="40.2" as="geometry" />
        </mxCell>
        <mxCell id="J81wiMtJb4JgW4ucFd7Q-10" value="" style="group" vertex="1" connectable="0" parent="1">
          <mxGeometry x="305" y="56" width="41" height="23" as="geometry" />
        </mxCell>
        <mxCell id="J81wiMtJb4JgW4ucFd7Q-7" value="" style="endArrow=none;html=1;rounded=0;exitX=0;exitY=0.25;exitDx=0;exitDy=0;strokeWidth=3;" edge="1" parent="J81wiMtJb4JgW4ucFd7Q-10">
          <mxGeometry width="50" height="50" relative="1" as="geometry">
            <mxPoint as="sourcePoint" />
            <mxPoint x="40" as="targetPoint" />
          </mxGeometry>
        </mxCell>
        <mxCell id="J81wiMtJb4JgW4ucFd7Q-8" value="" style="endArrow=none;html=1;rounded=0;exitX=0;exitY=0.25;exitDx=0;exitDy=0;strokeWidth=3;" edge="1" parent="J81wiMtJb4JgW4ucFd7Q-10">
          <mxGeometry width="50" height="50" relative="1" as="geometry">
            <mxPoint x="1" y="12" as="sourcePoint" />
            <mxPoint x="41" y="12" as="targetPoint" />
          </mxGeometry>
        </mxCell>
        <mxCell id="J81wiMtJb4JgW4ucFd7Q-9" value="" style="endArrow=none;html=1;rounded=0;exitX=0;exitY=0.25;exitDx=0;exitDy=0;strokeWidth=3;" edge="1" parent="J81wiMtJb4JgW4ucFd7Q-10">
          <mxGeometry width="50" height="50" relative="1" as="geometry">
            <mxPoint x="1" y="23" as="sourcePoint" />
            <mxPoint x="41" y="23" as="targetPoint" />
          </mxGeometry>
        </mxCell>
        <mxCell id="J81wiMtJb4JgW4ucFd7Q-13" value="" style="group" vertex="1" connectable="0" parent="1">
          <mxGeometry x="210" y="50" width="70" height="35" as="geometry" />
        </mxCell>
        <mxCell id="J81wiMtJb4JgW4ucFd7Q-12" value="" style="rounded=1;whiteSpace=wrap;html=1;strokeWidth=1;fontSize=18;fontColor=#21527f;strokeColor=#21527f;" vertex="1" parent="J81wiMtJb4JgW4ucFd7Q-13">
          <mxGeometry width="70" height="35" as="geometry" />
        </mxCell>
        <mxCell id="J81wiMtJb4JgW4ucFd7Q-11" value="Вхід" style="text;html=1;strokeColor=none;fillColor=none;align=center;verticalAlign=middle;whiteSpace=wrap;rounded=0;strokeWidth=1;fontSize=18;fontColor=#21527f;fontStyle=1" vertex="1" parent="J81wiMtJb4JgW4ucFd7Q-13">
          <mxGeometry x="10.294117647058822" y="4.375" width="49.41176470588235" height="26.25" as="geometry" />
        </mxCell>
        <mxCell id="J81wiMtJb4JgW4ucFd7Q-14" value="&lt;font color=&quot;#ffffff&quot;&gt;Знайдіть репетитора своєї мрії&lt;/font&gt;" style="rounded=0;whiteSpace=wrap;html=1;strokeColor=#21527F;strokeWidth=1;fontSize=18;fontColor=#21527f;fillColor=#91BD2C;" vertex="1" parent="1">
          <mxGeometry x="40" y="90.1" width="320" height="50" as="geometry" />
        </mxCell>
        <mxCell id="J81wiMtJb4JgW4ucFd7Q-18" value="" style="shape=image;verticalLabelPosition=bottom;labelBackgroundColor=default;verticalAlign=top;aspect=fixed;imageAspect=0;image=data:image/jpeg,/9j/4AAQSkZJRgABAQAAAQABAAD/2wCEAAkGBxMTEhUSEhIVFhUVFRgVFhUVFxUVFRUVFhUXFhYVFRUYHSggGBolGxUVITEhJSkrLi4uFx8zODMtNygtLisBCgoKDg0OGhAQGi0lHyUtLS0tLS0tLS0tLS0tLS0tLS0tLS0tLS0tLS0tLS0tLS0tLS0tLS0tLS0tLS0tLS0tLf/AABEIALcBEwMBIgACEQEDEQH/xAAbAAABBQEBAAAAAAAAAAAAAAAFAAIDBAYBB//EAEUQAAEDAgQCBwUFBQcDBQEAAAECAxEABAUSITFBUQYTImFxgZEUMlKhsRVCYsHRByNykvAWU4KiwuHxM0OyNESDk9Ik/8QAGgEAAgMBAQAAAAAAAAAAAAAAAgMAAQQFBv/EADcRAAEDAgMFBgQFBAMAAAAAAAEAAhEDIRIxUQQTQWFxMoGRocHwFCKx0SNSkuHxBTNCgiSisv/aAAwDAQACEQMRAD8Azls0eroMDBM862NvZKSjLloc/gSpkgVdOoATJCXWpFwEAqpbOnJpXbZwedE2MOITlAqE4OvlUL2k9oeKZSY5jQIPgr+HKKkGpsNT2j41AystoyxTrJ0iTzqi4FwEq4gFGlIroTVRq4UTtV1IppCQ2CuoTU6EU1AqwmAJJgDUk8BSnJzVxLdToarKYh0p3DMAfGrj3pTy7zpWWxLHHlH/ANQ7PJK1JHokgelY3HEYC1tbAkr1oNU5tivJMP6QXTWqX1q/C4rOk90K28q0mH/tGVIDrCTrrkJCgOYSZCvUUips1ThdGyuxb0sDlSFuOVLD75t9sONKCkHYjnxBHA9xqyBWO4sU+VUVbiqjrFGMtVX0VckKBCltVCpFEHE1WWmtVN0pTgqak1EoVbWKrqFbGLM4JyRpUTgqZApjgpzUopMipDTWRTjXWo9kLgbT2yozSinGkKesiSRUqUVEHgDBqniuJBIhtYKvUDxqi4ASVGsLjAVi5dyLEmBpvTnMWaGxKjyA/Os5cXCnCCsyRSbFKNWck4UAO0UsexHNCi2SJ2H1POrCMQZuUNlAShxAKVBWhWNMs941q9ZYWtYmNO+gnSXD0oWladDsqKQ9pJmbrVSe1rcJbZcew9RUewnfupVQ68/EfU1yh+bVM/D/ACnxXo3Ud1QXOHLVsmjYbBUB30WQ0IrzABJXp8ULHNYW4PufSuv2ZSO0mK2JaFUcXalB8KYxoFiqdUJWQdtRrpVK2bGcijWXShIEO1vY0NcIWVzi5plEOrFICnGkkVrWRPQKyH7QMbKALdBiRmWe7gK2SRXkvTl//wDsczfdypHhlB38zS3iUxhi6opuTxJ57/Pu8aYXQBvPcNvAnjVBTpOmw/r1pwgcf1oMKZjRK0uROulPukH3kn9arWFi44QEIJnnWxwjoRcOJ7SkoHfJNTE0ZqsDnXhD8AxpdqpD6ZKFHK6nYK23G2YSCD3+Nez2twlaErSZSoBSTzBEivNXegriWVthYUSQpJ2hWoO/j8hWk6BXCwwph1JC7dZbM6zPbGv+I+UVl2prXtxjMW7v24eCfRxNdhOR+vv6LV5qheNcLlQOuVgLVqCYuqjlTLcqstVPpBA8pi6hVUiqjIrc1ZXFOTUbgqdI0qFYpzUkpzIp5FcaqSK61PILg7R2ioopRUmWuLRII506VkKG4g+D2UwY3VwT+prOuKEwmvR8Bwq2ftzbLRlWgkhSdFkEkzP3onYzwrM470UctVZj2250cA08FD7p+Vc4Vt46HWI4LrnZxSpg07g3n37CANitDgGHhRzL2FA1mpftJQEAwKesbs1scXxpCE5G4rE4gorBJpi353qFx7SOdQAAKEucbrK4xclLy0jgR9BSrS4rhqS6oju/8RXaM0DKFu1tAFlqMB6VIcdcJIATsf6861+H4wlw9kyK8AtbRwcYr1D9mdgpyStRhJjL5V5h9AtMsK9SytPaC9Hmq14iUmins6QNqCXd6kSJoqlItiVbHh2SzwTEihDg/e0dKZJPOg103DorSO01K/xKuRXQKeU011YQlS1bJBUfACa1rNElAOkuPlr9yzHWmJJghE7aH73HuFecYncqU4pSlFSydTEknbl+dXcTuySpaj21EqPdJnKD6Ce6q2FtZrhsLMSYJJ0EggeGpFImblaQ0AhoQd5CtyFDvM1Ywu2UtYCRJJ2Feh3WCBS3GsiQEpmJMgJMazsddhTejuDpbXMeFBv/AJckw7NDs0U6MYQpoBTgAPAD9a1VrftzkzpzcpE1RfYUUSkSANR3UPT1LzMFCCkmBAgzsNRqDNZpkyU/BaAtQvemlATKkgDMZJ5mAJPkBWfYcWywJUVdrIjMSTPAE90H0ovglssNlTqypThzdyUwMoSOA4xrvQud8qhbBTy6TsKasK5UVt7YVYU0KWqlZhRNco1cWoqg4xT6cJbyqcU0io7rEWWzC3UAjhMq/lGtQKxlkQSogHZRBAPcJ1J8q1NCzuRBIqB0UrDEmXdG3Ek8tj6GpHk0wICoGjTlqIprdSLrrUOwF57bLVSFXXcxUC8SinvIobdt6U42WYSUTs8WhQUkkEagit/gmNN3SIMZohSSNFc9D9K8os01fwR4pcJSYM1mrbPvbix+vI+7LbR2v4ezrtPlzHqOPW6PdLuh2UF62BKd1N7lI4lPMd3D6eeuGvaMIx0KhLhhXxcD4/rWZ6d9D5Crm2T3uNjiOK0D6jzHflZVLTgfn78ua3VKLXt3lK45e89QvOC5St3gFBR2BHqTAH9cqquEkhKdSTAFUsdUUQ3IIBBUR8f+1Pk9rRZC0dmbn6a/Za+4uGyonNv30qw3tlKi+MbolfAn8y0bEVu+gqSjtJ4n1rz+1Jr1boXaAMpUeOtcB4Nl6ppESVoL99WQxpIoTZWqdVHWjrjYIiguIMwk5VRRPJSmxFkFcvE9eUjh9ao3uroqnh7MPEk7VbuXB1o1om5tUHZciChWA6W9I+sJZaPYG5H3yOfdR7pxi3VW8I3cOSe6Nf0rzInfXjE8zxrQ69kplrpjxkgcz/X5VxrXOU6EEZTyUDp8wKapXb8B/X5V21HYURzP5VeQVC5W9sek6HmQVpyve5sTpsoZuKdJE7VYt3TMisvZMQ3HfNaPCHQRBrE8AEwukxxMStnglzIg09rArVpw3AbCVameEnSY560PskFOo2qa+eS4gp65KFAg6kQCOB1oGuKtzAVZvrBq4RlXmhCw4MpKTIBB1GuxPrV5JgxyAGu+nOguBIeKlFbyVIBOiQIgRl1B466chRBTnaq3GQAlOGFyMIXpXC5VdtelIqoIVJ7zwAKjsBJ8BvXnPSLHlunLBQ1qRlMkjYdZwV4DQTud61nSe7yWzh11SU6fi7PlvXl+JPqJMHQwPTwp1NqAlWcKt0KUVK9xHaUZnQcNdp/Oob27LzhJ0SOfuhI2A0jbhFWmlJRbJSf+4qVbzCYA+p9KSS2UkAnXYARA2ECm8UHCFVY3GSZSYmDvuDoRHlG1bbBL8uI7XvDed+47dx8xWSunCnUIy/eQeMp/XapujF6UPlBMg6ifhUBIHgY08adTM2SajYutqka11VIDWnEV16HYC89tn90qusUPuSKuX7mVJNY25xQlRE1VaoGJdGmXZLR2rYrtjo4Y50EscU1g0fwtYzyeNShUxFDXacN0YziddKu4T0qLS+qcOn3Tw8IG1DMTfSEkpMVicQxcBWbvq67GPb8/ceKrZatWk/8ADPUcD+/MQUZ6UWbSbhxxEDrD2AgghMjteEmT51kbxpK5EzHHiTXL7FCskg8KpWzK8oABk7frSA8BuBonnqtL2F7zVcYnhonN2oiu0QtMPXlGYGdZ9TSocJ0Ti/mt1/ZUCO0flRy2ectm4GoHOhl3jJJEVFiOKEoNchznnNd9rW8Fbt+l7iyQEJ9T+lQX2LPqEaDwrLYU4Qonvo17WTWllKRMJLqgBiVUKXQSQa7hyVKc7R1orZqKzlCZJ4CrbGCqbPWKj+V7KPEpb08TpUeIIJRUxiBDUK6S9H1XDGVJAWkhaJ0EgHQngCK8muAUkJIggmfEGvdbp1tSEtOEoS5AS6hwKZcPBBeCRlmIghPnXm3SHo8844txbfVa+4IUqRzOiROmlSZMhWaeFsHPu8r356RdZK21UfT1NTYUJlPP/wDQ/SpxYrQZUgpJgwY1jvFQ2kocPifMH+vnUJBCoMIK07KNhV63bKTIqthdwl0nVKSNhmEq03A5UVKso0E1hcYMLo0xIlH8LvEqABMGpcRwgOdpKET+IAyOR0ryfEcauWrhakq7MgZTqgwOXAzO0Vpuj3TBx1aG1wnMQCQTHfvtpRblwEhANobi0K9Ew20DLQSAkE9o5QAJPh3VXUrtVaU7KRrOm42NU1HWoAkucSZKKMq0pxNV2FaU8qqQhQPpu9FqR8S0j0Ob8qydphaneIEgGDqDRv8AaM9Fugc3R8kqJ+VULG9bR1c5hLaTOVWXVIPvDTjxqzYWTaQBmUfwnBIbyrCDpyn6017CUoGiI7hoKv2d+kJzSMvOpGsdt1nKMxPc2uPWIoAZREQsTjap7G0QRx85rPMyh1Kp1CoEcRx+Veg9JcFStsvtSCgEkR7w5EVlLw9W0lKR2lltRUQD2ZCglJOo+6Tz505johJezFK2lmvMlKuYFWVJof0eeC29OB/r5RRRaa7tEjAF5fa2/iFCcURKTWJNr2j41vL5MpNY59MKPjWTbs2lb/6Y0FrgRopsMw4ZgaOm2iIqhhCZq68sg0zZ+yk7Yxoco74acSaA4lYo6slUTFFLq4I3FZ7F3FuaJ0Aq6r5N0inS0WfVa6mDWiwd9KTKuArPMSCUnepUqUk67Uum/CZCdUph4go47i5KiQNJ0pUObcBApUe9cjGz0h/K0DN4TqaT9/IIBqBtGkUJezNua7Gs1VkiQttGpeCi1tdZd6vNXckRrOlZ9bmtaDola5yXVFtKUGAXjCM++0jNA1jTca8CltVzQtBphxWssciBl660znRQdPWa/CRmCUweGp+gfdOFohTjYZBjLcWpPVAnbrm9su2pnffjUyVXBT2DavojVCez5DVSfWlYvtgqQEFswestnBCSk+8pCTIjvRpzHEUZJk5n37ggrQ0hoIbkMwD/AARyxtc05EqB9IWlZUgHQe0NI1Q62rUXLP4tMwO5ykHUA0Ju8KYJy3Lqs+X9w6FEdZbwCk5gIKgZGvdzogltds91aZUkJU6xzLcy9bEncjRaeRHjVt9JSjMhlNxbq/eISACtAVJUEoIhSJmBuJI2FCffsexY8SmYiLA2OVwJ4RfLSDmAWSSwLEqwVtZAbvgQDIS6UlXhrlNXLHojBlQT4bjy7qPOvWjw0sy4EjthKB1qI0hSdFFP4gTtr3tw9NolQDDqmlcWXioIM8NZyq7wT4GlvE5EeP3t4FGGOE/K62rQY64bj9PkhTvR9pJ1aTI7qkNtwitU/Z/EINRt2o5UhzDN0TagiQvPL/o0ta1dk5Txii2DYBbMqTmt3XFBKVZW0FcEqOqpMcBpWwvLxtoDOdTskaqV4JGpqJtVwuOqSLdGpzupHWExHuTCRrx5CtFOZiUl4ESQADxJj7k9AJ7rp7bgWoJSxcIGxK20pSO+SrbjEHuiqRWDqkgiSJBkGDGh8qVyAVJbfxAnPoEtZG9TpKyiTHjArqHg4IYbCbdkFIcMjrFSNETuBrJO5NHAPXu+gQFsNnhrBiOrgCSTYADW54WrdWlSk1XYNSk0uEuVjv2mT1TXir1gfkTVTCrNdxbsKacKT1QSvQEEpGQ77EZTWnxfBvailtThCJk8VJgEQieBB47QPCr2F9FEW7eRhxfEjrCFCVanYCNdfOhde3NPp2vOYVLofhA6l1DhKhmgKPzrtl0buGnCE3J6oqnYFUT7s8OVdw64uWipkhpMEaqO6TuqJEgmdaJJxRCFZesSZ1gEaE8hyoJCYQVLjCktsLHDKZ8IryS9xcOhpKQQEQCTuowPlAFbvpzig9ldCTqpOQd2bsz868vt4G3xCPAAif8ALTGDikuJFlv+iL2UqE8v+a0hfHOvOMGxEpdSTtEeZOorbqNbqdYtbAXOq7M2o6SrjqgRQZ7DAVTFTlZppcNW6tizClOhg7JU1haBNXy0g0ILqqYXlczTWbRhtCz1djLzJKJvWiFaVXcwZvKdBVEXChxri79QGppnxTdEg7A7gVj7jCs1wpIMDeajdsyAoE7VdvrrKrOnehb1wVpIn3jqec0lgY8m15srex7eNoQ/2+NEtyBsdde+lVr2QDlSrTu0O9Gi2LWHn400PxnBHFxlKfWqoJ504LPM1jNS0LoCjBldbwN7jHrWwwuyU22hKGGVkCSt5SZKlaqCUlJyidJ0mKyIeV8R9aeLhfxH1pcNWhr3N08/QhbfM2khT1sWD/fMRlT4uNAEeBBFEXIUhPWqS4kQpq4RAWhWwKiNImBmTprCkgVn+iN+9CgjKs79WsxnHEJPA+OlF1rbSFPsp6sJUBc26xlCQrsqXl2Bg8NFCaW75THv9/Cea0McagByjQzGkTLmzwMlpMAgKpi12UpTHaVbPBYjQlvKlRH/ANa/lVxJZS4UtOLZdJJQVghl1K+3lAOhRmJiIMkxNZu3vmllSE3DaTkyJUohZMpS3qlRgnq20J1O5XptR8XVwlOW4YRcN8VNAZo5lo7nwjxoOM/v9LjqmiwA62kCcjk4YXDO08VZXevIP79gpI0D7HbCeZKD2svMH0pzjz5SCu3ZuEESC2QQUnY5XJnyqG1UpWtncghO7FxJKe4H3wB6d9JwwqVqcs3FH3kkG3cPxa9nN3GD40WIxP2+uXjBKHdtxYcIkcIfI/1nGNZaXN5XkzWt/wDcbGVXC3upQf8A4VmdPwme7KKe7ev6ZbFWbiCtGXyVP5VxSbkphaWLps+CVHv1lFV3XEjRTt3bDksFSB/CuFaf4qogjP09ZHge5Roa8/KAT1cfENIf+pk6uVxp+8V7tuy2TxWvP8mxVO9Q2FJ9suC8ok5WW9geeRBk8pJqBa7U6Lu7h+f+2lSyD5JT+dXLRRGlnZ9XIguPjII5RJUr1qpDuM+fkLeJR4DT+YDDzjB/3eS/wF8pTGQkyG7PqWch65bo6tRb+9ATKjpO5qJ7EELguoKWdDbW6QesdKZhwoTskaZRMeOlT3qSghd5czHaSy0MoXH3Sn3nAdoOlJF++6A43bpbKhBefgQmTCUJHaUACdTAJk0QmY8oH0Fh38c9EsxGOxH5pIHc53aceJAyEC5lcaPMEHkdx3GpCagQdNXA4ROZaYgnjoNBFNunwG54kUuocBS2MxH36wVNbOS5prlGvif+KO9ZlSVEwAJPgKz3R9mEzxOtW+k7oTaPArDYUgozn7ufsA+qhSQZunloEAIZfOt3bWZOUutgqRxkRKkeB+oFAkXCXEpQ3BUTMpTAT4nc+FM6O2imilftSF8erQg5p4JOvjqdNaLN4SUELAjOomOUmYqindkRwQLpijIwEAyoqCieJI1rHMqAUkcANfE7fL61temOVJylQLhGiRqQOauQ+tYtWHkxJ7zzJ3p9MGLrn16zWHmjXR3DVOPRGiO0rlroPXX0rYPW6huCKo9B1SlwnfOB5BIP51s0NgiDqDwq95DoUY3EwO1WTW2RURKqIYm0ttcTIOqTzHf3iqRfPKmlAoi6qudeqnF/8Nd65PKrlRRm4PKqV47m0irjjiKhcKaJoLjAQvIaJKEvWYI1oczhxBJGgGoJ5nTQcYH1o049mMBICQJKjMk7ZddOR2qrdK0rfR2cgyVyto2tjrAePv1QNy3EmVE+dKp1IpU/drNv0QpwFNAp4FceV6BdApRXQKUVUqI70YDRKkukpQR76SQUKnRcjaDxq30xuFtICFqPWSGy+hM57cwtCnNCPeRl9ec1S6MPlDs5c+hlHxJjtCOOk1UxnFVe0qSw4FJaHVpbXoFNhRUIPdmyzqIAqnQnUSQ09ffAkTlobHMXbb21wpAV1DVw2eKYC/LUgnwINFcBuNclu+plY3t7gFSQRwB3SPCfGhuC3CSuWXDbuk9ppQ7Cj3o2I7xsOFaC8daWAm+t8h0CbhuVInhC09pOvAzQWz9+IuO+y0CeznPC0/pNndWkFXrq4Bj2y3LZGz7PaSO/OO0nwM+FWWEO5D1Tzd00Rqh0gqjlnEgn+IVDh9vcNpm3fRctcEuEFUcgsaE+MeFRPG2zS6y9aOf3iOymTyWgZT4wKhMXP28x8p7xKpoDhhbeOAlwH+joezmWnoktNugytu4tFcVIzJRPcpEgjyFW7VxZ/wClfNOfhdCCfMpIV8qkt+uj9zdsPD4XYmORLZk+YrrVuHCeus2J+NMKnyyAx51OzfLy/wDJjyUc7FYmesO8BUbjHcTyXLy6umkhSlWgBISCkOkqJ4AExsDuY0pr2LNwEPPHMrQJSrITPciDVlGEsNgqDbYHE5dR5namYfhLbOYtbKMnMc0n+I6+tLfUJ4nxn7KmsY3gO4QfqVRUWW83U26swTK7hwSlqUypecyVQNcoiYoXdXtuuM5urojXRC+rnklCQlIHjNay5Ci2pKCAoiUzITmGokDXLMTHCaxuJ3t0JS7c2rUbhIUtQ/nMUynBEegj09VT3HFim+uIz3mCekRHNX7ZwKZXla6kQoJRoDtvA2JJqupZUhI5wKEYff8AZUA91pzST2dJGkBOgGhorh2uUchPrt8vrVbU2IPvysg2Z/zPaeEa+t+85rSYY3CRQL9pxmzyfG4hPoSv/RWitNqzP7RXP3bQn78+iCP9VJZmFdcwxx5LA9GrhbaT1aihQOsQZ4aggjhRbEcZuihM3JIM6JyJI4EEoSCPX86D2RhxY5n8hVy4gpAywRMmSc3LThT1ysRBMHzKQ1EncmT30xafpSbOkU11yN9ufKrSYuj/AEVvEthxJP30n1BH+mttZ3QUK8VevlBYyqiYB8jIn0+db7o7ihIAO9JqNIOJdjZXB1MN4ha3E2gpsyJy9oeHH5a+VZ7MnlWiYekVmcXsyyqRq2rVJ5c0nvHzHnWnZ3hwg5rPtbXNOIZJLSnlTS0mqQe76cXa1YQsO8dqpywihL9+2lzq1aJUoJC4kyNVaDWBr6VbeegE8gTQbDrNSnS86QSQQlI2Smdo50TQQ4YVcgtOIk6BEHKgdZEAzqZkQdNoM7GdduVW0s5Z0JTBO4BSeeu6e7flQ1WJtBWVWnIkiPONvOugHAZrlGmXGRdM9kFKkq8R/eN/M0qvE3VDuzoV1IqQCkkU8Jrz8r1SaBXYqQJpRUlUrmAqh5OsaxPKdJoq9+z9KhrckxqleSHE/wCIK19KC2BhxJ763Cb6ge6EykCCUMt+hwKMj7qHI91YQULT3hQUdfl3UVwjClsgoVcF1vYJcQCoDkVz2vMUz2011NyaHGUwtkQcveWncpF4ExmztlbKubKiie7LtHgKvt3GUZVOFY5ryT/lSJoU4/30IxLEEpGqgO8mg3mFMwGpAN+t0RvrxttyW220k7qCUgn0Fcw/G+12zxjyoCHEOQTcMjuUvKfmKgxC0ChCXUKgaZFTr4iqOPMBHDRZxWxxbESwpDu7K4Sr8KuHkfr41K2+nOnq1dlyeydgQOHId1Y9N857MWVFKiqAZ4QoEnx0qX7TUFoAEZE6ZtASrifQUBJAyVta3KQjNhjULU05rkUrKTucpO3lQ7pXbIW71iLIPLKRmILc5hI7QJ1MRrHKq+D2IS4pShKiSc3Od6E45dnrnJuw0AqA2EtgoCQABrrwnzomCoewRI1E+oIOhv0UqFoN+OhPp+3VQ25cGYLYDI0hOgPLYAVqMGGtZrDukRnqw6p/Q+8gZRGupAitNg94FapSkHiNR/XpRV31sLcbP0kHyIbHdPVIosYKj8JuYsQR6mc+XRaNqsN+0p3tsJmNHFf+AH51tLd4nQpy95II9RXln7Slue1iYCQ2AiCDOpKjptqqNeVDs5xOkeYI+qDagRTIQ0LEkzxqX2qgoC4mpGrgHetkLklFS6aiWtXAiORqtn5EetWrCweeP7tta/4Ukj12FSwuVQGKwQt1EnzrX4YgNstrHvEZlHiQrn4CPSu2fQK6WQV5Ghv2lZlfypkfMVs8P6LNoSkLJWUgDXROgj3f1JqGrTwkG/RaadCtjDgIjX3KZhN7mGmvhRdbCXUKbWNFDzB4KHeDUzbKUgAAADYDQelJTsVkYcJkLpPAcCCF53coU04ppfvJMH8iO4iD51wPUV6ZNZnEOpEkgpVH4dUn0JHlQHq1/Ca6zHBzQVwatMseWp9272D/AFxqJLmVMkwPn3AetR3aFZDIPD6iqd4qQBroNPGePPSfWimEyiPlurVwtK4zukpiS2mUgGToTurSPWl1zaU9lpITMTA3H/NCJVExUa344GKH4oTEhH8HaYKK+3j4R6V2hHtA5ilR7woNyFpEpqQJrialSK5crpJuWu5alApwTVSrhMYT2h41oTcAaUFbTrV9/CHnDmS4UpI4Ik+pNC82TKcA3Vld6BUBvifdjzIFVz0ZUffdcPkAPSKla6NpHx+cfpSrcT5FOxaBPWCpOrwSo8sqo+etPtr66bGVDlu4BwWgt/NConyqVvAUcjVhOCJ76IEDIqi6cxPghWIG4dHbt7L+Yn6tmgz3Rsr95phP8DivySK1qsFTzVXBhKRxX6mjNQjTwQgaSOhKx39lXfuOlHg6Y+YqS3wS6bJlxLgPNQkR31sPZEjifnUYZHOgdVcRBjwRAQZVDCS+lQlCI/iBP0q9i3Rr2k9aksZtiqCvTkezMgzVhprvqrdsutuB5iZJhxI4j4o51VFwBUrS4Kuz0LeB/wCu2BxCWlHTiJKvyohY9FFNGfaPEdXH+uoMU6RXeUC3tlqURqp1SUIB5BKdT51kcQt8Vf8A+oEx8PWqSnwyogHzp5rBzcMiOZWUUjiDgL8gt9fttZS2bxttRETKMw8AVVnmf2b26lBZfWtMbIyif8Wunh61kB0OuD71rb+Ti0n86vYd0ZvGSFMqWyRwQ9nT/KpIFA17G5EInse/tD30hbT+w1ihBPUlUDi69qdh7qxxqxYYVYIUpCbdoFI7SinNwkjMqTQ1q8xEt9W6hteoPWJISrQzqmY4c6q24ug26FW6ytwmTKIhR1M5uVC+pORTqFJrQSRdbJuyt4Cg23B92EJkz4CraWgBER3V569izyFIIRGSYAOmY6SfLTzNd/ti/mJUE67DUQKtrHORujgVu7h5CBKjArtvfWy/dcKjy0B9DXm+LY4t1rq1BKQSNQVqVp+JSjQht90e6sLH4tfnRimWm4BUDGvGZHSPVevOvoTswVd+b9DVReKJH/t0D+KT+VeeWnSd9v4x4HMn0NGrTpwFaOJQr/KfQ1rp1qLe1T9Vgr7BtJ/t1p8lo3MXXMJQ2P8AD/vVS+uEkEraQryg+tRM4zaL3lB8D+VFlmxCRmcmeAJPyFbW19miy5L9g28OgystfsW6mzIW2TyOYA7ig1xgY0CXkGRICjlJ/r863TuIYeP+2Vx+E/6oqo90jtwZTbJIG2fKD+dIfWo5tK27PsW2Cz228PsFljgzgSAEFUDUp1oRf2IAIKSFciIPdpXoB6dRohpA8yfkBWWxu9L6y4U9o8EiB3AVz/h6ZfJcc725rsf8jdkYBYa/ysh9jnnSqdxFyST1a/l+tKutiavPYXo8ldSIXQz7AfGzyvMCl9i3Q2dHmK5NtV1b6IylVTJoEnDLwbKSfL/epUWt8OCT61UDUK55I42mtBaYg8kJQhjOmPezZY+VY23F4Dq0n1/2o9Zt3a05SoITyTv60IcGm6KC5aVeJoQmXylB5BWahy+kBXow0pf4ldlP6mm2uAIBzKGZXNRk/OijbQTskCqdWJyRCmOKrWQePadUn+FI286u56jBUUqGUAzoZ4VGLRR95XpWao+pPyiec2+/knNDYuYUqrgTlkSeFcLsb0xppudInx1q2lKU99Y6lLa3OGF4A99UL4/xUIVmGmvlXFoA3KR409SVHaEju3riGANYk8zrWxrSAA65UCTSk8BPfECpFJFPApEUUFSVEWxTCyKsgV2KohFKqhmulqrQrpFVCqVVSjmagu8TZaSStcDbaaIgVE/YoWIUkHyqDmrlYr2pKySkggkmoH7dCtxWgvOhzatWyUH8P6UHusCuW9ocHzrWHsORhJhw5oK/bDbhVZVqPCrTyyDC0lJ7xT0QeRpoLuqreEIabZXAzUDlufvJoqW9YGk0TTgRIBUqmtZjQO2sU81kQzB7Kinzowm6ASAXCT40ZRgCOJJq43gTY4UW5VN/qeHshZo3KPxH1NcD44IJrXNYU2PuiphZtjgKmBWf6pUPALGhxfBs1Iwl4HMW9BwrY/ux8PyqG6umwhUETBiKvdpTtvqOEShDQCgFc6VZZIvfupVHDThSosbdQsmB2i2QQOdPAHOlSrlrqJ6Y51II50qVSFcpyVDn9asMvgcfrSpVIVSr6blPP60hdJ5/I0qVSFcrvtiefyNL2tHP5GlSqgpKi6xqZ4+BqT21HM+hrlKoAFYKd7c3zPoa6L1vmfQ0qVUrXftBvmfQ0vtBvmfQ0qVFCGV37Sb5n0Nc+02uZ9DSpVWEKSV37Va5n0NcOLNcz6GlSqQFJKX2szzPoaX2wzzPoa7Sq8IUkpfbjPM+h/Sl9us8z6H9K7SqYQpiKq3N/aOCFCf8J/Ss5ilna7tlST3AxSpUbRGSFxsgCrgoV8QFED0kXoAgUqVamVCAs76TXG6vMYkSAVKjwH+1TKxNHFxXkD+lKlQGq88VW5YOCcnErfitZ8jThitnxznyNKlVEuPEq8LRwCeMasx9wnxBp39orUbN/Ku0qHACjxQm/wBp7f4T6UqVKpumqYyv/9k=;" vertex="1" parent="1">
          <mxGeometry x="40" y="140.1" width="320" height="212.95" as="geometry" />
        </mxCell>
        <mxCell id="J81wiMtJb4JgW4ucFd7Q-20" value="" style="rounded=1;whiteSpace=wrap;html=1;strokeColor=#21527F;strokeWidth=1;fontSize=18;fontColor=#FFFFFF;fillColor=#FFFFFF;" vertex="1" parent="1">
          <mxGeometry x="60" y="150" width="280" height="50" as="geometry" />
        </mxCell>
        <mxCell id="J81wiMtJb4JgW4ucFd7Q-21" value="" style="rounded=1;whiteSpace=wrap;html=1;strokeColor=#21527F;strokeWidth=1;fontSize=18;fontColor=#FFFFFF;fillColor=#FFFFFF;" vertex="1" parent="1">
          <mxGeometry x="60" y="210" width="280" height="50" as="geometry" />
        </mxCell>
        <mxCell id="J81wiMtJb4JgW4ucFd7Q-22" value="Знайти" style="rounded=1;whiteSpace=wrap;html=1;strokeColor=#FFFFFF;strokeWidth=1;fontSize=18;fontColor=#FFFFFF;fillColor=#91BD2C;" vertex="1" parent="1">
          <mxGeometry x="240" y="280" width="100" height="40" as="geometry" />
        </mxCell>
        <mxCell id="J81wiMtJb4JgW4ucFd7Q-23" value="Text" style="text;html=1;strokeColor=none;fillColor=none;align=center;verticalAlign=middle;whiteSpace=wrap;rounded=0;strokeWidth=1;fontSize=18;fontColor=#FFFFFF;" vertex="1" parent="1">
          <mxGeometry x="210" y="210" width="60" height="30" as="geometry" />
        </mxCell>
        <mxCell id="J81wiMtJb4JgW4ucFd7Q-24" value="&lt;font style=&quot;font-size: 16px;&quot;&gt;Що бажаєте вивчати?&lt;/font&gt;" style="text;html=1;strokeColor=none;fillColor=none;align=center;verticalAlign=middle;whiteSpace=wrap;rounded=0;strokeWidth=1;fontSize=16;fontColor=#333333;" vertex="1" parent="1">
          <mxGeometry x="70" y="160" width="200" height="30" as="geometry" />
        </mxCell>
        <mxCell id="J81wiMtJb4JgW4ucFd7Q-25" value="&lt;font style=&quot;font-size: 16px;&quot;&gt;Де?&lt;/font&gt;" style="text;html=1;strokeColor=none;fillColor=none;align=center;verticalAlign=middle;whiteSpace=wrap;rounded=0;strokeWidth=1;fontSize=16;fontColor=#333333;" vertex="1" parent="1">
          <mxGeometry x="70" y="220" width="55" height="30" as="geometry" />
        </mxCell>
        <mxCell id="J81wiMtJb4JgW4ucFd7Q-30" value="" style="rounded=1;whiteSpace=wrap;html=1;strokeColor=#21527F;strokeWidth=1;fontSize=16;fontColor=#333333;fillColor=#FFFFFF;opacity=70;" vertex="1" parent="1">
          <mxGeometry x="60" y="280" width="140" height="40" as="geometry" />
        </mxCell>
        <mxCell id="J81wiMtJb4JgW4ucFd7Q-26" value="" style="rounded=1;whiteSpace=wrap;html=1;strokeColor=#21527F;strokeWidth=1;fontSize=16;fontColor=#333333;fillColor=#FFFFFF;" vertex="1" parent="1">
          <mxGeometry x="70" y="285" width="30" height="30" as="geometry" />
        </mxCell>
        <mxCell id="J81wiMtJb4JgW4ucFd7Q-29" value="Онлайн" style="text;html=1;strokeColor=none;fillColor=none;align=center;verticalAlign=middle;whiteSpace=wrap;rounded=0;strokeWidth=1;fontSize=16;fontColor=#333333;" vertex="1" parent="1">
          <mxGeometry x="120" y="285" width="60" height="30" as="geometry" />
        </mxCell>
        <mxCell id="J81wiMtJb4JgW4ucFd7Q-31" value="Text" style="text;html=1;strokeColor=none;fillColor=none;align=center;verticalAlign=middle;whiteSpace=wrap;rounded=0;strokeWidth=1;fontSize=16;fontColor=#333333;opacity=70;" vertex="1" parent="1">
          <mxGeometry x="210" y="190" width="60" height="30" as="geometry" />
        </mxCell>
      </root>
    </mxGraphModel>
  </diagram>
</mxfile>
